<?xml version="1.0" encoding="utf-8"?>
<!-- Generator: Adobe Illustrator 23.0.0, SVG Export Plug-In . SVG Version: 6.00 Build 0)  -->
<svg version="1.1" id="圖層_1" xmlns="http://www.w3.org/2000/svg" xmlns:xlink="http://www.w3.org/1999/xlink" x="0px" y="0px"
	 viewBox="0 0 867 840" style="enable-background:new 0 0 867 840;" xml:space="preserve">
<style type="text/css">
	.st0{fill:none;}
	.st1{fill:#FFFFFF;}
	.st2{fill:#EDFFDB;}
	.st3{fill:#3F5D45;}
	.st4{fill:none;stroke:#535461;stroke-miterlimit:10;}
	.st5{fill:none;stroke:#535461;stroke-width:2;stroke-miterlimit:10;}
	.st6{opacity:0.25;enable-background:new    ;}
	.st7{fill:#2F4634;}
	.st8{fill:#CFADA4;}
	.st9{fill:#DBACA2;}
	.st10{fill:#E8C2B8;}
	.st11{fill:#B2260B;}
	.st12{fill:#F0F0F0;}
	.st13{fill:#F8FAF8;}
</style>
<g>
	<rect class="st0" width="867" height="840"/>
	<rect id="Rectangle_11_1_" class="st1" width="867" height="840"/>
	<ellipse id="Ellipse_46_1_" class="st2" cx="447" cy="440.8" rx="419.8" ry="355"/>
	<g id="Group_3-2_1_" transform="translate(0 105.184)">
		<path id="Path_239_1_" class="st3" d="M9.8,497.7c0,0-62.3,97.3,141.9,99c0,0,3-84.7-63.7-119.5c-26.9-14.1-60-5.9-77.2,19.1
			L9.8,497.7z"/>
		<path id="Path_240_1_" class="st4" d="M10.3,495.9c0,0,104.6,20.6,141.4,100.6"/>
		<path id="Path_231_1_" class="st5" d="M160.8,586.2c0,0-67.2-86.8-61-172.3c2.8-35.9-6.1-71.7-25.4-102
			c-9.3-14.3-19.8-27.8-31.5-40.2"/>
		<path id="Path_229_1_" class="st3" d="M46.4,220.9c4.7,12-3.5,55.4-3.5,55.4s-35.4-26.4-40-38.4c-4.7-12,1.2-25.6,13.3-30.3
			C28.1,203,41.7,208.9,46.4,220.9L46.4,220.9z"/>
		<path id="Path_234_1_" class="st3" d="M108.4,273.5c-2.6,12.6-33,44.6-33,44.6S60,276.7,62.6,264c3-12.6,15.6-20.3,28.2-17.3
			C102.8,249.6,110.5,261.3,108.4,273.5L108.4,273.5z"/>
		<path id="Path_232_1_" class="st3" d="M30.6,335.6c11.9,5,55.4-2,55.4-2s-25.4-36.1-37.3-41.1c-11.8-5.2-25.6,0.1-30.8,11.9
			c-5.2,11.8,0.1,25.6,11.9,30.8C30,335.4,30.3,335.5,30.6,335.6z"/>
		<path id="Path_236_1_" class="st3" d="M47.1,443.5c12.8,1.3,52.3-18.5,52.3-18.5s-35-26.8-47.9-28c-12.9-0.9-24,8.8-24.9,21.7
			C25.7,431.1,34.7,442,47.1,443.5L47.1,443.5z"/>
		<path id="Path_241_1_" class="st3" d="M77.7,546.2c12.5,3.4,54.7-9.4,54.7-9.4s-30-32.3-42.4-35.7c-12.4-3.5-25.3,3.7-28.8,16.2
			c-3.5,12.4,3.7,25.3,16.2,28.8C77.4,546.1,77.6,546.1,77.7,546.2L77.7,546.2z"/>
		<path id="Path_230_1_" class="st6" d="M45.1,222.2c4.7,12-3.5,55.4-3.5,55.4s-35.4-26.4-40-38.4c-4.7-12,1.2-25.6,13.3-30.3
			C26.9,204.2,40.4,210.2,45.1,222.2L45.1,222.2z"/>
		<path id="Path_235_1_" class="st6" d="M107.1,274.7c-2.6,12.6-33,44.6-33,44.6s-15.4-41.3-12.8-54c3-12.6,15.6-20.3,28.2-17.3
			C101.5,250.8,109.2,262.6,107.1,274.7L107.1,274.7z"/>
		<path id="Path_233_1_" class="st6" d="M29.3,336.9c11.9,5,55.4-2,55.4-2s-25.4-36.1-37.3-41.1c-11.8-5.2-25.6,0.1-30.8,11.9
			c-5.2,11.8,0.1,25.6,11.9,30.8C28.8,336.7,29,336.8,29.3,336.9z"/>
		<path id="Path_237_1_" class="st6" d="M45.8,444.7c12.8,1.3,52.3-18.5,52.3-18.5s-35-26.8-47.9-28c-12.9-0.9-24,8.8-24.9,21.7
			C24.4,432.3,33.4,443.3,45.8,444.7L45.8,444.7z"/>
		<path id="Path_242_1_" class="st6" d="M76.5,547.4c12.5,3.4,54.7-9.4,54.7-9.4s-30-32.3-42.4-35.7c-12.4-3.5-25.3,3.7-28.8,16.2
			c-3.5,12.4,3.7,25.3,16.2,28.8C76.2,547.4,76.3,547.4,76.5,547.4L76.5,547.4z"/>
		<path id="Path_243_1_" class="st7" d="M149.9,380.1c-8.6,9.6-51,21.8-51,21.8s7.6-43.4,16.2-53c8.6-9.6,23.4-10.4,33-1.8
			C157.7,355.7,158.5,370.5,149.9,380.1L149.9,380.1z"/>
		<path id="Path_245_1_" class="st7" d="M162.8,474.5c-6.9,10.9-46.6,30.2-46.6,30.2s0.2-44.1,7-55c7-10.8,21.5-14,32.3-7
			C166.2,449.6,169.5,463.7,162.8,474.5L162.8,474.5z"/>
		<path id="Path_244_1_" class="st6" d="M151.2,380.1c-8.6,9.6-51,21.8-51,21.8s7.6-43.4,16.2-53c8.6-9.6,23.4-10.4,33-1.8
			C159,355.7,159.8,370.5,151.2,380.1L151.2,380.1z"/>
		<path id="Path_246_1_" class="st6" d="M164.1,474.5c-6.9,10.9-46.6,30.2-46.6,30.2s0.2-44.1,7-55c7-10.8,21.5-14,32.3-7
			C167.5,449.6,170.7,463.7,164.1,474.5L164.1,474.5z"/>
	</g>
	<path id="Path_188_1_" class="st8" d="M565.1,28.1l-28.7-14v171.4l28.7,14.1l28.7-14.1V14.1L565.1,28.1z"/>
	<path id="Path_189_1_" class="st9" d="M565.1,199.6V28.1l28.7-14v171.4L565.1,199.6z"/>
	<path id="Path_190_1_" class="st8" d="M262.8,176.2l-16.6-8.2v171.5l16.6,8.2l18.3-9V167.1L262.8,176.2z"/>
	<path id="Path_191_1_" class="st9" d="M281.1,338.6l-18.3,9V176.2l18.3-9V338.6z"/>
	<path id="Path_192_1_" class="st8" d="M342,137.3l-16.6-8.2v171.5l16.6,8.2l18.2-9V128.3L342,137.3z"/>
	<path id="Path_193_1_" class="st9" d="M360.3,299.8l-18.2,9V137.4l18.2-9V299.8z"/>
	<path id="Path_194_1_" class="st8" d="M420.8,98.8l-16.6-8.2v171.5l16.6,8.2l18.3-9V89.7L420.8,98.8z"/>
	<path id="Path_195_1_" class="st9" d="M439,261.2l-18.3,9V98.8l18.3-9V261.2z"/>
	<path id="Path_196_1_" class="st8" d="M500,59.9l-16.6-8.2v171.5l16.6,8.2l18.3-9V50.9L500,59.9z"/>
	<path id="Path_197_1_" class="st9" d="M518.2,222.4l-18.3,9V59.9l18.3-9V222.4z"/>
	<path id="Path_198_1_" class="st9" d="M682.6,85.8l-18.3-9.1v171.5l18.3,9l16.6-8.2V77.7L682.6,85.8z"/>
	<path id="Path_199_1_" class="st8" d="M664.3,248.3l18.3,9V85.8l-18.3-9.1V248.3z"/>
	<path id="Path_200_1_" class="st9" d="M603.8,47.3l-18.2-9v171.5l18.2,9l16.6-8.2V39.1L603.8,47.3z"/>
	<g id="Group_7-3_1_" transform="translate(39.843)">
		<path id="Path_201_1_" class="st8" d="M545.7,209.7l18.2,9V47.3l-18.2-9V209.7z"/>
		<path id="Path_202_1_" class="st8" d="M737,103.3L525.5,0L78.1,218.5l211.7,103.8l28.7-14L135,218.7L509.9,35.6l167.4,81.7
			L389.5,257.4l16.6,8.2L737,103.3z"/>
		<path id="Path_203_1_" class="st8" d="M582.6,385.8l-28.7,14v26.6l154.4,75.4v-54.6L582.6,385.8z"/>
	</g>
	<path id="Path_204_1_" class="st10" d="M593.8,399.8l28.7-14l125.7,61.4v28L593.8,399.8z"/>
	<path id="Path_205_1_" class="st9" d="M565.3,456.1l-29.4,14.3l-418,204.1v58.7l28.4,17.2l29,14.2l0,0l125.7,61.9l0,0l28.3,12.9
		l29.1-12.9h-0.1l361.3-176.9l0,0l28.9-14.7l29-13.5l-0.6-62.1L565.3,456.1z"/>
	<path id="Path_206_1_" class="st10" d="M117.9,674.6l447.2-218.4L776.8,560L329.6,778.4L117.9,674.6z"/>
	<path id="Path_207_1_" class="st9" d="M719.5,365.1v196l28.7,14l28.7-14v-224L719.5,365.1z"/>
	<path id="Path_208_1_" class="st8" d="M719.5,365.1v196l28.7,14v-224L719.5,365.1z"/>
	<path id="Path_209_1_" class="st8" d="M719.5,365.1v41.4l28.7,14v-69.4L719.5,365.1z"/>
	<path id="Path_210_1_" class="st11" d="M719.5,649.8L719.5,649.8l28.7-14l0,0L719.5,649.8z"/>
	<path id="Path_211_1_" class="st12" d="M720.5,480.6l-159-78.1c-8.3-4-17.9-4-26.2,0l-361,176.3c-5.1,2.2-8.4,7.1-8.6,12.6v65.9
		c0.2,5.5,3.5,10.4,8.6,12.6l159,78.1c8.3,4,17.9,4,26.2,0l361-176.3c5.1-2.2,8.4-7.1,8.6-12.6v-65.9
		C728.9,487.6,725.6,482.7,720.5,480.6L720.5,480.6z"/>
	<path id="Path_212_1_" class="st13" d="M174.2,578.7l361-176.3c8.3-4,17.9-4,26.2,0l159,78.1c6.9,2.7,10.4,10.6,7.6,17.5
		c-1.4,3.5-4.1,6.3-7.6,7.6l-361,176.3c-8.3,4-17.9,4-26.2,0l-159-78.1c-6.9-2.7-10.4-10.6-7.6-17.5
		C168,582.8,170.8,580.1,174.2,578.7z"/>
	<path id="Path_213_1_" class="st8" d="M117.9,674.6v61.6l28.7,14.7l0,0l154.4,75.9l0,0l28.7,13.3v-61.6L117.9,674.6z"/>
	<path id="Path_214_1_" class="st8" d="M445.9,437.1l-16.6-8.2v284.7l16.6,8.2l18.3-9V428L445.9,437.1z"/>
	<path id="Path_215_1_" class="st9" d="M464.2,712.7l-18.3,9V437.1l18.3-9V712.7z"/>
	<path id="Path_216_1_" class="st10" d="M429.3,531.9l-116.3,56.8l16.6,8.1V609l116.3-56.8V540L429.3,531.9z"/>
	<path id="Path_217_1_" class="st9" d="M329.6,596.8v12.1l116.3-56.8V540L329.6,596.8z"/>
	<path id="Path_218_1_" class="st10" d="M429.3,596.9l-116.3,56.8l16.6,8.1v12.1l116.3-56.8V605L429.3,596.9z"/>
	<path id="Path_219_1_" class="st9" d="M329.6,661.8v12.1l116.3-56.8V605L329.6,661.8z"/>
	<path id="Path_220_1_" class="st10" d="M429.3,662.3l-116.3,56.8l16.6,8.1v12.1l116.3-56.8v-12.1L429.3,662.3z"/>
	<path id="Path_221_1_" class="st9" d="M329.6,727.2v12.1l116.3-56.8v-12.1L329.6,727.2z"/>
	<path id="Path_222_1_" class="st9" d="M719.5,365.1L719.5,365.1l57.3-28v-62.4L565.3,171.5l-29.4,14.3l-418,204.1v284.7l28.7,14
		l28.7-14V480.1L300.9,542v222.4l28.7,14l28.7-14V542h-0.1L719.5,365.1z"/>
	<path id="Path_223_1_" class="st10" d="M117.9,389.9l447.2-218.4l211.7,103.3l-447.2,219L117.9,389.9z"/>
	<path id="Path_224_1_" class="st8" d="M748.2,117.3l-28.7-14v171.4l28.7,14.1l28.7-14.1V103.3L748.2,117.3z"/>
	<path id="Path_225_1_" class="st9" d="M748.2,288.8V117.3l28.6-14v171.4L748.2,288.8z"/>
	<path id="Path_226_1_" class="st12" d="M720.5,195.4l-159-78.1c-8.3-4-17.9-4-26.2,0l-361,176.3c-5.1,2.2-8.4,7.1-8.6,12.6V372
		c0.2,5.5,3.5,10.4,8.6,12.6l159,78.1c8.3,4,17.9,4,26.2,0l361-176.3c5.1-2.2,8.4-7.1,8.6-12.6V208
		C728.9,202.5,725.6,197.6,720.5,195.4L720.5,195.4z"/>
	<path id="Path_227_1_" class="st13" d="M174.2,293.5l361-176.3c8.3-4,17.9-4,26.2,0l159,78.1c6.9,2.7,10.4,10.6,7.6,17.5
		c-1.4,3.5-4.1,6.3-7.6,7.6l-361,176.3c-8.3,4-17.9,4-26.2,0l-159-78.1c-6.9-2.7-10.4-10.6-7.6-17.5
		C168,297.6,170.8,294.9,174.2,293.5L174.2,293.5z"/>
	<path id="Path_228_1_" class="st8" d="M117.9,389.9v284.7l28.7,14V466.1L300.9,542v222.4l28.7,14V493.8L117.9,389.9z"/>
	<path id="Path_229-2_1_" class="st8" d="M175.2,576.7l-28.7,14v26.6l154.4,75.4v-54.6L175.2,576.7z"/>
	<path id="Path_230-2_1_" class="st10" d="M146.6,590.7l28.7-14l125.7,61.4v28L146.6,590.7z"/>
	<path id="Path_231-2_1_" class="st9" d="M329.6,322.2l-28.7-14v171.4l28.7,14.1l28.7-14.1V308.2L329.6,322.2z"/>
	<path id="Path_232-2_1_" class="st8" d="M329.6,493.7V322.2l-28.7-14v171.4L329.6,493.7z"/>
	<path id="Path_233-2_1_" class="st8" d="M445.9,265.6l-16.6-8.2v171.5l16.6,8.2l18.3-9V256.5L445.9,265.6z"/>
	<path id="Path_234-2_1_" class="st9" d="M464.2,428l-18.3,9V265.6l18.3-9V428z"/>
	<path id="Path_235-2_1_" class="st8" d="M525.1,226.7l-16.6-8.2v171.5l16.6,8.2l18.3-9V217.7L525.1,226.7z"/>
	<path id="Path_236-2_1_" class="st9" d="M543.4,389.2l-18.3,9V226.7l18.3-9L543.4,389.2z"/>
	<path id="Path_237-2_1_" class="st8" d="M603.9,188.1l-16.6-8.2v171.5l16.6,8.2l18.2-9V179.1L603.9,188.1z"/>
	<path id="Path_238_1_" class="st9" d="M622.1,350.6l-18.2,9V188.1l18.2-9V350.6z"/>
	<path id="Path_239-2_1_" class="st8" d="M683.1,149.3l-16.6-8.2v171.5l16.6,8.2l18.2-9V140.3L683.1,149.3z"/>
	<path id="Path_240-2_1_" class="st9" d="M701.3,311.8l-18.2,9V149.3l18.2-9V311.8z"/>
	<path id="Path_241-2_1_" class="st9" d="M445.9,265.6v15.1l330.9-162.3v-15.1L445.9,265.6z"/>
	<path id="Path_242-2_1_" class="st9" d="M146.6,232.5l-28.7-14v171.4l28.7,14.1l28.7-14.1V218.5L146.6,232.5z"/>
	<path id="Path_243-2_1_" class="st8" d="M146.6,404V232.5l-28.7-14v171.4L146.6,404z"/>
	<path id="Path_244-2_1_" class="st9" d="M264,289.9l-18.3-9v171.5l18.3,9l16.6-8.2V281.7L264,289.9z"/>
	<path id="Path_245-2_1_" class="st8" d="M245.7,452.3l18.3,9V289.9l-18.3-9V452.3z"/>
	<path id="Path_246-2_1_" class="st9" d="M185.2,251.2l-18.2-9v171.5l18.2,9l16.6-8.2V243.1L185.2,251.2z"/>
	<path id="Path_247_1_" class="st8" d="M167,413.7l18.2,9V251.2l-18.2-9V413.7z"/>
	<path id="Path_248-2_1_" class="st10" d="M565.3,0L117.9,218.5l211.7,103.8l28.7-14l-168-82l374.9-183V28.1l0,0l167.5,81.7
		L429.4,257.4l16.6,8.2l330.9-162.3L565.3,0z"/>
	<path id="Path_249-2_1_" class="st8" d="M329.6,336.9L117.9,233.5v-15l211.7,103.2V336.9z"/>
	<path id="Path_250-2_1_" class="st9" d="M174.8,218.7l15.4,7.5l374.8-183V28L174.8,218.7z"/>
	<path id="Path_247-2_1_" class="st3" d="M688.2,713.9c-2.6-2.1-4.5-5-5.5-8.2c-0.9-3.3,0.7-6.9,3.8-8.4c3.5-1.3,7.2,1.1,10.1,3.6
		s6.1,5.2,9.8,4.7c-3.9-3.5-5.6-8.8-4.6-14c0.2-1,0.6-2,1.3-2.8c1.9-2.1,5.5-1.2,7.8,0.5c7.4,5.2,9.5,15.3,9.5,24.3
		c0.4-3.3,0.5-6.7,0.1-10c-0.3-3.4,1.1-6.7,3.8-8.9c1.8-0.9,3.7-1.4,5.7-1.3c3.3-0.5,6.7,0.5,9.3,2.6c2.5,3.4,2.4,8.2-0.4,11.4
		c-2.7,3.1-6,5.7-9.6,7.7c-2.8,1.6-5.1,3.9-6.9,6.6c-0.2,0.4-0.4,0.8-0.5,1.2h-20.8C696.4,720.5,692.1,717.5,688.2,713.9z"/>
</g>
</svg>
