<?xml version="1.0" encoding="utf-8"?>
<!-- Generator: Adobe Illustrator 23.0.0, SVG Export Plug-In . SVG Version: 6.00 Build 0)  -->
<svg version="1.1" id="圖層_1" xmlns="http://www.w3.org/2000/svg" xmlns:xlink="http://www.w3.org/1999/xlink" x="0px" y="0px"
	 viewBox="0 0 1001 800" style="enable-background:new 0 0 1001 800;" xml:space="preserve">
<style type="text/css">
	.st0{fill:none;}
	.st1{fill:#FFFFFF;}
	.st2{fill:#EDFFDB;}
	.st3{fill:#3F5D45;}
	.st4{fill:none;stroke:#535461;stroke-miterlimit:10;}
	.st5{fill:none;stroke:#535461;stroke-width:2;stroke-miterlimit:10;}
	.st6{opacity:0.25;enable-background:new    ;}
	.st7{fill:#DBACA2;}
	.st8{opacity:0.9;fill:#E8C2B8;enable-background:new    ;}
	.st9{opacity:0.1;enable-background:new    ;}
	.st10{fill:#F0F0F0;}
	.st11{fill:#F8FAF8;}
	.st12{opacity:0.1;fill:#F0F0F0;enable-background:new    ;}
	.st13{opacity:5.000000e-02;fill:#3F5D45;enable-background:new    ;}
	.st14{opacity:0.1;fill:#F8FAF8;enable-background:new    ;}
	.st15{opacity:5.000000e-02;enable-background:new    ;}
	.st16{fill:url(#Path_33-2_2_);}
	.st17{fill:#FFBCC7;}
	.st18{opacity:3.000000e-02;enable-background:new    ;}
	.st19{fill:#FEB7C5;}
	.st20{fill:#5D526D;}
	.st21{fill:#78BF45;}
	.st22{fill:#F2DA63;}
	.st23{opacity:0.16;fill:#996633;}
	.st24{fill:#8E6F80;}
	.st25{fill:#CCCAD6;}
	.st26{fill:#275934;}
	.st27{fill:#FFE09C;}
	.st28{fill:#E7C4C3;}
	.st29{fill:#FF7F8E;}
	.st30{fill:#94CC79;}
	.st31{opacity:0.2;fill:#FFFFFF;enable-background:new    ;}
	.st32{fill:#85596B;}
	.st33{fill:#669966;}
	.st34{fill:#EFF4EF;}
	.st35{fill:#CCFFCC;}
	.st36{fill:#99CC99;}
</style>
<g>
	<rect y="0" class="st0" width="1001" height="800"/>
	<rect id="Rectangle_13_1_" y="0" class="st1" width="1001" height="800"/>
	<path id="Path_1-2_1_" class="st2" d="M103.6,433.1c36.9,61.8,29.9,144.8,13.7,210c-5.4,21.8-11.7,44.8-7,69.5
		c5.7,30.2,26.3,54.2,47.2,68.1c38.1,25.4,81.7,25.7,113.4,0.7c27.4-21.6,45.4-59.8,73.4-80.2c46.8-34.2,110.9-11.4,166.6,22.7
		c39.4,24.1,82.8,54.5,119.2,38.7c25.6-11.1,41.6-43.9,49.1-79.7c3.6-17.3,5.8-36.2,14.1-49.3c4.8-7.1,11.2-12.9,18.7-17
		c63.9-38,150.4-3.1,212.1-46.3c41.6-29.2,65.3-90.9,73.1-157.2s1.4-137.7-6.5-207.9c-5.7-49.9-13.4-103.4-38.9-144.5
		c-27-43.5-69.7-63.5-106.8-60.4s-69.3,26.6-97.1,55.3c-34.7,35.9-66,82.1-110.9,92.9c-30.6,7.4-64-2.7-96.5-8.7
		c-54.3-10-107.8-8.7-161-6.6c-50.9,2-102.1,4.9-149.5,22.1c-33.6,12.2-59.3,38.6-90.6,55.5c-20.4,11-43.4,11.9-62.5,26.7
		c-29.3,22.8-42.7,60.4-34.4,96.5C51.4,375.9,84,400.3,103.6,433.1z"/>
	<path id="Path_2-2_1_" class="st3" d="M7.8,302.7c0,0-49.6,77.4,112.9,78.8c0,0,2.4-67.4-50.7-95.1c-21.4-11.2-47.8-4.7-61.4,15.2
		L7.8,302.7z"/>
	<path id="Path_3-2_1_" class="st4" d="M8.2,301.2c0,0,83.2,16.4,112.6,80.1"/>
	<path id="Path_4-2_1_" class="st5" d="M128,373.1c0,0-53.4-69.1-48.6-137.1c2.2-28.5-4.9-57-20.2-81.2c-7.4-11.4-15.8-22.1-25.1-32
		"/>
	<path id="Path_5-2_1_" class="st3" d="M36.9,82.4c3.7,9.6-2.8,44.1-2.8,44.1S6,105.5,2.3,95.9c-3.7-9.6,1-20.3,10.6-24.1
		C22.4,68.1,33.2,72.9,36.9,82.4z"/>
	<path id="Path_6-2_1_" class="st3" d="M86.2,124.2c-2,10.1-26.3,35.5-26.3,35.5s-12.2-32.9-10.2-43c2.2-10,12.2-16.3,22.2-14.1
		C81.8,104.8,88.1,114.4,86.2,124.2L86.2,124.2z"/>
	<path id="Path_7-2_1_" class="st3" d="M120.2,212.4c-6.9,7.6-40.6,17.4-40.6,17.4s6.1-34.6,12.9-42.2c6.9-7.6,18.6-8.3,26.3-1.4
		S127.1,204.8,120.2,212.4L120.2,212.4L120.2,212.4z"/>
	<path id="Path_8-2_1_" class="st3" d="M130.6,285.9c-5.5,8.7-37.1,24-37.1,24s0.1-35.1,5.6-43.8c5.5-8.7,17-11.3,25.6-5.8
		C133.4,265.8,136,277.3,130.6,285.9L130.6,285.9z"/>
	<path id="Path_9-2_1_" class="st3" d="M24.3,173.7c9.5,4,44.1-1.6,44.1-1.6s-20.2-28.7-29.7-32.7c-9.4-4.1-20.4,0.3-24.4,9.7
		c-4.1,9.4,0.3,20.4,9.7,24.4C24.1,173.6,24.2,173.6,24.3,173.7L24.3,173.7z"/>
	<path id="Path_10-2_1_" class="st3" d="M37.5,259.5c10.2,1,41.6-14.7,41.6-14.7S51.2,223.5,41,222.5c-10.2-0.7-19.1,7-19.9,17.2
		C20.4,249.7,27.6,258.4,37.5,259.5L37.5,259.5z"/>
	<path id="Path_11-2_1_" class="st3" d="M61.8,341.3c9.9,2.7,43.5-7.5,43.5-7.5s-23.9-25.7-33.8-28.4c-9.8-2.9-20.2,2.7-23.1,12.5
		c-2.9,9.8,2.7,20.2,12.5,23.1C61.2,341.1,61.5,341.2,61.8,341.3L61.8,341.3z"/>
	<path id="Path_12-2_1_" class="st6" d="M35.9,83.4c3.7,9.6-2.8,44.1-2.8,44.1S5,106.5,1.3,96.9c-3.7-9.6,1-20.3,10.6-24.1
		S32.2,73.9,35.9,83.4z"/>
	<path id="Path_13-2_1_" class="st6" d="M85.2,125.2c-2,10.1-26.3,35.5-26.3,35.5s-12.2-32.9-10.2-43c2.2-10,12.2-16.3,22.2-14.1
		C80.8,105.8,87.1,115.4,85.2,125.2L85.2,125.2z"/>
	<path id="Path_14-2_1_" class="st6" d="M119.2,213.4c-6.9,7.6-40.6,17.4-40.6,17.4s6.1-34.6,12.9-42.2c6.9-7.6,18.6-8.3,26.3-1.4
		S126.1,205.8,119.2,213.4L119.2,213.4L119.2,213.4z"/>
	<path id="Path_15-2_1_" class="st6" d="M129.6,286.9c-5.5,8.7-37.1,24-37.1,24s0.1-35.1,5.6-43.8c5.5-8.7,17-11.3,25.6-5.8
		C132.4,266.8,135,278.3,129.6,286.9L129.6,286.9z"/>
	<path id="Path_16-2_1_" class="st6" d="M23.3,174.7c9.5,4,44.1-1.6,44.1-1.6s-20.2-28.7-29.7-32.7c-9.4-4.1-20.4,0.3-24.4,9.7
		c-4.1,9.4,0.3,20.4,9.7,24.4C23.1,174.6,23.2,174.7,23.3,174.7L23.3,174.7z"/>
	<path id="Path_17-2_1_" class="st6" d="M36.5,260.5c10.2,1,41.6-14.7,41.6-14.7S50.2,224.5,40,223.5c-10.2-0.7-19.1,7-19.9,17.2
		C19.4,250.7,26.6,259.4,36.5,260.5L36.5,260.5z"/>
	<path id="Path_18-2_1_" class="st6" d="M60.8,342.3c9.9,2.7,43.5-7.5,43.5-7.5s-23.9-25.7-33.8-28.4c-9.8-2.9-20.2,2.7-23.1,12.5
		c-2.9,9.8,2.7,20.2,12.5,23.1C60.2,342.1,60.5,342.2,60.8,342.3L60.8,342.3z"/>
	<path id="Path_19-2_1_" class="st7" d="M123.7,136.8v341.8l454.8-88.3l-8.7-262.2L123.7,136.8z"/>
	<path id="Path_21-2_1_" class="st8" d="M983.4,535.8v111.1L499.9,785l-4.9-2.5l-382.5-194V129.3l473.4-15l2.9,254.9l-18.9,5.7
		l-7.3-238.4L146,150.7L143,496l362.7,155.2l0.3-0.1L983.4,535.8z"/>
	<path id="Path_22-2_1_" class="st9" d="M983.4,531.6v113L502.6,785l-4.9-2.5l11-133.7L983.4,531.6z"/>
	<path id="Path_23-2_1_" class="st10" d="M400.4,370.8c0,0-234.1,23.2-256.9,56.9s-0.2,74.9-0.2,74.9L505.2,659l490.9-126
		c0,0-13.1-88.4-53.9-98.5s-365.6-79.7-365.6-79.7S445.5,346.9,400.4,370.8z"/>
	<path id="Path_24-2_1_" class="st11" d="M143.2,429.4l369.3,126.7c0,0,394-118.8,449.8-107.5c0,0-275.6-98-385.7-93.8
		c-60.1,2.9-120.1,8.8-179.6,17.7C397.1,372.6,153.4,396.8,143.2,429.4z"/>
	<path id="Rectangle_4_1_" class="st12" d="M219.9,294.1l46-38.7c31.4-26.5,78.4-22.5,104.9,9l0,0c26.5,31.4,22.5,78.4-9,104.9
		l-46,38.7c-31.4,26.5-78.4,22.5-104.9-9l0,0C184.4,367.5,188.4,320.6,219.9,294.1z"/>
	<path id="Rectangle_5-2_1_" class="st10" d="M224.6,295.5l43-36.2c29.4-24.8,73.3-21,98,8.4l0,0c24.8,29.4,21,73.3-8.4,98l-43,36.2
		c-29.4,24.8-73.3,21-98-8.4l0,0C191.4,364.2,195.2,320.3,224.6,295.5z"/>
	<path id="Path_25-2_1_" class="st13" d="M219,375.8c2.5-4.2,6.1-7.5,10.5-9.7c2.6-1,5.5-1.2,8.1-2.3c5.4-2.3,8.3-8.1,10.3-13.7
		c2-5.5,3.7-11.6,8-15.5"/>
	<path id="Path_26-2_1_" class="st13" d="M244.1,385.1c2.5-4.2,6.1-7.5,10.5-9.7c2.6-1,5.5-1.2,8.1-2.3c5.4-2.3,8.3-8.1,10.3-13.7
		c2-5.5,3.7-11.6,8-15.5"/>
	<path id="Path_27-2_1_" class="st13" d="M299,305.4c2.5-4.2,6.1-7.5,10.5-9.7c2.6-1,5.5-1.2,8.1-2.3c5.4-2.3,8.3-8.1,10.3-13.7
		c2-5.5,3.7-11.6,8-15.5"/>
	<path id="Path_28-2_1_" class="st9" d="M308.6,368.9c2.5-4.2,6.1-7.5,10.5-9.7c2.6-1,5.5-1.2,8.1-2.3c5.4-2.3,8.3-8.1,10.3-13.7
		c2-5.5,3.7-11.6,8-15.5"/>
	<path id="Rectangle_6-2_1_" class="st11" d="M403.1,271.6l46-38.7c31.4-26.5,78.4-22.5,104.9,9l0,0c26.5,31.4,22.5,78.4-9,104.9
		l-46,38.7c-31.4,26.5-78.4,22.5-104.9-9l0,0C367.6,345,371.6,298,403.1,271.6z"/>
	<path id="Rectangle_7-2_1_" class="st14" d="M403.1,271.6l46-38.7c31.4-26.5,78.4-22.5,104.9,9l0,0c26.5,31.4,22.5,78.4-9,104.9
		l-46,38.7c-31.4,26.5-78.4,22.5-104.9-9l0,0C367.6,345,371.6,298,403.1,271.6z"/>
	<path id="Rectangle_8-2_1_" class="st11" d="M407.7,274l43-36.2c29.4-24.8,73.3-21,98,8.4l0,0c24.8,29.4,21,73.3-8.4,98l-43,36.2
		c-29.4,24.8-73.3,21-98-8.4l0,0C374.6,342.6,378.4,298.7,407.7,274z"/>
	<path id="Path_29-2_1_" class="st15" d="M401.9,354.1c2.5-4.2,6.1-7.5,10.5-9.7c2.6-1,5.5-1.2,8.1-2.3c5.4-2.3,8.3-8.1,10.3-13.7
		c2-5.5,3.7-11.6,8-15.5"/>
	<path id="Path_30-2_1_" class="st15" d="M427,363.4c2.5-4.2,6.1-7.5,10.5-9.7c2.6-1,5.5-1.2,8.1-2.3c5.4-2.3,8.3-8.1,10.3-13.7
		c2-5.5,3.7-11.6,8-15.5"/>
	<path id="Path_31-2_1_" class="st15" d="M481.9,283.7c2.5-4.2,6.1-7.5,10.5-9.7c2.6-1,5.5-1.2,8.1-2.3c5.4-2.3,8.3-8.1,10.3-13.7
		c2-5.5,3.7-11.6,8-15.5"/>
	<path id="Path_32-2_1_" class="st9" d="M491.5,347.3c2.5-4.2,6.1-7.5,10.5-9.7c2.6-1,5.5-1.2,8.1-2.3c5.4-2.3,8.3-8.1,10.3-13.7
		c2-5.5,3.7-11.6,8-15.5"/>
	
		<linearGradient id="Path_33-2_2_" gradientUnits="userSpaceOnUse" x1="118.5886" y1="1093.1066" x2="118.5886" y2="1096.5228" gradientTransform="matrix(241.3331 0 0 -150.1577 -28082.4902 164775.1875)">
		<stop  offset="0" style="stop-color:#00800B;stop-opacity:0.251"/>
		<stop  offset="0.54" style="stop-color:#00800B;stop-opacity:0.122"/>
		<stop  offset="1" style="stop-color:#00800B;stop-opacity:0.102"/>
	</linearGradient>
	<path id="Path_33-2_1_" class="st16" d="M948.9,629.2c-0.8-3.3-3.4-5.8-6.7-6.6c-28.3-7-53.8-60.4-53.8-60.4
		c-1.4-8.9-4.2-17.4-8.2-25.4c-3.7-9.6-6.2-19.7-7.5-29.9c9.1-4.1,16.1-8.7,11.6-11.8c-2.5-1.7-5.4-2.9-8.4-3.5l-2.9-15.8
		c1-11.2-7.2-48.9-7.2-48.9l-7.1-58.4c0.5-1.2,0.3-2.6-0.5-3.6v-0.1l-0.2-0.3l-0.1-0.1l-0.2-0.3l-0.1-0.2l-0.4-0.5l-0.2-0.3
		l-0.2-0.2l-0.3-0.3l-0.2-0.2l-0.4-0.3l-0.2-0.2l-0.5-0.4l-0.2-0.2c-0.5-0.4-1.1-0.8-1.7-1.2l-0.2-0.1l-0.8-0.5l-0.3-0.2l-0.8-0.5
		l-0.3-0.2l-1-0.5l-0.2-0.1c-0.9-0.5-1.8-0.9-2.8-1.4l-0.2-0.1l-1.3-0.6l-0.5-0.2l-1.2-0.5l-0.5-0.2l-1.4-0.5l-0.5-0.2l-2-0.7
		c-0.7-0.2-1.3-0.4-2-0.6l-0.7-0.2l-1.2-0.3l-0.8-0.2l-1.1-0.2l-0.7-0.2l-1.1-0.2l-0.6-0.1c-0.5-0.1-1.1-0.1-1.6-0.2h-0.3l-1.2-0.1
		h-3.4l-1.2,0.1h-0.1c-0.4,0.1-0.9,0.1-1.3,0.2h-0.1l-1,0.2l-0.3,0.1l-0.8,0.2l-0.3,0.1l-0.7,0.2l-0.3,0.1h-0.1l-0.2,0.1
		c-13,3.6-26.3,6-39.7,7.1c-3-9.4-5.1-19-6.6-28.8c-2-20.4-12.3-43.8-12.3-43.8c-0.1,0.3-0.2,0.5-0.4,0.8c0-0.3-0.1-0.5-0.1-0.8
		c-1.4-7.3-6.5-10-23-16.3c-16.1-6.1-23.6,3.2-26.3,8.3c-0.2,0.3-0.3,0.6-0.4,0.8l-1.9-0.9l-23.6,31.6l-0.6,1.2L667,343.1l-0.5,1.1
		l-0.2,0.2l-22.7,52.2c-12.8-6.4-33.6-6.4-33.6-6.4l-10.2-9.2L574,350.4c-2.5-8.4-5.6-16.5-9.3-24.4c-3.3-8.6-5.4-17.6-6.1-26.7
		c2.5-3.4,4.6-7.1,6.1-11l-0.6-0.7c0.2-0.4,0.4-0.9,0.6-1.3c0,0-20.5-26.5-20.5-36.7c0-10.2-57.3-18.3-57.3-18.3s-0.1,0.2-0.2,0.5
		c-2.3-1.3-4.4-3.1-6-5.2c-0.3-0.3-0.6-0.7-0.8-1.1c3.7-3.9,6.6-8.6,8.5-13.7c1.8,1,3.8,1.5,5.8,1.5c2.5,0,5.6-1.7,5.1-4.2l0,0
		c0.1-0.3,0.1-0.7,0-1c-0.3-1.4-1.6-2.3-2.7-3.4c-1.2-1.2-1.9-2.7-2.1-4.3c0.1-0.9,0.5-1.8,1.1-2.4c0.9-0.7,1.9-1.4,2.9-1.9
		c2.1-2.2,3.1-5.2,2.6-8.1v-1.9c-0.3-6.7-1.1-13.3-2.3-19.9c-0.3-1.7-0.7-3.4-1.2-5c-0.9-2.3-2-4.4-3.4-6.5l-10-16.5
		c-1.2-2.2-2.7-4.1-4.6-5.8c-7-5.3-15.1,1.2-21.7-2.6c-3.1-2.3-6.5-4.1-10.1-5.3c-4.8-0.9-9.7-0.7-14.4,0.6
		c-1.3,0.2-2.5,0.7-3.5,1.6c-1,1.6-1.7,3.4-1.8,5.3c-1.3,3.4-3.8,6.3-7,8c-3.2,1.7-6.4,3.5-9.5,5.5c-5.3,4-8.3,10.2-11.9,15.8
		c-4.7,7.5-10.7,14.1-17.6,19.7c0.1,0.2,0.3,0.5,0.4,0.6l-0.4,0.4c1,2.3,4.6,1.6,6.6,3.1c0.9,0.7,1.4,1.7,1.4,2.8
		c-0.2,1.6-0.7,3.1-1.4,4.6c-1.1,1.8-1.7,4-1.7,6.1c-0.2,1.2,0.2,2.5,1,3.4c0.7,0.5,1.3,1.1,1.8,1.7c0.2,0.3,0.3,0.6,0.4,1
		c-0.3,1.9-1.9,3.9-2.1,5.9c0,0.3,0,0.6,0,0.9v0.2c-0.2,2.7,2.3,4.9,4.7,6.1c2.4,0.8,4.7,2,6.8,3.5c-1.5,1.8-2.3,4.1-2.4,6.4
		c-0.1,0.9,0.1,1.8,0.5,2.6c1.6,3.2,6.1,3.2,9.6,2.4c0.9-0.3,1.9-0.4,2.8-0.2c0.8,0.4,1.5,1,2.1,1.7c3.7,3.1,9.3,2.7,12.4-1.1
		c0.3-0.4,0.6-0.8,0.9-1.2l-0.2,0.8c-0.3,1.3-0.7,2.5-1,3.9v-0.8c0,0-19.4,4.5-34.7,7.8c-8.8,1.9-16.4,7.5-20.8,15.4l-14.2,25.6
		c0,0,0.2,0.4,0.5,1.2l-0.5,0.9c0.9,2.2,2,4.2,3.4,6.1c-6.5,15.2-20.1,44.8-32,55.9c-1.9,1.8-4,3.5-6.1,5.1
		c-2.4-0.1-4.8,0.4-6.9,1.4c-2.5,1.2-4.6,2.9-6.3,5c-1.7,0.4-3.6,0.3-5.3-0.3c-7.1,5.7-13.6,12.1-19.3,19.1
		c-1.6,0.6-3.1,1.1-4.6,1.8c-7,2.9-14,8.6-14,16.1c0,5.3,3.6,10,5.4,15l-4.4,5.1c-5.2,4-11.1,7.1-17.4,9.2
		c-8.2,2-24.6,15.2-24.6,15.2L192,462.4l-3.2,2.1c-5-7.5-9.4-15.3-13.1-23.4c0,0-11.3-20.4-23.6,2l-0.4,0.7c-1.9,3.6-3.3,7.5-4,11.5
		c-14.4-7-21.4,20.4-22.3,26.5c-1.2,4.5-1.1,9.3,0.4,13.7c7.1,16.2,20.8,28.6,37.7,33.9c1.7,0.5,3.3,0.9,5,1.3
		c15.4,3.1,25.6-19.3,25.6-19.3l0.3-3.2c2.3,0.2,4.7,0.3,7,0.2c1.5-0.1,3-0.1,4.7,0c8.2,0.2,16.4-1.4,24-4.4l13.1-5.2l2.2-0.9
		c-0.1,0.4-0.1,0.9-0.2,1.3l49.2-16.2c0,0,16.8-2.1,35.5-4.8c0.6,1.6,1.1,3.3,1.8,4.9c4.3,10,14.1,16.8,24.5,20.1
		c10.6,2.8,21.4,4.1,32.4,3.8h3.4c3.6,0.3,7.1-0.3,10.5-1.5c3.8-1.5,6.3-5.3,6-9.3c-0.9-3-2.8-5.6-5.3-7.4
		c-4.6-3.9-8.4-8.7-10.9-14.2c-0.5-1.3-0.9-2.7-1.2-4.1c2.8,2.6,6.2,4.5,10,5.5c20.5,5.1,56.3,10.2,66.6,7.1
		c10.2-3.1,35.8-9.2,74.8,0c38.9,9.2,50.2,6.1,50.2,6.1l-0.2-0.2c12.7,3.2,25.9,3.8,38.8,1.9c8.1-1.5,16.3-2.6,24.6-3.1
		c5.2-0.4,11.3-1,17.5-2c11.1-1.9,21.2-7.5,28.5-16c20.4,2.7,52.5-9,52.5-9l4.7-2.4l3.5,8.5c0,0-5.1,26.5,26.6,37.7
		c15.1,5.3,30.6,9,46.5,11.2c5.2,34.7,11.9,48.9,11.9,48.9l-11.3,16.3c-3.5,13.8,7,19.5,16.9,21.8c8.3,2,16.1,5.7,22.9,10.8
		c14.3,10.5,42.1,21.3,42.1,21.3C946.3,640.2,950.1,634.4,948.9,629.2z M584.3,402.4l6.3,6.3l-2.2-0.2l-3.9,7.1h-19.6
		c-2,0-11.3-7.1-11.3-7.1l-2.6,0.3l4.7-3.3c0,0,6.8-3.6,5.8-17.1L584.3,402.4z M514.2,376.3c-1.7-5.5-3.6-11.4-5.6-17.1
		c0.2-2.3,0.5-4.5,0.9-6.8l7.3,22.4L514.2,376.3z M370.7,345c-2.3,4-4.9,7.8-7.9,11.3c-0.9-0.3-1.8-0.5-2.8-0.7l0,0
		C360,355.5,364.8,351.4,370.7,345z M791.1,446.1c-0.2-1.4-0.3-2.9-0.6-4.6l12.8-6.7c8.2,6.1,11.3,23.5,12.3,39.3
		C811.3,472.2,793,463.1,791.1,446.1z"/>
	<path id="Path_34-2_1_" class="st17" d="M805.6,360.6c0,0,6-15,29-7c23,8,19.1,14.6,19.1,14.6l-3.1,13.4l-12,7l-20-2L805.6,360.6z"
		/>
	<path id="Path_35-2_1_" class="st18" d="M853.9,367.7c0,0.2-0.1,0.4-0.2,0.5l-3.1,13.4l-12,7l-20-2l-13-26c1.7-3.6,4.7-6.4,8.4-7.8
		c4.5-1.9,11.1-2.5,20.6,0.8C853.7,360.3,854.2,366,853.9,367.7z"/>
	<path id="Path_36-2_1_" class="st17" d="M864.6,478.5c0,0,3,37,10,52c3.9,7.9,6.6,16.3,8,25c0,0,24.9,52.5,52.5,59.4
		c3.2,0.7,5.8,3.2,6.6,6.5c1.1,5.1-2.6,10.8-30.1,5.1c0,0-27.1-10.6-41.1-21c-6.7-5-14.3-8.6-22.4-10.6c-9.6-2.3-19.9-7.9-16.5-21.4
		l11-16c0,0-9-19-14-67C823.6,442.5,864.6,478.5,864.6,478.5z"/>
	<path id="Path_37-2_1_" class="st17" d="M755.4,297.9c0,14-50-13-50-13c0.3-1,0.8-2,1.3-2.9c2.7-5,10-14.1,25.7-8.1
		c16.1,6.1,21,8.7,22.5,16C755.3,292.5,755.4,295.2,755.4,297.9z"/>
	<path id="Path_38-2_1_" class="st17" d="M696.1,301.3l-30,58l-2.8-12.1l1.6-3l15.7-30.7l0.5-1L696.1,301.3z"/>
	<path id="Path_39-2_1_" class="st17" d="M591.5,413.6l-16,35l-11,11l-5.2-5.4l-2-2.2l-11.8-12.4l11-26L591.5,413.6z"/>
	<path id="Path_40-2_1_" class="st19" d="M506,258.6c0,0-68,32-70,31c-2-1-28-7-16-31c3.5-7,6.2-14.4,8-22c2-7.8,3-15.9,3-24
		c0,0,42-19,45,3c0.6,5.6,2.7,10.9,6,15.4c3.2,4.1,7.8,6.9,13,7.6L506,258.6z"/>
	<path id="Path_41-2_1_" class="st19" d="M202.8,476.8l-3,30c0,0-10,22-25,19c-1.6-0.3-3.3-0.8-4.9-1.3
		c-16.5-5.2-29.9-17.4-36.7-33.3c-1.4-4.4-1.6-9-0.4-13.5c1-7,10-42,29-20c19,22,30,33,30,33L202.8,476.8z"/>
	<path id="Path_42-2_1_" class="st20" d="M366.9,360.8l-85,40l-12,14c-5.1,3.9-10.9,7-17,9c-8,2-24,15-24,15l-30,21l-14,9l14,11
		l43-10l52-11l27-13l77-67L366.9,360.8z"/>
	<path id="Path_43-2_1_" class="st18" d="M202.8,476.8l-3,30c0,0-10,22-25,19c-1.6-0.3-3.3-0.8-4.9-1.3
		c-16.5-5.2-29.9-17.4-36.7-33.3c-1.4-4.4-1.6-9-0.4-13.5c1-7,10-42,29-20c19,22,30,33,30,33L202.8,476.8z"/>
	<path id="Path_44-2_1_" class="st15" d="M366.9,360.8l-85,40l-12,14c-5.1,3.9-10.9,7-17,9c-8,2-24,15-24,15l-30,21l-14,9l14,11
		l43-10l52-11l27-13l77-67L366.9,360.8z"/>
	<path id="Path_45-2_1_" class="st19" d="M262.6,489.1l-13.9,5.6l-12.8,5.1c-7.5,3-15.4,4.5-23.5,4.3h-4.6
		c-11.6,0.6-23-3.3-31.8-10.8c-1.7-1.4-3.4-2.8-5.2-4c-15.5-11-20.4-31.7-11.5-48.5l0.4-0.7c12-22,23-2,23-2s11,24,19,30
		c5.5,4.1,23.4,0.3,34.3-2.5c5.1-1.3,8.7-2.4,8.7-2.4L262.6,489.1z"/>
	<path id="Path_46-2_1_" class="st9" d="M249,494.6c3.3-21.4-5-27.7-12.7-29.1c5.1-1.3,8.7-2.4,8.7-2.4l18,26L249,494.6z"/>
	<path id="Path_47-2_1_" class="st20" d="M414.2,371.6l-104,73c0,0-27,16-37,12c-10-4-46,10-46,10s30-9,24,29l48-16c0,0,72-9,82-14
		s52-91,52-91L414.2,371.6z"/>
	<path id="Path_48-2_1_" class="st19" d="M557.7,288c0,0,1,26,7,39c3.6,7.8,6.6,15.8,9,24l25,30l10,9c0,0,38,0,42,16c4,16-58,5-58,5
		l-9-9l-42-26l-24-73L557.7,288z"/>
	<path id="Path_49-2_1_" class="st19" d="M365.3,285.1c0,0-19,49-35,64c-16,15-24,11-24,11s-42,33-17,41s38-27,38-27l36-18
		c0,0,33-29,31-50C392.3,285.1,365.3,285.1,365.3,285.1z"/>
	<path id="Path_50-2_1_" class="st18" d="M365.3,285.1c0,0-19,49-35,64c-16,15-24,11-24,11s-42,33-17,41s38-27,38-27l36-18
		c0,0,33-29,31-50C392.3,285.1,365.3,285.1,365.3,285.1z"/>
	<path id="Path_51-2_1_" class="st9" d="M446.5,260.4c-7.4,0.4-19.3,3.7-19.6-19.9c0,0-18.9,4.4-33.8,7.7
		c-8.6,1.9-16.1,7.4-20.3,15.2l-13.8,25.2c4.2,10.5,13.8,17.7,25,19c1.3,25.7-10.8,50.3-32,65c-36,25,93,60,93,60l64-21
		c0,0-7-72,14-91c0,0,30-2,41-30c0,0-20-26-20-36c0-10-56-18-56-18s-6.8,27.4-30.4,24.3C453.8,260.2,450.2,260.1,446.5,260.4z"/>
	<path id="Path_52-2_1_" class="st21" d="M446.5,258.4c-7.4,0.4-19.3,3.7-19.6-19.9c0,0-18.9,4.4-33.8,7.7
		c-8.6,1.9-16.1,7.4-20.3,15.2l-13.8,25.2c4.2,10.5,13.8,17.7,25,19c1.3,25.7-10.8,50.3-32,65c-36,25,93,60,93,60l64-21
		c0,0-7-72,14-91c0,0,30-2,41-30c0,0-20-26-20-36c0-10-56-18-56-18s-6.8,27.4-30.4,24.3C453.8,258.3,450.2,258.2,446.5,258.4z"/>
	<path id="Path_53-2_1_" class="st18" d="M864.6,478.5c0,0,3,37,10,52c3.9,7.9,6.6,16.3,8,25c0,0,24.9,52.5,52.5,59.4
		c3.2,0.7,5.8,3.2,6.6,6.5c1.1,5.1-2.6,10.8-30.1,5.1c0,0-27.1-10.6-41.1-21c-6.7-5-14.3-8.6-22.4-10.6c-9.6-2.3-19.9-7.9-16.5-21.4
		l11-16c0,0-9-19-14-67C823.6,442.5,864.6,478.5,864.6,478.5z"/>
	<path id="Path_54-2_1_" class="st9" d="M853.9,367.7c0,0.2-0.1,0.4-0.2,0.5l-3.1,13.4l-12,7l-20-2l-13-26c1.7-3.6,4.7-6.4,8.4-7.8
		c-1.6,6.8-4.6,27,14.6,27.8c23,1,25-15,25-15L853.9,367.7z"/>
	<path id="Path_55-2_1_" class="st22" d="M709.6,363.7c0,0,81-3,105-12c0,0-9,29,14,30s25-15,25-15l7,58c0,0,8,37,7,48l4,22
		c0,0-54,18-60,6c0,0,4-56-12-68l-48,25c0,0-46,17-62,5C673.6,450.7,709.6,363.7,709.6,363.7z"/>
	<path id="Path_55-2_2_" class="st23" d="M709.6,363.7c0,0,81-3,105-12c0,0-9,29,14,30s25-15,25-15l7,58c0,0,8,37,7,48l4,22
		c0,0-54,18-60,6c0,0,4-56-12-68l-48,25c0,0-46,17-62,5C673.6,450.7,709.6,363.7,709.6,363.7z"/>
	<path id="Path_57-2_1_" class="st9" d="M482,231.3c-13.8,15.7-37.3,18.1-54,5.6c2-7.8,3-15.9,3-24c0,0,42-19,45,3
		C476.5,221.5,478.6,226.8,482,231.3z"/>
	<circle id="Ellipse_1-2_1_" class="st19" cx="451.9" cy="203.3" r="40"/>
	<path id="Path_58-2_1_" class="st9" d="M435.8,133.2c-1.3,0.2-2.5,0.7-3.4,1.5c-1,1.5-1.6,3.3-1.8,5.2c-1.2,3.4-3.7,6.2-6.9,7.9
		c-3.2,1.6-6.2,3.4-9.2,5.4c-5.2,3.9-8.1,10-11.6,15.6c-4.6,7.4-10.5,13.9-17.2,19.4c1,2.3,4.5,1.6,6.5,3.1c2.4,1.8,1.4,5.6,0,8.2
		s-2.7,6.2-0.6,8.3c0.6,0.5,1.2,1.1,1.8,1.7c1.6,2.3-1.4,5.1-1.6,7.8c-0.2,2.8,2.2,4.8,4.6,6c2.6,0.8,4.9,2.1,7,3.8
		c-1.8,2.5-3.7,5.7-2.3,8.4c1.6,3.1,6,3.1,9.4,2.3c0.9-0.3,1.8-0.4,2.7-0.2c0.8,0.4,1.5,1,2,1.7c3.6,3.1,9,2.6,12.1-1
		c0.5-0.6,0.9-1.2,1.2-1.9c0.7-2.8,1-5.7,0.8-8.6c0.2-4.6,1.8-9,2.4-13.6c1-7.7-1-15.5-1.1-23.3c-0.1-0.5,0-1,0.3-1.5
		c0.5-0.5,1.1-0.8,1.8-0.8c4.4-0.6,8.7-1.4,13-2.5c3.3-0.9,7-2.3,8.1-5.5c-0.5,2.5,0.4,5,2.4,6.6c1.9,1.5,4.2,2.6,6.6,3.2
		c5.7,1.7,12.4,2.8,17.4-0.6c-0.7,6.1-0.1,12.4,1.7,18.3c1.9,6,7.3,10.3,13.6,10.8c2.5,0,5.5-1.7,5-4.2c-0.3-1.4-1.6-2.3-2.6-3.3
		c-2.3-1.9-2.7-5.2-1-7.7c0.9-0.7,1.8-1.3,2.8-1.9c2.2-2.4,3.1-5.7,2.6-8.8c-0.3-6.6-1-13.1-2.2-19.6c-0.3-1.7-0.7-3.3-1.2-4.9
		c-0.9-2.2-2-4.4-3.3-6.4l-9.7-16.2c-1.1-2.2-2.6-4.1-4.5-5.7c-6.8-5.2-14.7,1.1-21.2-2.5c-3-2.2-6.3-4-9.8-5.2
		C445.2,131.8,440.4,132,435.8,133.2z"/>
	<path id="Path_59-2_1_" class="st24" d="M435.8,132.3c-1.3,0.2-2.5,0.7-3.4,1.5c-1,1.5-1.6,3.3-1.8,5.2c-1.2,3.4-3.7,6.2-6.9,7.9
		c-3.2,1.6-6.2,3.4-9.2,5.4c-5.2,3.9-8.1,10-11.6,15.6c-4.6,7.4-10.5,13.9-17.2,19.4c1,2.3,4.5,1.6,6.5,3.1c2.4,1.8,1.4,5.6,0,8.2
		s-2.7,6.2-0.6,8.3c0.6,0.5,1.2,1.1,1.8,1.7c1.6,2.3-1.4,5.1-1.6,7.8c-0.2,2.8,2.2,4.8,4.6,6c2.6,0.8,4.9,2.1,7,3.8
		c-1.8,2.5-3.7,5.7-2.3,8.4c1.6,3.1,6,3.1,9.4,2.3c0.9-0.3,1.8-0.4,2.7-0.2c0.8,0.4,1.5,1,2,1.7c3.6,3.1,9,2.6,12.1-1
		c0.5-0.6,0.9-1.2,1.2-1.9c0.7-2.8,1-5.7,0.8-8.6c0.2-4.6,1.8-9,2.4-13.6c1-7.7-1-15.5-1.1-23.3c-0.1-0.5,0-1,0.3-1.5
		c0.5-0.5,1.1-0.8,1.8-0.8c4.4-0.6,8.7-1.4,13-2.5c3.3-0.9,7-2.3,8.1-5.5c-0.5,2.5,0.4,5,2.4,6.6c1.9,1.5,4.2,2.6,6.6,3.2
		c5.7,1.7,12.4,2.8,17.4-0.6c-0.7,6.1-0.1,12.4,1.7,18.3c1.9,6,7.3,10.3,13.6,10.8c2.5,0,5.5-1.7,5-4.2c-0.3-1.4-1.6-2.3-2.6-3.3
		c-2.3-1.9-2.7-5.2-1-7.7c0.9-0.7,1.8-1.3,2.8-1.9c2.2-2.4,3.1-5.7,2.6-8.8c-0.3-6.6-1-13.1-2.2-19.6c-0.3-1.7-0.7-3.3-1.2-4.9
		c-0.9-2.2-2-4.4-3.3-6.4l-9.7-16.2c-1.1-2.2-2.6-4.1-4.5-5.7c-6.8-5.2-14.7,1.1-21.2-2.5c-3-2.2-6.3-4-9.8-5.2
		C445.2,130.8,440.4,131,435.8,132.3z"/>
	<path id="Path_60-2_1_" class="st17" d="M416.6,442.9l-15,10c-5.4-10.1-11.8-19.7-19.3-28.4c-7.8-9.4-17.2-17.4-27.7-23.6
		c-29-16,28-25,28-25c4.1,6,8.8,11.7,14,16.8c10.1,10,24.4,20,39,16.2C462.6,401.9,416.6,442.9,416.6,442.9z"/>
	<rect id="Rectangle_9_1_" x="444.1" y="386.2" class="st25" width="62" height="21"/>
	<path id="Path_61-2_1_" class="st17" d="M464,344.8c0,0-9-20-14-26c-5-6-6-27-6-27s-6-37,12-45s13,46,13,46l-1,8c0,0,27,25,26,44
		C493.1,363.8,464,344.8,464,344.8z"/>
	<path id="Path_62-2_1_" class="st18" d="M464,344.8c0,0-9-20-14-26c-5-6-6-27-6-27s-6-37,12-45s13,46,13,46l-1,8c0,0,27,25,26,44
		C493.1,363.8,464,344.8,464,344.8z"/>
	<path id="Path_63-2_1_" class="st9" d="M400,396.6c0,0,9-4,11-10c2-6,27-3,27-3l30-6c0,0,8-12,0-18s-8-19-8-19s27.8,0,34.3-7.1
		c0.3-0.3,0.5-0.6,0.7-0.9c5-8,26,66,26,66l-50-10l-38,22C433,410.6,411,414.6,400,396.6z"/>
	<path id="Path_64-2_1_" class="st26" d="M400,395.6c0,0,9-4,11-10c2-6,27-3,27-3l30-6c0,0,8-12,0-18c-8-6-8-19-8-19
		s27.8,0,34.3-7.1c0.3-0.3,0.5-0.6,0.7-0.9c5-8,26,66,26,66l-50-10l-38,22C433,409.6,411,413.6,400,395.6z"/>
	<path id="Path_65-2_1_" class="st18" d="M400,395.6c0,0,9-4,11-10c2-6,27-3,27-3l30-6c0,0,8-12,0-18c-8-6-8-19-8-19
		s27.8,0,34.3-7.1c0.3-0.3,0.5-0.6,0.7-0.9c5-8,26,66,26,66l-50-10l-38,22C433,409.6,411,413.6,400,395.6z"/>
	<path id="Path_66-2_1_" class="st9" d="M557.3,452.1l-11.8-12.4l11-26h9C565.5,413.7,571.3,440.7,557.3,452.1z"/>
	<path id="Path_67-2_1_" class="st25" d="M533.4,408.7l20-2c0,0,9,7,11,7c0,0,6,28-9,39c-15,11-34-10-34-10l-17-20L533.4,408.7z"/>
	<path id="Path_68-2_1_" class="st17" d="M841.6,512.3c-19.1-1.4-38-5.5-56-12c-31-11-26-37-26-37l-18.1-44.5l-3.9-9.5l39-24
		c0,0,1.4,6.1,3.2,14.7c2.8,13.1,6.5,31.8,7.7,43.3c2,19,25,28,25,28l41,17c0,0,15-4,25,3C888.6,498.3,841.6,512.3,841.6,512.3z"/>
	<path id="Path_69-2_1_" class="st9" d="M581.7,413.6h9.8l-16,35l-11,11l-5.2-5.4L581.7,413.6z"/>
	<path id="Path_70-2_1_" class="st9" d="M755.4,297.8c0,14-50-13-50-13c0.3-1,0.8-2,1.3-2.9c36.7,17.9,46.1,10.7,48.2,7.8
		C755.3,292.4,755.4,295.1,755.4,297.8z"/>
	<path id="Path_71-2_1_" class="st9" d="M681.1,312.3l15-11l-30,58l-2.8-12.2l1.6-3c20.2-14,17.1-27,15.7-30.7L681.1,312.3z"/>
	<path id="Path_72-2_1_" class="st9" d="M778.7,400.9c-12.5,3.1-30.5,13.9-38.4,18.8l-3.9-9.5l39-24
		C775.5,386.1,776.9,392.3,778.7,400.9z"/>
	<path id="Path_73-2_1_" class="st22" d="M588.3,407.5l-33,60l24,15c0,0,26.6,10.2,50.7,5.6c7.9-1.5,15.9-2.5,24-3.1
		c5.1-0.3,11-1,17.1-2c18.4-3.1,33.3-16.7,38-34.8c6.1-23.5,14.7-59.5,12.5-71.3c-0.1-0.5-0.2-1-0.4-1.5l10,30l5,15c0,0,36-24,50-22
		c0,0-17-47-19-67c-2.1-14.8-6.1-29.2-12-43c0,0-5,15-51-8l-23,31c0,0,9,16-17,33l-29,67L588.3,407.5z"/>
	<path id="Path_74-2_1_" class="st9" d="M396.5,394.2c0,11.8-5.2,23-14.3,30.6c-7.8-9.4-17.2-17.4-27.7-23.6c-29-16,28-25,28-25
		c4.1,6,8.8,11.7,14,16.8C396.5,393.4,396.5,393.8,396.5,394.2z"/>
	<circle id="Ellipse_2-2_1_" class="st17" cx="354.4" cy="394.3" r="40"/>
	<path id="Path_75-2_1_" class="st9" d="M592.1,484.5c0,0-11,3-49-6s-63-3-73,0c-10,3-45-2-65-7c-20-5-22-35-22-35c7,1,38-28,38-28
		c18-16,51-16,51-16l12.8,2.3l54.2,9.7l6.2,9.4L592.1,484.5z"/>
	<path id="Path_76-2_1_" class="st26" d="M591.1,485.5c0,0-11,3-49-6c-38-9-63-3-73,0c-10,3-45-2-65-7c-20-5-22-35-22-35
		c7,1,38-28,38-28c18-16,51-16,51-16l12.8,2.3l54.2,9.7l6.2,9.4L591.1,485.5z"/>
	<path id="Path_77-2_1_" class="st9" d="M544.3,415l-79.2,56.6c-22.7,7.7-36.3,3.4-44.3-4.5c-11.7-11.9-11.6-31.1,0.3-42.8
		c2.6-2.5,5.6-4.6,8.9-6.1c8.3-3.6,17.1-5.9,26.1-6.6l27.8-15.7l54.2,9.7L544.3,415z"/>
	<path id="Path_78-2_1_" class="st9" d="M570.1,414c2.1,1.5,4.9,1.5,6.9,0"/>
	<path id="Path_79-2_1_" class="st27" d="M457,218.7c0,0-3-0.1-3.1,2.4c1,5.2,2.2,10.3,3.8,15.4c1,3.5,2,7,2.8,9.8l1.7,5.8l0.8,1.7
		l4.7,10.1l4.4,9.5l2.8,3.6l14.5-10l7.2-18.3l-3.3-1.4l-0.6-0.2l-6.4-5l-18-14l-8.1-6.3l-1-0.7L457,218.7z"/>
	<path id="Path_80-2_1_" class="st28" d="M479.4,282.7c0,0,15.9-10.6,18.7-20c1.4-3.9,2.3-7.9,2.6-11.9c0,0,0.6-3.7-6.7-3.5
		c0,0-1.2,13.6-10.1,20.8l-8.9,7.2L479.4,282.7z"/>
	
		<ellipse id="Ellipse_3-2_1_" transform="matrix(0.1104 -0.9939 0.9939 0.1104 167.3514 709.3267)" class="st29" cx="479.9" cy="261.2" rx="5.9" ry="5"/>
	
		<ellipse id="Ellipse_4-2_1_" transform="matrix(0.1104 -0.9939 0.9939 0.1104 181.2557 689.0172)" class="st29" cx="475.5" cy="243.3" rx="5.9" ry="5"/>
	<path id="Path_81-2_1_" class="st29" d="M486.4,241.7c-1.7,1-2.8,2.8-3,4.8c-0.8,2.7,0.8,5.5,3.5,6.2c2.7,0.8,5.5-0.8,6.2-3.5
		c0.1-0.5,0.2-1.1,0.2-1.6v-0.7l-0.6-0.2L486.4,241.7z"/>
	<path id="Path_82-2_1_" class="st29" d="M466.5,252.2c-1.3-0.1-2.6,0.3-3.5,1.2l4.7,10.1c1.8-1,3-2.8,3.1-4.9
		C471.4,255.6,469.4,252.8,466.5,252.2z"/>
	<path id="Path_83-2_1_" class="st29" d="M461.9,234.5c-1.7-0.1-3.3,0.6-4.3,1.9c1,3.5,2,7,2.8,9.8h0.2c3.3-0.2,5.8-3,5.6-6.3
		C466.1,237.4,464.4,235.2,461.9,234.5L461.9,234.5z"/>
	<path id="Path_84-2_1_" class="st29" d="M460.1,221.7c-0.2,0.6-0.4,1.2-0.5,1.9c-0.6,3,1.4,5.8,4.3,6.4c1.7,0.1,3.3-0.6,4.3-2
		L460.1,221.7z"/>
	<path id="Path_85-2_1_" class="st30" d="M475,267.1l-1.9-0.2c0.5-1.4,0.7-2.9,0.6-4.4c0-0.1,0-0.2-0.1-0.3
		c-0.5-1.8,1.9,0.2,1.9,0.2S475.8,266.3,475,267.1z"/>
	<path id="Path_86-2_1_" class="st30" d="M481.6,254.4l-1.9-0.2c0.5-1.4,0.7-2.9,0.6-4.4c0-0.1,0-0.2-0.1-0.3
		c-0.5-1.8,1.9,0.2,1.9,0.2S482.3,253.6,481.6,254.4z"/>
	<path id="Path_87-2_1_" class="st30" d="M475.3,251.5l-1.9-0.2c0.5-1.4,0.7-2.9,0.6-4.4c0-0.1,0-0.2-0.1-0.3
		c-0.5-1.8,1.9,0.2,1.9,0.2S476.1,250.7,475.3,251.5z"/>
	<path id="Path_88-2_1_" class="st30" d="M466.6,243l-1.9-0.2c0.5-1.4,0.7-2.9,0.6-4.4c0-0.1,0-0.2-0.1-0.3
		c-0.5-1.8,1.9,0.2,1.9,0.2S467.3,242.2,466.6,243z"/>
	<path id="Path_89-2_1_" class="st30" d="M459.6,227.9l-1.9-0.2c0.5-1.4,0.7-2.9,0.6-4.4c0-0.1,0-0.2-0.1-0.3
		c-0.5-1.8,1.9,0.2,1.9,0.2S460.5,227.1,459.6,227.9z"/>
	<path id="Path_90-2_1_" class="st30" d="M471.2,237.5l-1.9-0.2c0.5-1.4,0.7-2.9,0.6-4.4c0-0.1,0-0.2-0.1-0.3
		c-0.5-1.8,1.9,0.2,1.9,0.2S471.9,236.6,471.2,237.5z"/>
	<path id="Path_91-2_1_" class="st28" d="M473.5,282.3c0,0,3.5,5.5,5.8,0.6c-0.8-3.5-2.4-6.7-4.8-9.4c0,0-13.2-24-13-28.1
		c0,0-7.4-24-6.7-25.5c0,0-1.3-1.6-1,5c0.3,6.6,6.3,25.3,6.3,25.3l7.6,19.2l4.1,6.2L473.5,282.3z"/>
	<path id="Path_92-2_1_" class="st31" d="M473.5,282.3c0,0,3.5,5.5,5.8,0.6c-0.8-3.5-2.4-6.7-4.8-9.4c0,0-13.2-24-13-28.1
		c0,0-7.4-24-6.7-25.5c0,0-1.3-1.6-1,5c0.3,6.6,6.3,25.3,6.3,25.3l7.6,19.2l4.1,6.2L473.5,282.3z"/>
	<path id="Path_93-2_1_" class="st17" d="M536.2,337.8c0,7-24,11-24,11l-3.4-6l-25.6-45c0,0-16-40,0-46s18,40,18,40
		s23,25.6,31.7,39.1C534.5,332.9,535.7,335.3,536.2,337.8z"/>
	<path id="Path_94-2_1_" class="st9" d="M536.3,337.1c0,7-24,11-24,11l-3.4-6c8.9-0.3,20.3-8.9,24.1-12
		C534.6,332.1,535.7,334.5,536.3,337.1z"/>
	<path id="Path_95-2_1_" class="st26" d="M419.8,464.7c8,7.9,21.5,12.2,44.3,4.5l91-65c0,0,13-7,0-38c-13-31-21-36-21-36
		s-16,14-27,13l10,31l-62,35c-9,0.8-17.8,3-26.1,6.6c-15.3,6.8-22.1,24.7-15.3,40C415.2,459,417.3,462.1,419.8,464.7z"/>
	<path id="Path_96-2_1_" class="st9" d="M319.6,354.1c-6.6,2.9-9.4,10.7-14.7,15.6c-5.3,4.9-13.1,6.6-19.9,9.5
		c-6.8,2.9-13.7,8.4-13.6,15.8c0.1,7.4,7.3,13.9,6.1,21.2c-0.6,3.8-3.5,6.9-4.1,10.7c-0.4,4.2,1,8.3,3.9,11.4
		c7.3,8.6,19.1,11.6,29.9,14.8c10.8,3.2,22.5,8,27.4,18.2c1.3,2.7,2,5.7,3.2,8.4c4.8,9.7,13.5,16.9,23.9,19.7
		c10.3,2.7,20.9,4,31.6,3.7c3.9,0.4,7.8-0.1,11.5-1.4c3.7-1.5,6.1-5.2,5.8-9.2c-0.9-2.9-2.7-5.5-5.2-7.3c-4.6-3.8-8.2-8.6-10.6-14
		c-2.4-5.5-1.8-11.9,1.6-16.8c4.4-5.5,12.2-6.6,17.9-10.6c9-7.3,10.3-20.5,3-29.4c-0.8-1-1.8-2-2.8-2.8c-3.8-2.3-7.8-4.4-11.9-6.1
		c-11.7-6.5-18.4-19.4-29.1-27.4c-8.5-6.4-18.9-9.2-28-14.6C337,358.4,330.9,349.2,319.6,354.1z"/>
	<path id="Path_97-2_1_" class="st32" d="M317.6,354.1c-6.6,2.9-9.4,10.7-14.7,15.6c-5.3,4.9-13.1,6.6-19.9,9.5
		c-6.8,2.9-13.7,8.4-13.6,15.8c0.1,7.4,7.3,13.9,6.1,21.2c-0.6,3.8-3.5,6.9-4.1,10.7c-0.4,4.2,1,8.3,3.9,11.4
		c7.3,8.6,19.1,11.6,29.9,14.8c10.8,3.2,22.5,8,27.4,18.2c1.3,2.7,2,5.7,3.2,8.4c4.8,9.7,13.5,16.9,23.9,19.7
		c10.3,2.7,20.9,4,31.6,3.7c3.9,0.4,7.8-0.1,11.5-1.4c3.7-1.5,6.1-5.2,5.8-9.2c-0.9-2.9-2.7-5.5-5.2-7.3c-4.6-3.8-8.2-8.6-10.6-14
		c-2.4-5.5-1.8-11.9,1.6-16.8c4.4-5.5,12.2-6.6,17.9-10.6c9-7.3,10.3-20.5,3-29.4c-0.8-1-1.8-2-2.8-2.8c-3.8-2.3-7.8-4.4-11.9-6.1
		c-11.7-6.5-18.4-19.4-29.1-27.4c-8.5-6.4-18.9-9.2-28-14.6C335,358.4,328.9,349.2,317.6,354.1z"/>
	<path id="Path_98-2_1_" class="st33" d="M264,702.3L192.2,762l-84.5-57.1l83-44.4l70,33.1L264,702.3z"/>
	<path id="Path_99-2_1_" class="st0" d="M155.4,577.3l36,70.7l-83.6,42.2l-53.5-99.3L155.4,577.3z"/>
	<path id="Path_100-2_1_" class="st1" d="M149.7,584.4l36.1,69.4l-78,36.3l-50.4-93.6L149.7,584.4z"/>
	<path id="Path_101-2_1_" class="st18" d="M155.4,580.9l-5.7,7.2l-92.3,12.1l-3.1-5.7L155.4,580.9z"/>
	<path id="Path_102-2_1_" class="st18" d="M191.4,651l-36-70.7l-5.7,7.2l35.2,67.7L191.4,651z"/>
	<path id="Path_103-2_1_" class="st34" d="M155.4,580.2l-5.7,7.2l-92.3,12.1l-3.1-5.7L155.4,580.2z"/>
	<path id="Path_104-2_1_" class="st34" d="M191.4,650.3l-36-70.7l-5.7,7.2l35.2,67.7L191.4,650.3z"/>
	<path id="Path_105-2_1_" class="st35" d="M155.4,580.2l-8.7,11.2l-92.3,12.1l-0.1-9.7L155.4,580.2z"/>
	<path id="Path_106-2_1_" class="st35" d="M191.4,650.2l-36-70.7l-8.7,11.2l35.2,67.7L191.4,650.2z"/>
	<path id="Path_107-2_1_" class="st18" d="M191.4,649v14.5l-83.6,44.6v-16.9L191.4,649z"/>
	<path id="Path_108-2_1_" class="st18" d="M265,685.3L192.4,649l-0.6,14.6l71.7,37.7L265,685.3z"/>
	<path id="Path_109-2_1_" class="st34" d="M191.4,647.9v12.5L107.8,705v-14.9L191.4,647.9z"/>
	<path id="Path_110-2_1_" class="st34" d="M265,684.3l-72.7-36.3l-0.6,12.6l71.7,37.6L265,684.3z"/>
	<path id="Path_111-2_1_" class="st35" d="M191.4,647.9v12.5L107.8,705v-14.9L191.4,647.9z"/>
	<path id="Path_112-2_1_" class="st35" d="M265,684.3l-72.7-36.3l-0.6,12.6l71.7,37.6L265,684.3z"/>
	<path id="Path_113-2_1_" class="st36" d="M265,684.3l-0.2,18.1l-71.6,59.6l-0.9-18.4L265,684.3z"/>
	<path id="Path_114-2_1_" class="st27" d="M228.5,687.1c0,0,1.8,2.4-0.1,3.9c-4.8,2.2-9.7,4.1-14.8,5.7c-3.4,1.2-6.8,2.4-9.6,3.3
		l-5.7,1.9l-1.8,0.3l-11,1.9l-10.3,1.8l-4.5-0.2l-0.2-17.6l10.8-16.4l3.1,1.9l0.5,0.3l7.7,2.4l21.8,6.7l9.8,3l1.2,0.3L228.5,687.1z"
		/>
	<path id="Path_115-2_1_" class="st28" d="M162.2,705.9c0,0-0.5-19.2,5.6-26.8c2.4-3.3,5.1-6.4,8.2-9c0,0,2.7-2.6,6.7,3.4
		c0,0-10.4,8.9-11.2,20.2l-0.8,11.4L162.2,705.9z"/>
	
		<ellipse id="Ellipse_5-2_1_" transform="matrix(0.7491 -0.6625 0.6625 0.7491 -414.0768 292.8284)" class="st29" cx="179.5" cy="693" rx="5.9" ry="5"/>
	
		<ellipse id="Ellipse_6-2_1_" transform="matrix(0.7491 -0.6625 0.6625 0.7491 -404.9092 303.2303)" class="st29" cx="197.8" cy="686.1" rx="5.9" ry="5"/>
	<path id="Path_116-2_1_" class="st29" d="M191.9,676.4c0.2,2-0.7,3.9-2.2,5.2c-1.8,2.2-5,2.5-7.1,0.7c-2.2-1.8-2.5-5-0.7-7.1
		c0.4-0.4,0.8-0.8,1.2-1.1c0.2-0.1,0.3-0.3,0.5-0.4l0.5,0.3L191.9,676.4z"/>
	<path id="Path_117-2_1_" class="st29" d="M194.6,698.8c0.9,1,1.2,2.3,1.1,3.6l-11,1.9c-0.2-2,0.6-4,2.2-5.4
		C188.9,696.8,192.4,696.7,194.6,698.8z"/>
	<path id="Path_118-2_1_" class="st29" d="M212.8,692.2c1.1,1.3,1.4,3,0.9,4.6c-3.4,1.2-6.8,2.4-9.6,3.3L204,700
		c-1.8-2.8-0.9-6.5,1.9-8.2C208.1,690.4,210.9,690.6,212.8,692.2L212.8,692.2z"/>
	<path id="Path_119-2_1_" class="st29" d="M224.6,686.2c-0.3,0.5-0.8,1-1.2,1.4c-2.1,2.2-5.5,2.2-7.7,0.2c-1.1-1.3-1.4-3-0.9-4.6
		L224.6,686.2z"/>
	<path id="Path_120-2_1_" class="st30" d="M177.4,700.5l1.3,1.4c0.9-1.2,2-2.2,3.3-3l0.3-0.1c1.8-0.6-1.3-1.4-1.3-1.4
		S177.6,699.4,177.4,700.5z"/>
	<path id="Path_121-2_1_" class="st30" d="M184.2,687.8l1.3,1.4c0.9-1.2,2-2.2,3.3-3l0.3-0.1c1.8-0.6-1.3-1.4-1.3-1.4
		S184.4,686.7,184.2,687.8z"/>
	<path id="Path_122-2_1_" class="st30" d="M190.2,691.1l1.3,1.4c0.9-1.2,2-2.2,3.3-3l0.3-0.1c1.8-0.6-1.3-1.4-1.3-1.4
		S190.4,690,190.2,691.1z"/>
	<path id="Path_123-2_1_" class="st30" d="M203.2,693.2l1.3,1.4c0.9-1.2,2-2.2,3.3-3l0.3-0.1c1.8-0.6-1.3-1.4-1.3-1.4
		S203.4,692.2,203.2,693.2z"/>
	<path id="Path_124-2_1_" class="st30" d="M219.8,690.1l1.3,1.4c0.9-1.2,2-2.2,3.3-3l0.3-0.1c1.8-0.6-1.3-1.4-1.3-1.4
		S220,689,219.8,690.1z"/>
	<path id="Path_125-2_1_" class="st30" d="M205.2,686.3l1.3,1.4c0.9-1.2,2-2.2,3.3-3l0.3-0.1c1.8-0.6-1.3-1.4-1.3-1.4
		S205.4,685.2,205.2,686.3z"/>
	<path id="Path_126_1_" class="st28" d="M167,710.2c0,0-6.5,0.3-3.9-4.4c3.3-1.4,6.9-1.9,10.5-1.5c0,0,27.2-3,30.4-5.5
		c0,0,23.9-7.8,24.7-9.2c0,0,2,0.1-3.5,3.7c-5.5,3.6-24.4,9.4-24.4,9.4l-20.1,4.8l-7.5,0.2L167,710.2z"/>
	<path id="Path_127_1_" class="st31" d="M167,710.2c0,0-6.5,0.3-3.9-4.4c3.3-1.4,6.9-1.9,10.5-1.5c0,0,27.2-3,30.4-5.5
		c0,0,23.9-7.8,24.7-9.2c0,0,2,0.1-3.5,3.7c-5.5,3.6-24.4,9.4-24.4,9.4l-20.1,4.8l-7.5,0.2L167,710.2z"/>
	<path id="Path_128_1_" class="st27" d="M222,694c0,0,2.5,1.6,1.4,3.7c-3.6,3.9-7.5,7.5-11.5,10.9c-2.7,2.4-5.5,4.8-7.6,6.7
		c-2.7,2.3-4.5,3.9-4.5,3.9l-1.6,1l-9.4,5.9l-8.9,5.6l-4.3,1.5l-6.8-16.2l3.9-19.3l3.6,0.6l0.6,0.1l8.1-0.7l22.7-2l10.2-0.9l1.2-0.1
		L222,694z"/>
	<path id="Path_129_1_" class="st28" d="M167.6,736c0,0-7.7-17.6-5-27c0.9-4,2.4-7.8,4.2-11.5c0,0,1.5-3.5,7.5,0.6
		c0,0-6.3,12.1-2.7,23l3.6,10.8L167.6,736z"/>
	
		<ellipse id="Ellipse_7-2_1_" transform="matrix(0.4448 -0.8956 0.8956 0.4448 -543.5267 558.5167)" class="st29" cx="178.7" cy="717.7" rx="5.9" ry="5"/>
	
		<ellipse id="Ellipse_8-2_1_" transform="matrix(0.4448 -0.8956 0.8956 0.4448 -524.4355 563.4252)" class="st29" cx="192.2" cy="704.7" rx="5.9" ry="5"/>
	<path id="Path_130_1_" class="st29" d="M183.9,697.6c0.9,1.8,0.9,3.9-0.1,5.6c-0.8,2.7-3.7,4.2-6.3,3.4c-2.7-0.8-4.2-3.7-3.4-6.3
		c0.2-0.5,0.4-1,0.7-1.5c0.1-0.2,0.2-0.4,0.3-0.6l0.6,0.1L183.9,697.6z"/>
	<path id="Path_131_1_" class="st29" d="M194.8,717.2c1.2,0.6,2,1.7,2.3,2.9l-9.4,5.9c-1-1.8-1-4,0-5.8
		C188.9,717.5,192,716.1,194.8,717.2z"/>
	<path id="Path_132_1_" class="st29" d="M209.4,704.6c1.5,0.8,2.4,2.3,2.5,3.9c-2.7,2.4-5.5,4.8-7.6,6.7l-0.1-0.1
		c-2.7-1.9-3.3-5.7-1.3-8.3C204.3,704.8,206.9,703.9,209.4,704.6L209.4,704.6z"/>
	<path id="Path_133_1_" class="st29" d="M217.9,694.6c-0.1,0.6-0.3,1.2-0.6,1.8c-1.1,2.8-4.3,4.2-7.1,3.1c-1.5-0.8-2.5-2.3-2.5-4
		L217.9,694.6z"/>
	<path id="Path_134_1_" class="st30" d="M179.5,725.2l1.7,0.8c0.3-1.5,1-2.8,1.9-4l0.2-0.2c1.4-1.3-1.7-0.8-1.7-0.8
		S179.4,724.2,179.5,725.2z"/>
	<path id="Path_135_1_" class="st30" d="M181.1,711l1.7,0.8c0.3-1.5,1-2.8,1.9-4l0.2-0.2c1.4-1.3-1.7-0.8-1.7-0.8
		S180.9,709.8,181.1,711z"/>
	<path id="Path_136_1_" class="st30" d="M187.9,711.8l1.7,0.8c0.3-1.5,1-2.8,1.9-4l0.2-0.2c1.4-1.3-1.7-0.8-1.7-0.8
		S187.7,710.7,187.9,711.8z"/>
	<path id="Path_137_1_" class="st30" d="M200.8,709.2l1.7,0.8c0.3-1.5,1-2.8,1.9-4l0.2-0.2c1.4-1.3-1.7-0.8-1.7-0.8
		S200.6,708.1,200.8,709.2z"/>
	<path id="Path_138_1_" class="st30" d="M215,700.1l1.7,0.8c0.3-1.5,1-2.8,1.9-4l0.2-0.2c1.4-1.3-1.7-0.8-1.7-0.8
		S214.8,699,215,700.1z"/>
	<path id="Path_139_1_" class="st30" d="M200,702.1l1.7,0.8c0.3-1.5,1-2.8,1.9-4l0.2-0.2c1.4-1.3-1.7-0.8-1.7-0.8
		S199.8,700.9,200,702.1z"/>
	<path id="Path_140_1_" class="st28" d="M173.7,738.6c0,0-5.9,2.7-5.2-2.6c2.5-2.5,5.7-4.3,9.2-5.3c0,0,24.1-13.1,26.1-16.6
		c0,0,19.2-16.2,19.4-17.8c0,0,1.9-0.6-1.9,4.8s-19,17.9-19,17.9l-16.8,12l-6.8,3L173.7,738.6z"/>
	<path id="Path_141_1_" class="st31" d="M173.7,738.6c0,0-5.9,2.7-5.2-2.6c2.5-2.5,5.7-4.3,9.2-5.3c0,0,24.1-13.1,26.1-16.6
		c0,0,19.2-16.2,19.4-17.8c0,0,1.9-0.6-1.9,4.8s-19,17.9-19,17.9l-16.8,12l-6.8,3L173.7,738.6z"/>
	<path id="Path_142_1_" class="st36" d="M191.4,743.5l-83.6-53.3v14.7l84.5,57.1L191.4,743.5z"/>
	<path id="Path_143_1_" class="st36" d="M98.9,695.4l8.9-5.2l-53.5-99.3l-6.3,6.1L98.9,695.4z"/>
</g>
</svg>
