<?xml version="1.0" encoding="utf-8"?>
<!-- Generator: Adobe Illustrator 23.0.0, SVG Export Plug-In . SVG Version: 6.00 Build 0)  -->
<svg version="1.1" id="圖層_1" xmlns="http://www.w3.org/2000/svg" xmlns:xlink="http://www.w3.org/1999/xlink" x="0px" y="0px"
	 viewBox="0 0 1242 412" style="enable-background:new 0 0 1242 412;" xml:space="preserve">
<style type="text/css">
	.st0{opacity:0.1;fill:#6C63FF;enable-background:new    ;}
	.st1{clip-path:url(#SVGID_2_);}
	.st2{fill:#468C4B;}
	.st3{clip-path:url(#SVGID_4_);}
	.st4{fill:#3F3D56;}
	.st5{fill:#275934;}
	.st6{fill:#003B45;}
	.st7{fill:#6C63FF;}
	.st8{fill:#F2F2F2;}
	.st9{fill:#FFB8B8;}
	.st10{fill:#2F2E41;}
	.st11{opacity:0.1;enable-background:new    ;}
	.st12{fill:#F2DA63;}
	.st13{clip-path:url(#SVGID_6_);}
	.st14{fill:#B6C7B5;}
	.st15{clip-path:url(#SVGID_8_);}
	.st16{fill:url(#Path_416_2_);}
	.st17{fill:#FFFFFF;}
	.st18{fill:none;stroke:#6C63FF;stroke-width:1.952;stroke-miterlimit:10;}
	.st19{fill:url(#Path_417_2_);}
	.st20{fill:url(#Path_418_2_);}
	.st21{clip-path:url(#SVGID_10_);}
	.st22{fill:url(#Path_419_2_);}
	.st23{clip-path:url(#SVGID_12_);}
	.st24{fill:#5DAD58;}
	.st25{fill:#FF5252;}
	.st26{fill:#275934;stroke:#275934;stroke-width:1.952;stroke-miterlimit:10;}
</style>
<g id="分離模式">
	<circle class="st0" cx="328.9" cy="106.7" r="21.6"/>
	<circle class="st0" cx="771" cy="59.5" r="21.6"/>
	<circle class="st0" cx="1033.2" cy="108" r="21.6"/>
	<circle class="st0" cx="116.2" cy="159" r="36.3"/>
	<circle class="st0" cx="150.9" cy="338" r="36.3"/>
	<circle class="st0" cx="1123.8" cy="272.1" r="36.2"/>
</g>
<g id="Group_36_1_" transform="translate(3357 -416.076)">
	<g id="Group_35_1_" transform="translate(-3356.76 3254.076)">
		<g>
			<g>
				<defs>
					<rect id="SVGID_1_" x="-0.2" y="-2838" width="1242" height="412"/>
				</defs>
				<clipPath id="SVGID_2_">
					<use xlink:href="#SVGID_1_"  style="overflow:visible;"/>
				</clipPath>
				<g id="Group_27_1_" transform="translate(0)" class="st1">
					<rect id="Rectangle_21_1_" x="-0.2" y="-2838" class="st2" width="1242" height="412"/>
				</g>
			</g>
		</g>
		<g>
			<g>
				<defs>
					<rect id="SVGID_3_" x="-0.2" y="-2838" width="1242" height="412"/>
				</defs>
				<clipPath id="SVGID_4_">
					<use xlink:href="#SVGID_3_"  style="overflow:visible;"/>
				</clipPath>
				<g id="Group_28_1_" transform="translate(0)" class="st3">
					<path id="Path_381-2_1_" class="st4" d="M986.5-2425.6c0,0,2.3-9.8,18.7-6.5s18.7,6.5,18.7,6.5H986.5z"/>
					<path id="Path_382-2_1_" class="st4" d="M905.9-2438.5c0,0,2.3-9.8,18.7-6.5s18.7,6.5,18.7,6.5H905.9z"/>
					<path id="Path_383-2_1_" class="st4" d="M1042.6-2425.6c0,0-13.1-7.9-18.7,0H1042.6z"/>
					<path id="Path_384-2_1_" class="st4" d="M981.6-2448c0,0-13.1-7.9-18.7,0H981.6z"/>
					<path id="Path_385-2_1_" class="st5" d="M908.2-2455.3c3.9,7.2,12.2,10.3,12.2,10.3s2-8.6-1.9-15.8s-12.2-10.3-12.2-10.3
						S904.3-2462.5,908.2-2455.3z"/>
					<path id="Path_386-2_1_" class="st6" d="M908.2-2455.3c3.9,7.2,12.2,10.3,12.2,10.3s2-8.6-1.9-15.8s-12.2-10.3-12.2-10.3
						S904.3-2462.5,908.2-2455.3z"/>
					<path id="Path_387-2_1_" class="st5" d="M910.9-2457.7c7,4.2,9.7,12.6,9.7,12.6s-8.7,1.5-15.7-2.7s-9.7-12.6-9.7-12.6
						S903.9-2461.9,910.9-2457.7z"/>
					<path id="Path_388-2_1_" class="st4" d="M1296.9-2431.5c0,0,2.3-9.8,18.7-6.5c16.4,3.3,18.7,6.5,18.7,6.5H1296.9z"/>
					<path id="Path_389-2_1_" class="st4" d="M1259.5-2425.6c-11.4-1.8-22.3-3.3-32.8-4.5l4-8.1c-1.4-0.5-7.5,4.2-7.5,4.2l5.1-23.3
						c-7,0.9-10.3,24.7-10.3,24.7l-7.9-7.9l3.9,9c-27.6-3-55.3-4.4-83-4.2l3.5-6.9c-1.4-0.5-7.5,4.2-7.5,4.2l5.1-23.3
						c-7,0.9-10.3,24.7-10.3,24.7l-7.9-7.9l4.1,9.5c-15.9,0.5-31.8,1.7-47.7,3.8c3.4-10.7,15.5-21,15.5-21
						c-9.3,2.9-14.1,7.6-16.6,11.9c-0.5-22,2.9-44,10-64.8c0,0-18.7,42-15.9,70l0.4,5c-8.2,1.2-16.4,2.8-24.4,5.1L1259.5-2425.6
						L1259.5-2425.6z"/>
					<path id="Path_390-2_1_" class="st4" d="M1137.6-2404.4c0,0,86-12.6,139.2,0"/>
					<path id="Path_391-2_1_" class="st4" d="M1011-2387.1c0,0,86-12.6,139.2,0"/>
					<path id="Path_392_1_" class="st4" d="M1170.3-2382.5c0,0,50.9-12.9,82.4,0"/>
					<path id="Path_393_1_" class="st4" d="M1312.5-2434.3l-0.8-0.4c10.8-20.8,5-47.8-1.7-66.8c-4.6-12.8-10.4-25.1-17.4-36.7
						l0.8-0.5c7,11.7,12.9,24,17.5,36.9C1317.6-2482.7,1323.4-2455.4,1312.5-2434.3z"/>
					
						<rect id="Rectangle_23_1_" x="1301" y="-2522.5" transform="matrix(0.1801 -0.9836 0.9836 0.1801 3561.354 -771.5613)" class="st4" width="33.7" height="0.9"/>
					<polygon id="Rectangle_24_1_" class="st4" points="1279.5,-2509.7 1280.2,-2510.3 1311.5,-2476.7 1310.8,-2476.1 					"/>
					<polygon id="Rectangle_25_1_" class="st4" points="1320.5,-2451.5 1336.4,-2473.5 1337.1,-2472.9 1321.3,-2451 					"/>
					<ellipse id="Ellipse_68_1_" class="st7" cx="1323.3" cy="-2552" rx="4.7" ry="4.7"/>
					<ellipse id="Ellipse_69_1_" class="st4" cx="1272.4" cy="-2516.1" rx="4.7" ry="4.7"/>
					<ellipse id="Ellipse_70_1_" class="st4" cx="1292.9" cy="-2511.4" rx="4.7" ry="4.7"/>
					<ellipse id="Ellipse_71_1_" class="st7" cx="1283.6" cy="-2493.2" rx="4.7" ry="4.7"/>
					<ellipse id="Ellipse_72_1_" class="st4" cx="1342" cy="-2481.6" rx="4.7" ry="4.7"/>
					<ellipse id="Ellipse_73_1_" class="st4" cx="1326.6" cy="-2476.5" rx="4.7" ry="4.7"/>
					<ellipse id="Ellipse_74_1_" class="st4" cx="1337.3" cy="-2461.5" rx="4.7" ry="4.7"/>
					<ellipse id="Ellipse_75_1_" class="st4" cx="1288.3" cy="-2546.4" rx="4.7" ry="4.7"/>
					<path id="Path_394_1_" class="st8" d="M1014.9-2571.1c0,57.6-34.3,77.8-76.7,77.8s-76.7-20.1-76.7-77.8
						c0-57.6,76.7-131,76.7-131S1014.9-2628.8,1014.9-2571.1z"/>
					<path id="Path_395_1_" class="st4" d="M935.4-2502.2l0.8-48.3l32.7-59.7l-32.6,52.1l0.4-21.7l22.5-43.2l-22.4,37.4l0,0l0.6-39
						l24.1-34.4l-24,28.2l0.4-71.5l-2.5,94.7l0.2-3.9l-24.5-37.5l24.1,45l-2.3,43.6l-0.1-1.2l-28.3-39.4l28.2,43.5l-0.3,5.4
						l-0.1,0.1v0.4l-5.8,110.5h7.7l0.9-57.1l28.1-43.4L935.4-2502.2z"/>
					<path id="Path_396_1_" class="st8" d="M1267.8-2588.3c0,70.4-41.9,95-93.7,95c-51.7,0-93.7-24.6-93.7-95s93.7-160,93.7-160
						S1267.8-2658.7,1267.8-2588.3z"/>
					<path id="Path_397_1_" class="st4" d="M1170.7-2504.1l1-58.9l39.9-72.9l-39.8,63.7l0.4-26.5l27.5-52.8l-27.4,45.8l0,0l0.8-47.7
						l29.5-42l-29.3,34.5l0.5-87.4l-3.1,115.7l0.2-4.8l-30-45.8l29.5,54.9l-2.8,53.2l-0.1-1.4l-34.5-48.2l34.4,53.2l-0.4,6.6
						l-0.1,0.1v0.6l-7.1,135.1h9.5l1.1-69.8l34.3-53L1170.7-2504.1z"/>
					<path id="Path_398_1_" class="st9" d="M1098.5-2486.9l4.3,13.2c-2.4,8.5-3.1,17.4-2,26.2c1.8,13.8,0.8,14.2,0.8,14.2
						s-18.3-1.1-16.4,4.4s19.7,2.3,19.7,2.3s3.4-0.9,5.1-10.7c1.6-9.7,5.7-28.5,5.7-28.5l-3.8-17.7L1098.5-2486.9z"/>
					<path id="Path_399_1_" class="st5" d="M1099.9-2513.9c0,0-7.7,2.8-7.7,10.5s2.8,18.3,4.7,18.9s14,8.9,16.3,3
						C1115.3-2487.3,1099.9-2513.9,1099.9-2513.9z"/>
					<path id="Path_400_1_" class="st9" d="M1164.5-2422.6l16.3-0.6l12.4-1.8l-3.7,12.2l-30.1,0.8L1164.5-2422.6z"/>
					<path id="Path_401_1_" class="st10" d="M1187.9-2420.9c0,0-0.2-4.5-2-4.3s-0.6-1.6,1-2s6.3-2.4,6.3-2.4l18.5,1.2
						c0,0,12,10.5,7.1,16.2s-17.5,0.6-17.5,0.6l-13.6,0.2C1187.7-2411.4,1183.2-2418.7,1187.9-2420.9z"/>
					<path id="Path_402_1_" class="st9" d="M1195.2-2436.6l5.9,27.6l12.2-2.4l-6.9-34.5l-7.3-3.9L1195.2-2436.6z"/>
					<path id="Path_403_1_" class="st10" d="M1125.1-2440c0,0-34.1,15.4-19.7,31c0,0,0,7.3,15.2,5.9c15.2-1.4,44.7-4.1,46.1-3.2
						s5.9-16,2-16.8s-8.5-1.8-8.5-1.8s4.1-0.6,4.1-4.1c0,0,11.6-0.8,15-8.1c3.5-7.3,6.7-12.8,6.7-12.8l7.9,20.3
						c0,0,9.1-16.8,16.1-9.3c0,0-7.7-48.5-13.6-53s-10-5.9-15.4-1.8c-5.5,4.1-10.6,14.4-10.6,14.4L1125.1-2440z"/>
					<path id="Path_404_1_" class="st10" d="M1206.6-2417.3c-1.4,1.1-2.8,2.2-4.1,3.4c-1.6,1.6-3.9,0.8-4.1,0s-3.9,0.6-4.3,6.5
						s-2.8,11.2,3.7,13s6.3,7.1,6.3,7.1c5.1,2.5,11.1,2.8,16.5,1c9.1-3,5.9-6.3,5.9-6.3l-12.2-20.1
						C1214.3-2412.6,1211.1-2418.7,1206.6-2417.3z"/>
					<path id="Path_405_1_" class="st9" d="M1172.8-2517.9c0,0,19.5,6.7,21.5,8.1c2,1.4,11.2,8.1,6.7,11.6s-8.1,5.7-16.9,3
						s-18.5-10.8-18.5-10.8L1172.8-2517.9z"/>
					<path id="Path_406_1_" class="st5" d="M1153.3-2526.9c0,0,7.7-1.4,13.2,1.6s10.2,9.1,10.2,9.1s-5.1,10.8-8.7,12.4
						c-3.7,1.6-10.4-6.5-10.4-6.5L1153.3-2526.9z"/>
					<path id="Path_407_1_" class="st9" d="M1117.8-2532.7c0,0,0.2,7.9-0.6,8.7s9.8,24.8,21.3,14.2c11.6-10.5,2.6-14.8,2.6-14.8
						s-4.3-7.9-4.1-8.7s-18.9,0-18.9,0L1117.8-2532.7z"/>
					<path id="Path_408_1_" class="st11" d="M1117.8-2532.7c0,0,0.2,7.9-0.6,8.7s9.8,24.8,21.3,14.2c11.6-10.5,2.6-14.8,2.6-14.8
						s-4.3-7.9-4.1-8.7s-18.9,0-18.9,0L1117.8-2532.7z"/>
					<path id="Path_409_1_" class="st5" d="M1121-2517.5c0,0,7.7,5.3,11,4.1s7.3-6.5,7.7-6.9c0.4-0.4,21.1,41.2,21.1,41.2
						s-3,15.2-11.2,19.7s-8,8-9,11.1c-1,3-14.1-9.6-14.1-9.6l-8.3-35.3v-21.5L1121-2517.5z"/>
					<path id="Path_410_1_" class="st12" d="M1117.7-2527c-1.9-0.2-3.8,0.4-5.2,1.7c-2.6,2.2-15,10.5-14.4,11.4
						c0.6,0.8,6.1,12.4,7.3,17s3,5.3,3,5.3s4.3,3,3.7,5.3c-0.6,2.2-3.3,32.7,0.4,39.4s3,12.6,2,14.2c-1,1.6,9.8-4.7,9.8-4.7
						s16.1-13,17.3-16.8c0.8-2.7,1.3-5.4,1.6-8.1c0,0-10.4-41-13.6-43.2C1126.3-2507.8,1117.7-2527,1117.7-2527z"/>
					<path id="Path_411_1_" class="st12" d="M1140-2526.8c0,0,5-3.1,6-2.3s10.6,0.8,10.8,1.6s0.6,20.3,7.5,25.4
						c6.9,5.1,2.4,15.2,2.4,15.2l5.1,8.1c0,0-27.6,26.6-25.8,17.4c0.1-0.5,0-0.6,0-0.6s-10.8-46.1-9.4-48.5
						S1140.7-2523.9,1140-2526.8z"/>
					<path id="Path_412_1_" class="st9" d="M1182.6-2508.2l-27.6,9.5c0,0-27.4,6.5-23.2,14c4.3,7.5,22.4-5.3,22.4-5.3l36.8-4.1
						C1191-2494,1205.6-2506.4,1182.6-2508.2z"/>
					<ellipse id="Ellipse_76_1_" class="st9" cx="1128.7" cy="-2540.3" rx="15" ry="15"/>
					<path id="Path_413_1_" class="st10" d="M1116.8-2555.2l-2.8-1c0,0,5.8-5.8,13.9-5.3l-2.3-2.3c0,0,5.6-2,10.6,3.3
						c3,2.9,5.6,6.2,7.7,9.8h3l-1.2,2.5l4.4,2.5l-4.5-0.4c0.4,2.1,0.3,4.4-0.4,6.4l-1,2.8c0,0-4-8.1-4-9.1v2.5c0,0-2.8-2.3-2.8-3.8
						l-1.5,1.8l-0.8-2.8l-9.4,2.8l1.5-2.3l-5.8,0.8l2.3-2.8c0,0-6.6,3.3-6.8,6.1s-3.5,6.3-3.5,6.3l-1.5-2.5
						C1111.7-2540,1109.4-2551.4,1116.8-2555.2z"/>
				</g>
			</g>
		</g>
		<g>
			<g>
				<defs>
					<rect id="SVGID_5_" x="-0.2" y="-2838" width="1242" height="412"/>
				</defs>
				<clipPath id="SVGID_6_">
					<use xlink:href="#SVGID_5_"  style="overflow:visible;"/>
				</clipPath>
				<g id="Group_29_1_" transform="translate(0)" class="st13">
					<rect id="Rectangle_27_1_" x="447.2" y="-2497" class="st8" width="331.9" height="70.2"/>
					<path id="Path_414_1_" class="st5" d="M436.6-2489.3l36.1-75.5h288.6l27,75.5H436.6z"/>
					<rect id="Rectangle_28_1_" x="526.6" y="-2560" class="st8" width="133.9" height="44.3"/>
					<path id="Path_415_1_" class="st5" d="M535.3-2596.1l-21.2,44.3h159l-12.5-44.3H535.3z"/>
					<rect id="Rectangle_29_1_" x="538.5" y="-2483.1" class="st14" width="105.8" height="56.3"/>
					<rect id="Rectangle_30_1_" x="460.2" y="-2481.1" class="st14" width="56.4" height="54.3"/>
					<rect id="Rectangle_31_1_" x="662.5" y="-2477.8" class="st5" width="29.2" height="51"/>
					<rect id="Rectangle_32_1_" x="338.5" y="-2427" class="st4" width="547.8" height="1"/>
					<rect id="Rectangle_33_1_" x="723.2" y="-2474.9" class="st5" width="14.2" height="13.2"/>
					<rect id="Rectangle_34_1_" x="742.2" y="-2474.9" class="st5" width="14.2" height="13.2"/>
					<rect id="Rectangle_35_1_" x="723.2" y="-2456.9" class="st5" width="14.2" height="13.7"/>
					<rect id="Rectangle_36_1_" x="742.2" y="-2456.9" class="st5" width="14.2" height="13.7"/>
					<rect id="Rectangle_37_1_" x="538.9" y="-2547.9" class="st4" width="11.1" height="10.3"/>
					<rect id="Rectangle_38_1_" x="553.8" y="-2547.9" class="st4" width="11.1" height="10.3"/>
					<rect id="Rectangle_39_1_" x="538.9" y="-2533.8" class="st4" width="11.1" height="10.7"/>
					<rect id="Rectangle_40_1_" x="553.8" y="-2533.8" class="st4" width="11.1" height="10.7"/>
					<rect id="Rectangle_41_1_" x="622.3" y="-2547.9" class="st4" width="11.1" height="10.3"/>
					<rect id="Rectangle_42_1_" x="637.2" y="-2547.9" class="st4" width="11.1" height="10.3"/>
					<rect id="Rectangle_43_1_" x="622.3" y="-2533.8" class="st4" width="11.1" height="10.7"/>
					<rect id="Rectangle_44_1_" x="637.2" y="-2533.8" class="st4" width="11.1" height="10.7"/>
					<rect id="Rectangle_45_1_" x="580.8" y="-2547.9" class="st4" width="11.1" height="10.3"/>
					<rect id="Rectangle_46_1_" x="595.7" y="-2547.9" class="st4" width="11.1" height="10.3"/>
					<rect id="Rectangle_47_1_" x="580.8" y="-2533.8" class="st4" width="11.1" height="10.7"/>
					<rect id="Rectangle_48_1_" x="595.7" y="-2533.8" class="st4" width="11.1" height="10.7"/>
					<rect id="Rectangle_49_1_" x="669" y="-2472.6" class="st8" width="7" height="6.5"/>
					<rect id="Rectangle_50_1_" x="678.4" y="-2472.6" class="st8" width="7" height="6.5"/>
					<rect id="Rectangle_51_1_" x="669" y="-2463.7" class="st8" width="7" height="6.8"/>
					<rect id="Rectangle_52_1_" x="678.4" y="-2463.7" class="st8" width="7" height="6.8"/>
					<ellipse id="Ellipse_77_1_" class="st8" cx="687.8" cy="-2448.7" rx="1.9" ry="1.9"/>
					<rect id="Rectangle_53_1_" x="538.5" y="-2477.1" class="st8" width="106" height="1"/>
					<rect id="Rectangle_54_1_" x="538.5" y="-2472.7" class="st8" width="106" height="1"/>
					<rect id="Rectangle_55_1_" x="538.5" y="-2468.4" class="st8" width="106" height="1"/>
					<rect id="Rectangle_56_1_" x="538.5" y="-2464.1" class="st8" width="106" height="1"/>
					<rect id="Rectangle_57_1_" x="538.5" y="-2459.8" class="st8" width="106" height="1"/>
					<rect id="Rectangle_58_1_" x="538.5" y="-2455.4" class="st8" width="106" height="1"/>
					<rect id="Rectangle_59_1_" x="538.5" y="-2451.1" class="st8" width="106" height="1"/>
					<rect id="Rectangle_60_1_" x="538.5" y="-2446.8" class="st8" width="106" height="1"/>
					<rect id="Rectangle_61_1_" x="538.5" y="-2442.4" class="st8" width="106" height="1"/>
					<rect id="Rectangle_62_1_" x="538.5" y="-2438.1" class="st8" width="106" height="1"/>
					<rect id="Rectangle_63_1_" x="538.5" y="-2433.8" class="st8" width="106" height="1"/>
					<rect id="Rectangle_64_1_" x="460.2" y="-2477.1" class="st8" width="56.4" height="1"/>
					<rect id="Rectangle_65_1_" x="460.2" y="-2472.7" class="st8" width="56.4" height="1"/>
					<rect id="Rectangle_66_1_" x="460.2" y="-2468.4" class="st8" width="56.4" height="1"/>
					<rect id="Rectangle_67_1_" x="460.2" y="-2464.1" class="st8" width="56.4" height="1"/>
					<rect id="Rectangle_68_1_" x="460.2" y="-2459.8" class="st8" width="56.4" height="1"/>
					<rect id="Rectangle_69_1_" x="460.2" y="-2455.4" class="st8" width="56.4" height="1"/>
					<rect id="Rectangle_70_1_" x="460.2" y="-2451.1" class="st8" width="56.4" height="1"/>
					<rect id="Rectangle_71_1_" x="460.2" y="-2446.8" class="st8" width="56.4" height="1"/>
					<rect id="Rectangle_72_1_" x="460.2" y="-2442.4" class="st8" width="56.4" height="1"/>
					<rect id="Rectangle_73_1_" x="460.2" y="-2438.1" class="st8" width="56.4" height="1"/>
					<rect id="Rectangle_74_1_" x="460.2" y="-2433.8" class="st8" width="56.4" height="1"/>
				</g>
			</g>
		</g>
		<g>
			<g>
				<defs>
					<rect id="SVGID_7_" x="-0.2" y="-2838" width="1242" height="412"/>
				</defs>
				<clipPath id="SVGID_8_">
					<use xlink:href="#SVGID_7_"  style="overflow:visible;"/>
				</clipPath>
				<g id="Group_34_1_" transform="translate(0)" class="st15">
					
						<linearGradient id="Path_416_2_" gradientUnits="userSpaceOnUse" x1="472.2163" y1="-7.1996" x2="472.2163" y2="-6.1739" gradientTransform="matrix(244.913 0 0 258.44 -115509.2109 -830.891)">
						<stop  offset="0" style="stop-color:#00800B;stop-opacity:0.251"/>
						<stop  offset="0.54" style="stop-color:#00800B;stop-opacity:0.122"/>
						<stop  offset="1" style="stop-color:#00800B;stop-opacity:0.102"/>
					</linearGradient>
					<path id="Path_416_1_" class="st16" d="M-15.8-2436.9l101.9-244.6l215.1,89.3l-101.9,244.6L-15.8-2436.9z"/>
					<polygon id="Rectangle_76_1_" class="st17" points="-10.5,-2442.4 87.1,-2676.9 297.1,-2589.7 199.5,-2355.2 					"/>
					<polygon id="Rectangle_77_1_" class="st5" points="23.9,-2498.3 94.4,-2667.4 284.6,-2588.5 214.1,-2419.3 					"/>
					<polygon id="Rectangle_78_1_" class="st18" points="23.9,-2498.3 94.4,-2667.4 284.6,-2588.5 214.1,-2419.3 					"/>
					
						<linearGradient id="Path_417_2_" gradientUnits="userSpaceOnUse" x1="472.0072" y1="-7.2384" x2="472.0072" y2="-6.1505" gradientTransform="matrix(225.688 0 0 243.672 -106438.6641 -816.9646)">
						<stop  offset="0" style="stop-color:#00800B;stop-opacity:0.251"/>
						<stop  offset="0.54" style="stop-color:#00800B;stop-opacity:0.122"/>
						<stop  offset="1" style="stop-color:#00800B;stop-opacity:0.102"/>
					</linearGradient>
					<path id="Path_417_1_" class="st19" d="M8.3-2663.5l225.4,58.4l-66.6,256.4l-225.4-58.4L8.3-2663.5z"/>
					
						<rect id="Rectangle_79_1_" x="-38.9" y="-2621.4" transform="matrix(0.2514 -0.9679 0.9679 0.2514 2493.0618 -1791.9772)" class="st17" width="254" height="227.4"/>
					
						<linearGradient id="Path_418_2_" gradientUnits="userSpaceOnUse" x1="471.6704" y1="-9.516" x2="471.6704" y2="-8.4787" gradientTransform="matrix(192.651 0 0 181.678 -90773.1172 -808.498)">
						<stop  offset="0" style="stop-color:#00800B;stop-opacity:0.251"/>
						<stop  offset="0.54" style="stop-color:#00800B;stop-opacity:0.122"/>
						<stop  offset="1" style="stop-color:#00800B;stop-opacity:0.102"/>
					</linearGradient>
					<path id="Path_418_1_" class="st20" d="M17.4-2652.6l201.9,52.3l-47.4,182.4L-30-2470.1L17.4-2652.6z"/>
					<g id="Group_31_1_" transform="translate(-23.012 143.534)">
						<g>
							<g>
								<defs>
									
										<rect id="SVGID_9_" x="23.4" y="-2783.1" transform="matrix(0.2514 -0.9679 0.9679 0.2514 2680.8262 -1891.4742)" width="188.5" height="208.6"/>
								</defs>
								<clipPath id="SVGID_10_">
									<use xlink:href="#SVGID_9_"  style="overflow:visible;"/>
								</clipPath>
								<g id="Group_30_1_" class="st21">
									
										<linearGradient id="Path_419_2_" gradientUnits="userSpaceOnUse" x1="518.2229" y1="-13.776" x2="518.2229" y2="-12.6739" gradientTransform="matrix(248.4896 0 0 134.1415 -128654.5703 -890.8552)">
										<stop  offset="0" style="stop-color:#00800B;stop-opacity:0.251"/>
										<stop  offset="0.54" style="stop-color:#00800B;stop-opacity:0.122"/>
										<stop  offset="1" style="stop-color:#00800B;stop-opacity:0.102"/>
									</linearGradient>
									<path id="Path_419_1_" class="st22" d="M56.4-2679.2c4.7,9,7.8,19.4,15.5,25.9c11.2,9.4,28.3,7.3,41.3,0.4
										s23.6-17.5,36.2-25.2c36.1-21.9,85.7-13.8,116.1,15.1c4.3,4.1,8.4,8.7,10.8,14.3c3.1,7.2,3.1,15.4,2.7,23.2
										c-1,17.6-4,35-9,51.9c-3.4,11.5-9,24-20.2,27.9c-3.6,1.1-7.3,1.6-11.1,1.6c-55.4,1.8-109.6-13.3-162.5-29.5
										c-39.4-12-79.2-24.9-114.1-46.9c-1.7-0.9-3.1-2.2-4-3.9c-0.8-2-0.3-4.3,0.4-6.3c2.3-6.8,6.2-12.9,9.5-19.2
										c6.9-13.2,11.7-27.4,14.3-42c2.2-13-2.1-25.6,13.6-25.3C20.4-2716.8,45-2700.8,56.4-2679.2z"/>
								</g>
							</g>
						</g>
					</g>
					
						<rect id="Rectangle_81_1_" x="3.5" y="-2639.2" transform="matrix(0.2514 -0.9679 0.9679 0.2514 2525.947 -1806.6389)" class="st17" width="183.2" height="205.9"/>
					<g id="Group_33_1_" transform="translate(-21.132 144.987)">
						<g>
							<g>
								<defs>
									
										<rect id="SVGID_11_" x="24.6" y="-2784.2" transform="matrix(0.2514 -0.9679 0.9679 0.2514 2682.0564 -1894.7262)" width="183.2" height="205.9"/>
								</defs>
								<clipPath id="SVGID_12_">
									<use xlink:href="#SVGID_11_"  style="overflow:visible;"/>
								</clipPath>
								<g id="Group_32_1_" class="st23">
									<path id="Path_420_1_" class="st24" d="M55.8-2681.9c4.7,8.7,7.8,18.9,15.4,25.2c11.1,9.2,28,7.2,40.7,0.6
										c12.8-6.6,23.3-17,35.6-24.3c35.5-21.1,84.5-13.1,114.6,15.2c4.3,4,8.3,8.5,10.7,13.9c3.1,7,3.1,15,2.7,22.6
										c-0.9,17.1-3.8,34-8.7,50.5c-3.3,11.2-8.8,23.4-19.8,27.1c-3.5,1-7.2,1.5-10.9,1.5c-54.6,1.6-108.2-13.4-160.4-29.3
										c-38.9-11.8-78.2-24.5-112.7-46c-1.7-0.8-3.1-2.2-4-3.8c-0.8-1.9-0.3-4.2,0.4-6.2c2.3-6.6,6-12.5,9.3-18.6
										c6.8-12.8,11.5-26.6,13.9-40.9c2.2-12.6-2.2-24.9,13.3-24.6C20.2-2718.6,44.5-2703,55.8-2681.9z"/>
								</g>
							</g>
						</g>
					</g>
					<ellipse id="Ellipse_78_1_" class="st25" cx="36.8" cy="-2619.6" rx="15" ry="14.9"/>
					
						<rect id="Rectangle_83_1_" x="88.8" y="-2474.1" transform="matrix(0.2514 -0.9679 0.9679 0.2514 2477.8726 -1737.4259)" class="st26" width="54" height="7"/>
					<path id="Path_421_1_" class="st26" d="M145.6-2493l-5.4-5.6l5.3,2.4l-0.5-11l-6.4-6.6l6.2,3.1l-0.7-15.6l-6.2-6.5l6.1,2.8
						l-0.6-15l-6.3-6.6l6.2,2.8l-1-23.1l-8.8,14.5l5.2-0.5l-6.7,3l-6.4,10.5l9.6,0.1l-12.6,4.8l-6.9,11.3l10.3,0.1l-13.4,5.2
						l-5.3,8.7l7.9,0.1l-10.3,4l-9.2,15.1l50.3,13L145.6-2493z"/>
					
						<rect id="Rectangle_84_1_" x="43.8" y="-2514.4" transform="matrix(0.2514 -0.9679 0.9679 0.2514 2368.6924 -1738.8475)" class="st7" width="33" height="227.4"/>
				</g>
			</g>
		</g>
	</g>
	<g id="分離模式_1_" transform="translate(-3295.553 3264.206)">
		<ellipse id="Ellipse_79_1_" class="st0" cx="267.1" cy="-2766.3" rx="21.7" ry="21.6"/>
		<ellipse id="Ellipse_80_1_" class="st0" cx="709.9" cy="-2813.4" rx="21.7" ry="21.6"/>
		<ellipse id="Ellipse_81_1_" class="st0" cx="972.4" cy="-2765" rx="21.7" ry="21.6"/>
		<ellipse id="Ellipse_82_1_" class="st0" cx="54.1" cy="-2714" rx="36.3" ry="36.2"/>
		<ellipse id="Ellipse_83_1_" class="st0" cx="88.9" cy="-2535" rx="36.3" ry="36.2"/>
		<ellipse id="Ellipse_84_1_" class="st0" cx="1063.2" cy="-2600.9" rx="36.3" ry="36.2"/>
	</g>
</g>
</svg>
