<?xml version="1.0" encoding="utf-8"?>
<!-- Generator: Adobe Illustrator 23.0.0, SVG Export Plug-In . SVG Version: 6.00 Build 0)  -->
<svg version="1.1" id="圖層_1" xmlns="http://www.w3.org/2000/svg" xmlns:xlink="http://www.w3.org/1999/xlink" x="0px" y="0px"
	 viewBox="0 0 1003 735.1" style="enable-background:new 0 0 1003 735.1;" xml:space="preserve">
<style type="text/css">
	.st0{fill:#D5FFAB;}
	.st1{fill:#363340;}
	.st2{fill:#89555B;}
	.st3{opacity:0.1;enable-background:new    ;}
	.st4{fill:#FFC950;}
	.st5{fill:#EDFFDB;}
	.st6{fill:#565988;}
	.st7{fill:#F899A5;}
	.st8{fill:#275934;}
	.st9{fill:#503B4D;}
	.st10{fill:#FFCCD0;}
	.st11{fill:#595C8A;}
	.st12{fill:#E8C2B8;}
	.st13{opacity:5.000000e-02;enable-background:new    ;}
	.st14{fill:#FFE0D1;}
	.st15{fill:#78BF45;}
	.st16{opacity:0.1;fill:#D5FFAB;enable-background:new    ;}
	.st17{fill:#3F5D45;}
	.st18{fill:none;stroke:#535461;stroke-width:2;stroke-miterlimit:10;}
	.st19{fill:#9CA89D;}
	.st20{opacity:0.2;enable-background:new    ;}
	.st21{fill:#FFD037;}
</style>
<g>
	<ellipse id="Ellipse_14-2_1_" class="st0" cx="824.5" cy="622" rx="75.5" ry="12.8"/>
	<ellipse id="Ellipse_15-2_1_" class="st0" cx="325.6" cy="681.9" rx="190.3" ry="32.5"/>
	<ellipse id="Ellipse_16-2_1_" class="st0" cx="392.3" cy="571.2" rx="392.3" ry="41.6"/>
	<path id="Path_248_1_" class="st1" d="M429,492.9c0,0-5.6,16.7-12.5,21.6c-3.2,2.3-6.7,2-10.1-3.7c-1.6-2.5-2.5-5.3-2.5-8.3
		c0.3-11.2,18.1-14.4,18.1-14.4C427.2,486.6,429,492.9,429,492.9z"/>
	<path id="Path_249_1_" class="st1" d="M586.5,508.4c-0.6,1-1.3,1.9-2,2.7c-4,4.5-7.9,2.7-11.6-3.2c-0.4-0.7-0.8-1.4-1.2-2.1
		c-4.8-8.6,9.1-10.5,9.1-10.5S591.6,500,586.5,508.4z"/>
	<path id="Path_250_1_" class="st2" d="M564,516.6h-0.2c-30.5,6.4-115.9,22.7-136.6,9c-14.3-9.5-10.7-18.2-4.8-24
		c4.6-4.6,10.8-7.3,17.2-7.8c23.2-1.9,100.1-7.8,125.1-5.7c2.5,0,5,0.5,7.4,1.5c2.4,1.7,4.1,4.3,4.6,7.2
		C578.6,505.8,572.9,514.6,564,516.6L564,516.6z"/>
	<path id="Path_251_1_" class="st3" d="M564,516.6c-3-2.2-5.1-5.4-5.9-9.1c-0.7-4.9,0.3-9.8,2.8-14c1-2,2.3-3.8,3.8-5.4
		c2.5,0,5,0.5,7.4,1.5c2.4,1.7,4.1,4.3,4.6,7.2C578.6,505.8,573,514.6,564,516.6z"/>
	<path id="Path_252_1_" class="st3" d="M424,513c0.2-2.5,2.9-4,3.5-6.4c0.2-0.8,0.2-1.7,0.8-2.3c0.5-0.3,1-0.5,1.6-0.5
		c3-0.5,6.1-0.7,9.1-0.5c2,0.3,4,0.7,5.9,1.3l9.7,2.7c0.3,0.1,0.5,0.2,0.7,0.4c0.6,0.7-0.4,1.7-1.4,1.8c-2-0.1-4-0.5-5.8-1.2
		c-2.6-0.3-5.2-0.4-7.9-0.3c-1.9-0.1-3.8-0.6-5.7-0.8c-1.9-0.2-3.8,0.2-5.4,1.4c-1.6,1.2-2,3.4-1,5.1c1.1,1.5,1.2,3.2-1.4,2.8
		C425.2,516.1,424,514.6,424,513z"/>
	<path id="Path_253_1_" class="st3" d="M435,514c1.2,0.2,2.5,0.2,3.7,0.1c3.2,0.1,5.9,2.6,9,3.4c2.1,0.5,4.3,0.2,6.4,0.5
		c1.5,0.3,3,0.9,4.5,1.3c4.8,1.2,9.9-0.1,14.6-1.7c-0.3-1.5-2.1-2-3.6-2.2l-24.2-4c-3-0.6-6-0.8-9.1-0.5c-0.8,0.1-2.6,0-2.9,0.7
		C433,512.6,434.2,513.8,435,514z"/>
	<path id="Path_254_1_" class="st3" d="M542.1,497.4c-2.8-0.3-5.6-1.3-8.4-1.7c-2.8-0.7-5.8-0.2-8.2,1.3c4.5,3.1,10.2,3.4,15.6,4.2
		c0.7,0,1.4,0.3,2,0.6c0.6,0.4,0.9,1.1,0.7,1.8c-0.4,0.9-1.6,1-2.6,1c-0.4,0.9,0,2,0.9,2.4c0,0,0.1,0,0.1,0c1,0.3,2.1,0.2,3-0.3
		c0.9-0.5,1.8-0.9,2.8-1.3c2.1-0.3,4.2-0.1,6.2,0.6c2,0.7,4.3,0.4,6-0.9c0.4-0.4,0.7-0.9,0.7-1.4c0.1-2.5-6.3-3.9-8.1-4.8
		C549.2,497.2,545.8,497.8,542.1,497.4z"/>
	<path id="Path_255_1_" class="st1" d="M427.6,535c-0.4,0.8-2.1,1.1-4.5,1.2c-4.9-0.1-9.9-0.7-14.6-1.9c-2.5-0.5-5-1.4-7.1-2.8
		c-0.3-0.3-0.5-0.6-0.6-1c-0.8-3.9,12-12.1,12.7-12.2c1.3-0.2,2.7-0.2,4-0.2C430.8,518.7,429.1,532.3,427.6,535z"/>
	<path id="Path_256_1_" class="st3" d="M423.1,536.1c-4.9-0.1-9.9-0.7-14.6-1.9c0.7-0.5,1.5-0.9,2.3-1.3
		C417,532.2,420.8,533.7,423.1,536.1z"/>
	<path id="Path_257_1_" class="st1" d="M410.7,533.9c-0.7,0.1-16.1,9.9-12.1,13.2s24.7,6.4,26.3,3.5
		C426.6,547.7,428.5,531.9,410.7,533.9z"/>
	<path id="Path_258_1_" class="st3" d="M584.5,511.1c-4,4.5-7.9,2.7-11.6-3.2c1.8-0.8,3.7-1.4,5.7-1.7c1.1,0.5,2.1,1.1,3,1.8
		C582.8,508.9,583.8,509.9,584.5,511.1z"/>
	<path id="Path_259_1_" class="st1" d="M584.3,520.5c-2.5,4.1-4.9,5.6-7.3,5.2c-2.6-0.5-5.1-3.3-7.5-7.7c-4.8-8.6,9.1-10.5,9.1-10.5
		c1.1,0.5,2.1,1.1,3,1.8C584.4,511.4,587.5,515.2,584.3,520.5z"/>
	<path id="Path_260_1_" class="st2" d="M577.1,543.7c-1.7,5.1-10,6.6-16,7.6c-1.7,0.2-3.4,0.6-5.1,1c-4.4,1.5-36.4,1.5-36.4,1.5
		h-69.3c0,0-17,4.6-27.2-1.8c-2.9-1.5-5-4.1-5.8-7.3c-0.3-2.1,0-4.2,0.7-6.1c0.6-1.6,1.4-3.2,2.3-4.8c1.1-1.9,2.3-3.9,3.7-6l0.1-0.1
		c6.4-9.7,19.2-3.4,25.2-3.9c6-0.6,16.5-1.6,16.5-1.6s84.8-5.7,101.7-8.6c0.8-0.1,1.7-0.2,2.5-0.2
		C583.8,513.3,579.3,537.1,577.1,543.7z"/>
	<path id="Path_261_1_" class="st3" d="M452.6,537.8c-4.3,4.7-11,4.4-17,4.3l-10.9-0.1c-1.3-0.1-2.6,0-3.8,0.4
		c-1.2,0.4-2.2,1.3-2.7,2.5c-0.3-0.1-0.6-0.2-0.9-0.3c-0.3-2.1,0-4.2,0.7-6.1c1.6,0.2,3.3,0.4,4.9,0.4c2.3-0.2,4.3-1.5,6.5-1.9
		c3.2-0.5,6.3,0.9,9.6,1.1C443.6,538.3,448.4,536.1,452.6,537.8z"/>
	<path id="Path_262_1_" class="st3" d="M493,526.3c-2.8,0.7-5.6,1.5-8.4,2.5c-7.7,2.2-16,0.7-24,1.4c-8.7,0.8-17.5,4.4-25.9,2
		c-1.4-0.4-3-0.9-4.2,0c-0.4,0.3-0.7,0.7-1,1.1c-1.5,1.1-3.5,1.4-5.3,0.9l-3.9-0.4c1.1-1.9,2.3-3.9,3.7-6l0.1-0.1
		c1.7-0.9,3.7-1.4,5.7-1.2c2.3,0.5,4.5,1.3,6.6,2.2c5.6,1.6,12,0.8,17.5-0.3c6.1-1.2,12.4-0.4,18.6-1.6c1.8-0.3,3.7-0.8,5.5-1.1
		C483,524.9,488.1,525.1,493,526.3L493,526.3z"/>
	<path id="Path_263_1_" class="st3" d="M517.6,529.1c0.8-0.1,1.6-0.4,2.3-0.8c0.7-0.5,1.3-1.1,1.8-1.8c1.2-1.3,2.7-2.2,4.4-2.7
		c-0.5,1.7-0.8,3.9,0.7,4.8c0.9,0.3,1.9,0.5,2.8,0.4c1,0.1,2.1,0.8,1.9,1.7c-0.2,0.9-1.2,1.2-2.1,1.4c-3.2,0.7-6.5,1-9.8,0.9
		c-3.2-0.3-6.4-1.4-9.4-0.5c-1.5,0.4-6.5,1.7-3-0.9C509.9,529.8,514.5,529.7,517.6,529.1z"/>
	<path id="Path_264_1_" class="st3" d="M577.1,543.7c-1.7,5.1-10,6.6-16,7.6c-0.4-0.7-0.8-1.5-1-2.2c-0.4-1.7-0.5-3.4-0.2-5.2
		c0.3-3.7,0.6-7.3,1.1-11c0.3-5.1,1.8-10.1,4.2-14.6c1.2-2,2.8-3.6,4.8-4.9C583.8,513.3,579.3,537.1,577.1,543.7z"/>
	<path id="Path_265_1_" class="st1" d="M565.4,568c-3,1.2-6,2.1-9.2,2.8c-7.6,1.6-17.3,1.8-19-7.2c-2.7-15.1,9-18.5,9-18.5l13.7,8.1
		L565.4,568z"/>
	<path id="Path_266_1_" class="st1" d="M538.4,573.5c-1.5,2.8-12.3,3.9-19.1,4.3c-1.3,0.1-2.5,0.1-3.4,0.2l-2.2,0.1
		c-0.7,0-25.2,0-23.6-16.8c0.8-8.3,6.4-11.3,11.7-12.1c3.6-0.5,7.2-0.3,10.7,0.4c0,0,17.4,1.3,22.4,4.7c2.6,1.8,4,5.7,4.4,9.7
		C540,567.2,539.6,570.4,538.4,573.5z"/>
	<path id="Path_267_1_" class="st3" d="M416.4,514.5c-3.2,2.3-6.7,2-10.1-3.7c-1.6-2.5-2.5-5.3-2.5-8.3c2.7,0.4,5.3,1,7.9,1.9
		C413.1,505.1,415.1,509.6,416.4,514.5z"/>
	<path id="Path_268_1_" class="st3" d="M416.8,528.3c-2.3,2.7-10.6,3.1-16.2,2.2c-0.8-3.9,12-12.1,12.7-12.2c1.3-0.2,2.7-0.2,4-0.2
		C418.2,522.4,418.3,526.5,416.8,528.3z"/>
	<path id="Path_269_1_" class="st1" d="M416.4,527.8c-3.5,4.2-21,2.7-21.6,0c-0.4-1-1.1-2-1.9-2.7c-3.1-2.6-5.9-5.6-8.3-8.8
		c-0.4-0.7-0.8-1.4-1.1-2.2c-2.2-6,13.2-12.3,13.2-12.3s11.9,1.5,14.8,3S419.8,523.6,416.4,527.8z"/>
	<path id="Path_270_1_" class="st3" d="M392.9,525.1c-3.1-2.6-5.9-5.6-8.3-8.8C389,517.1,392.4,520.6,392.9,525.1z"/>
	<path id="Path_271_1_" class="st1" d="M391.3,533.3c-1.6,2.9-22.3-0.2-26.3-3.5c-0.4-0.3-0.7-0.8-0.7-1.4
		c0-4.1,12.1-11.8,12.7-11.8c11.1-1.3,14.5,4.5,15.1,9.6C392.6,528.6,392.3,531.1,391.3,533.3z"/>
	<path id="Path_272_1_" class="st1" d="M401.7,536.4c-1.6,2.9-22.3-0.2-26.3-3.5c-0.4-0.3-0.7-0.8-0.7-1.4
		c0-4.1,12.1-11.8,12.7-11.8c11.1-1.3,14.5,4.4,15.1,9.6C402.9,531.8,402.6,534.2,401.7,536.4z"/>
	<path id="Path_273_1_" class="st3" d="M391.3,533.3c-1.6,2.9-22.3-0.2-26.3-3.5c-0.4-0.3-0.7-0.8-0.7-1.4c4.5-1.6,9.3-1.9,14-0.8
		c4.5-1.2,9.2-1.7,13.9-1.4C392.5,528.6,392.2,531.1,391.3,533.3z"/>
	<path id="Path_274_1_" class="st1" d="M412,551.3c-0.5,0.7-1,1.4-1.6,2c-2.9,3.2-6.3,6-10,8.3c-3,1.9-9.9,1.7-17.4,0.6
		c-12.7-1.9-27.4-6.4-29.7-7.9c-3.7-2.4-2.2-10.8,4.6-20c6.8-9.2,20.4-5.8,20.4-5.8C413.4,520,412,551.3,412,551.3z"/>
	<path id="Path_275_1_" class="st3" d="M410.4,553.3c-2.9,3.2-6.3,6-10,8.3c-3,1.9-9.9,1.7-17.4,0.6c-0.4-2.1-0.5-4.3-0.4-6.5
		c0.7-15.4,12.4-12.5,12.4-12.5C400.6,545.8,405.8,549.2,410.4,553.3z"/>
	<path id="Path_276_1_" class="st1" d="M399.8,569.4c-1.1,0.3-2.3,0.4-3.4,0.4c-6-0.2-14.4,2-13.7-13.3C383.4,541.1,395,544,395,544
		c4.2,1.9,8.1,4.3,11.8,7c2.2,1.6,4.2,3.6,5.8,5.8C416.3,562.6,406.6,568,399.8,569.4z"/>
	<path id="Path_277_1_" class="st3" d="M584.3,520.5c-2.5,4.1-4.9,5.6-7.3,5.2c0.9-5.6,2.5-11.1,4.7-16.4
		C584.4,511.4,587.5,515.2,584.3,520.5z"/>
	<path id="Path_278_1_" class="st1" d="M628.4,515.8c0,0-15.4,18.7-16.1,19.5c-8.7,2.6-17.6,4.1-26.7,4.4c-2.1,0.2-4.2-0.3-6-1.5
		c-4.4-4.4,0.3-24.5,5.8-33.7c5.5-9.2,18.8-3.2,18.8-3.2c1.2-0.2,8.1,4.1,14.3,8C623.7,512.7,628.4,515.8,628.4,515.8z"/>
	<path id="Path_279_1_" class="st3" d="M628.4,515.8c0,0-15.4,18.7-16.1,19.5c-8.7,2.6-17.6,4.1-26.7,4.4c0.2-4.6,4.7-9.4,4.7-9.4
		s12.6-2.7,18.3-12.5c0.6-1.1,1.3-2.1,2-3.1c1.9-2.7,4.7-4.6,7.9-5.5C623.7,512.7,628.4,515.8,628.4,515.8z"/>
	<path id="Path_280_1_" class="st1" d="M644.1,551.3c-1.8,0.9-3.7,1.4-5.7,1.4c-8.7,0.8-24.9-0.4-38.7-2.4c-1.5-0.2-2.9-0.4-4.3-0.7
		c-18.6-3.1-5.1-17.3-5.1-17.3s12.6-2.7,18.3-12.5c0.6-1.1,1.3-2.1,2-3.1c4.8-6.6,14-8,20.5-3.2c0.7,0.5,1.3,1.1,1.9,1.7
		c6.9,7.1,15.8,16.1,19.6,19.2C659.4,539.8,648.6,548.1,644.1,551.3z"/>
	<path id="Path_281_1_" class="st1" d="M661.8,576.3c-1.8,0.9-3.7,1.4-5.7,1.4c-8.7,0.8-24.9-0.4-38.7-2.4c-1.5-0.2-2.9-0.4-4.3-0.7
		c-18.6-3.1-5.1-17.3-5.1-17.3s12.6-2.7,18.3-12.5c0.6-1.1,1.3-2.1,2-3.1c4.8-6.6,14-8,20.6-3.2c0.7,0.5,1.3,1,1.9,1.6
		c6.9,7.1,15.8,16.1,19.6,19.2C677.2,564.8,666.4,573.1,661.8,576.3z"/>
	<path id="Path_282_1_" class="st1" d="M603.1,559.8c-2.7,1.1-5.6,2-8.4,2.6c-7.6,1.7-18,2.2-19.7-7.1c-2.7-15.1,9-18.5,9-18.5
		l13.7,8.1l2,5.6L603.1,559.8z"/>
	<path id="Path_283_1_" class="st1" d="M592.1,554.6c-2.7,1.1-5.6,2-8.4,2.6c-7.6,1.7-18,2.2-19.7-7.1c-2.7-15.1,9-18.5,9-18.5
		l13.7,8.1l2,5.6L592.1,554.6z"/>
	<path id="Path_284_1_" class="st1" d="M580.1,561.6c-2.7,1.1-5.6,2-8.4,2.6c-7.6,1.7-18,2.2-19.7-7.1c-2.7-15,9-18.5,9-18.5
		l13.7,8.1l2.1,5.6L580.1,561.6z"/>
	<path id="Path_285_1_" class="st3" d="M603.1,559.8c-2.7,1.1-5.6,2-8.4,2.6l-1.7-2.7c-0.4-0.7-0.7-1.4-0.8-2.2
		c-0.2-2.5,1.4-4.8,3.9-5.3c1.3-0.3,2.6-0.8,3.7-1.7L603.1,559.8z"/>
	<path id="Path_286_1_" class="st3" d="M638.4,552.7c-8.7,0.8-24.9-0.4-38.7-2.4c2.7-0.7,4.9-2.6,6-5.2c4-9.1,18.8-6.1,18.8-6.1
		C631.5,540.2,636.1,545.8,638.4,552.7z"/>
	<path id="Path_287_1_" class="st1" d="M637.3,577.3c-4.8,9.1-20.7,7.2-27.5,4.1c-2-0.9-3.2-1.8-3.1-2.7c0.1-2.2-5.8-11.9-10.5-19.1
		c-1.5-2.3-0.9-5.3,1.4-6.8c0.5-0.3,1.1-0.6,1.7-0.7c2.9-0.6,5.4-2.6,6.5-5.4c4-9.1,18.8-6.1,18.8-6.1
		C639.3,543.5,643.5,565.6,637.3,577.3z"/>
	<path id="Path_288_1_" class="st3" d="M565.4,568c-3,1.2-6,2.1-9.2,2.8c0-1,0-2.1,0.1-3.1c0.3-5,1.5-10,3.7-14.5L565.4,568z"/>
	<path id="Path_289_1_" class="st3" d="M609.8,581.5c-2-0.9-3.2-1.8-3.1-2.7c0.1-2.2-5.8-11.9-10.5-19.1c-0.4-0.7-0.7-1.4-0.8-2.2
		C608,564.5,610.2,574.7,609.8,581.5z"/>
	<path id="Path_290_1_" class="st1" d="M605.9,588.5c-0.5-0.4-27.6,5.7-39.3,0l-0.2-0.1c-7-3.5-9.2-12.1-8.7-20.6
		c0.3-5.2,1.6-10.2,3.8-14.9c5.3-10.7,17.8,2.4,17.8,2.4l11.2,0.8C614.5,567.3,606.4,588.8,605.9,588.5z"/>
	<path id="Path_291_1_" class="st3" d="M538.4,573.5c-1.5,2.8-12.3,3.9-19.1,4.3c-1.3,0.1-2.5,0.1-3.4,0.2c-0.1-0.8-0.1-1.6,0-2.4
		c1.6-16.8,22.5-11.7,22.5-11.7l1,0.1C540,567.2,539.6,570.5,538.4,573.5z"/>
	<path id="Path_292_1_" class="st3" d="M566.4,588.4c-7-3.5-9.2-12.1-8.7-20.6c1.8,0.4,3.4,1.1,5,2
		C567.4,573.1,568.2,583.9,566.4,588.4z"/>
	<path id="Path_293_1_" class="st1" d="M538.4,565.1c0,0-20.8-5.1-22.5,11.7c-1.7,16.8,22.8,16.8,23.6,16.8s22.5-0.5,24.7-4.6
		c2.2-4,1.6-15.7-3.4-19.2S538.4,565.1,538.4,565.1z"/>
	<path id="Path_294_1_" class="st3" d="M399.8,569.4c0.9-3.9,3.6-8.9,5.7-15.7c0.3-1,0.8-1.9,1.4-2.8c2.2,1.6,4.2,3.6,5.8,5.8
		C416.3,562.6,406.6,568,399.8,569.4z"/>
	<path id="Path_295_1_" class="st1" d="M439,585.6c-0.9,0.4-1.9,0.7-2.9,0.7c-9.2,0.8-30.9-6.2-34.2-10.4c-3.7-4.8,1.3-11,4.8-22.1
		c3.5-11.2,20.5-5,20.5-5c3.8-1.5,12.4,10,15.2,13.4c0.6,0.9,1,2,1.2,3.1C444.9,571.2,444.1,582.9,439,585.6z"/>
	<path id="Path_296_1_" class="st1" d="M469.3,580.5c-0.9,0.4-1.9,0.7-2.9,0.7c-9.2,0.8-30.9-6.2-34.2-10.4
		c-3.7-4.8,1.3-11,4.8-22.1s20.5-5,20.5-5c3.8-1.5,12.4,10,15.2,13.4c0.6,0.9,1,2,1.2,3.1C475.1,566.1,474.3,577.8,469.3,580.5z"/>
	<path id="Path_297_1_" class="st3" d="M439,585.6c-0.9,0.4-1.9,0.7-2.9,0.7c-2.5-6.1,3.3-15.4,7.4-21.1
		C444.9,571.2,444.1,582.9,439,585.6z"/>
	<path id="Path_298_1_" class="st3" d="M519.3,577.8c-3.1,0.2-5.3,0.3-5.6,0.3c-0.7,0-25.2,0-23.6-16.8c0.8-8.3,6.4-11.3,11.7-12.1
		c0.3,0.2,0.5,0.3,0.5,0.3s0,11.7,0.8,12c0.6,0.2,7.8,2.9,10.9,4.1c0.9,0.3,1.7,1,2.2,1.9C518.1,570.5,519.1,574.1,519.3,577.8z"/>
	<path id="Path_299_1_" class="st1" d="M501.5,550.1c0,0-11.3-9.4-37.1,6.2c0,0-13.2-0.1-17.5,5.8c-4.4,5.9-17.9,23.6-4.4,28.8
		c13.5,5.2,59.2,13.6,70.5,1.4c6.2-6.6,7.2-16.6,2.3-24.3c-0.5-0.9-1.3-1.5-2.2-1.9c-3-1.1-10.3-3.8-10.9-4.1
		C501.7,561.9,501.5,550.1,501.5,550.1z"/>
	<path id="Path_300_1_" class="st4" d="M511.4,451.6c0,5.9-0.2,11.7-0.6,17.1c-1.3,20.4-16.7,37.1-36.9,40c-5,0.8-10,0.4-14.8-1.2
		c-2-0.7-4-1.7-5.7-2.9c-21.5-14.7-26.4-29.7-5.7-73.4s1.5-62.9,1.5-62.9c17-1.3,18.3,55.7,18.3,55.7c4.4-0.9,8-16.6,8-16.6
		c4,1.3-2.5,26.9-2.5,26.9s11.1-0.5,7.6-41.8c-3.5-41.3,8.8-44.6,8.8-44.6c-10.1,24.1,0.4,42.2,14.4,63.6
		C509.7,420.4,511.4,436.2,511.4,451.6z"/>
	<path id="Path_301_1_" class="st3" d="M465.5,433.3c0,0-16.5,15-16.3,35.3c0,0-3.1-6.6-4-5.8c-0.9,0.7,2.2,22.7,11.4,22.1
		C452.1,467.2,455.3,448.4,465.5,433.3z"/>
	<path id="Path_302_1_" class="st3" d="M511.4,451.6c0,5.9-0.2,11.7-0.6,17.1c-1.3,20.4-16.7,37.1-36.9,40c-5,0.8-10,0.4-14.8-1.2
		c0.1-5.1,3.3-11.6,11.6-19.8c34.9-34.7,20.7-61.8,20.7-61.8C502.3,430,508.2,441.1,511.4,451.6z"/>
	<path id="Path_303_1_" class="st4" d="M537.5,370.2c0,0-29.1-3.8-20.5,48.4c8.6,52.3-0.4,55.7-0.4,55.7s-0.7-39.5-24-48.4
		c0,0,14.2,27.1-20.7,61.8s20.1,38.5,20.1,38.5s26.9,10.1,47-18l0.6-0.8c12.5-17.7,14-41,3.8-60.2c-8.6-16-14.7-36.2-15-40.7
		C528,396.6,522.9,372.1,537.5,370.2z"/>
	<path id="Path_304_1_" class="st3" d="M535.2,451.6c1.6,18.5-4,37-15.5,51.5c0,0-3.3-11.7-4.2-11c-0.9,0.7-1.1,22.3-18.3,30.7
		c0,0,25.2,15.9,39.8-13.9C551.6,479.2,535.2,451.6,535.2,451.6z"/>
	<path id="Path_305_1_" class="st5" d="M498,642.9c-4.1-2.9-9-4.5-14.1-4.6c-3,0-6-0.3-9-1c-4.5-1.3-32.6-2.7-35.9-2.9
		c-0.1,0-0.2,0-0.3,0l-5-3.7l-0.7,1.8c-1.6-0.8-3.3-1.8-4.8-2.7l-6.9-13.4c0,0-0.7-13.8-5.2-51.8c-4.5-38-34.8-28.2-34.8-28.2
		l-94.1,52.3l-4,2.2l-0.1-1.2c1.9-0.6,3.7-1.4,5.4-2.4c14.7-7.8,26.7-20,34.2-34.8c1.2-2.1,2.2-4.4,3-6.7l6.9-36.1
		c0-4.8-0.8-9.6-2.3-14.1l1.2-1.5l3-3.8c0,0,9.5-15.3-3.3-28.8c-7.2-7.6-12.2,0.4-15.2,8.8c-1.6-1.6-3.5-2.9-5.6-3.8l-19.1-6
		c0.2-0.6,0.4-1.2,0.5-1.8c0,0.1-0.1,0.1-0.1,0.2c0.4-1.6,0.7-3.2,1-4.7c0.9-4.3,2.2-8.6,3.9-12.7c-0.3,0.9-0.6,1.7-0.9,2.6
		c1.6-4.6,3.5-9.1,5.1-13.6c0.2-0.7,0.5-1.4,0.7-2c-0.2,0.4-0.3,0.9-0.5,1.3c2.6-7.7,4.2-16.1,1.8-23.9c-1.3-4.2-3.7-8.1-4-12.4
		c0-0.8,0-1.5,0-2.3c0-0.7,0.1-1.4,0.2-2.1l0.4-0.1c0.2,0,0.3-0.1,0.5-0.2l0.4-0.1l0.5-0.2l0.3-0.1c0.3-0.1,0.5-0.2,0.7-0.4
		l2.2-21.6l0,0l0.1-1.3v-0.2l-0.2,0.1l-0.2-0.9l-0.2,0.1c-1.9-9.2-8.6-36.5-22.8-44.9c11-13,11.3-31.9,0.7-45.3
		c3.5-1.9,6.2-5.1,7.6-8.8c1.7-5.6-2.1-12-7.3-16.9c-0.2-0.2-0.3-0.3-0.5-0.5l-0.1-0.1c-0.3-0.3-0.7-0.6-1-0.9l0,0
		c-3.8-3.6-8.4-6.2-13.4-7.6c-8.5-1.7-16.6,3.4-25.1,5.1c-5.5,0.7-11,1.1-16.5,1c-5.8,0.2-11.5,1.1-17.1,2.6
		c-4.4,1.2-9.1,3-11.3,6.8c-1.3,2.7-1.9,5.7-1.8,8.7c-0.3,9.1,0.4,18.3-0.8,27.3c-0.7,5.6-2.3,11.1-4.9,16.2
		c-1.2,2.3-2.7,4.5-4.4,6.4c-0.6,0.7-1.2,1.3-1.8,1.9c-5.4,5.1-12.6,7.9-19.9,9.7c-6.7,1.7-14.7,3.8-16.7,10.2
		c-1,3.1-0.2,6.5-1.1,9.7c-1.9,7-10.8,10-14,16.5c-2.6,5.4-0.5,12.1,3.5,16.6l0.1,0.1l0,0c0.6,0.6,1.2,1.2,1.8,1.8
		c3.4,3.2,7.3,5.8,11.5,7.8c-8.7,13.3-15.4,27.7-20,42.9c-2.9,8.8-4.8,17.9-5.8,27.1c-2.6,31.9-46.3,88,0.3,101.7
		c2.7,0.8,5.5,1.4,8.3,1.7c0.5,2.1,1.1,4.2,1.7,6.2c4.7,4.3,11.4,5.5,17.4,3.2c0.1,2.2,0.1,4.2,0.2,6c0.2,6.8,1.9,13.5,5.1,19.5
		l3,5.7c1.2,2.2,2,4.7,2.4,7.2l1.6,10.6c0.6,4.3,1.9,8.5,3.7,12.5l1.9,4.1c1.2,2.7,2.2,5.5,2.9,8.4c2.6,10.7,15.8,44.2,79.3,55.5
		c3.6,0.6,7.3-0.6,9.7-3.4c0.9-1,1.8-2.1,2.9-3.3c2.4,0.2,4.8,0,7.1-0.4c2.1-0.4,4.2-0.9,6.3-1.7l45.3,4c6.6,0.6,13.3,0.7,20,0.3
		c6.1-0.4,12.2-1.1,18.3-2.3c10.2-1.9,20.4-3,30.8-3.3h1.8c6.7-0.1,13.3-1.4,19.7-3.6c2.2-0.8,4.4-1.8,6.5-2.8
		c1.5-0.8,3.1-1.7,4.6-2.7c3.9-2.4,7.3-5.6,9.8-9.4c12.4,1.4,48.7,4.4,64.1-8.7C507.2,653.3,503.4,646.8,498,642.9z M203.5,322.5
		c0.1-0.1,0.3-0.2,0.4-0.2c1.3-0.5,2.7-0.6,4-0.2l16.9,2.5c-1.6,1.9-3.4,3.6-5.3,5.2l-0.7-0.3c-3.5-1.5-11,1.8-19.6,7.3
		c0.2-3.9,1-7.8,2.4-11.5c0,0,0-0.1,0-0.1C202,324.2,202.6,323.2,203.5,322.5L203.5,322.5z M240.2,451.4l0.4-1.2
		c1.1,1.6,2,3.4,2.7,5.2C242.4,454.1,241.4,452.8,240.2,451.4L240.2,451.4z M242.7,444.5l1.6-4.9h0.7c-0.5,2.3-0.2,4.7,1.1,6.7
		l-3.6-1.1C242.5,445,242.6,444.8,242.7,444.5L242.7,444.5z M379.6,618.9l0.3,1.9c-8.7-1.4-17.6-2.3-26.4-2.5h-2.6l17.6-21.9
		C367.1,607.2,379.6,618.9,379.6,618.9L379.6,618.9z"/>
	<path id="Path_306_1_" class="st6" d="M228,441.9l82.2,26.3c0,0,20.3,8.7,9.7,37.3s-42.3,87.5-42.3,87.5l-52.9-27
		C224.6,566,276.6,453.9,228,441.9z"/>
	<path id="Path_307_1_" class="st3" d="M228,441.9l82.2,26.3c0,0,20.3,8.7,9.7,37.3s-42.3,87.5-42.3,87.5l-52.9-27
		C224.6,566,276.6,453.9,228,441.9z"/>
	<path id="Path_308_1_" class="st6" d="M216.1,450.3l82.2,26.3c0,0,20.3,8.7,9.7,37.3c-10.7,28.6-42.3,87.5-42.3,87.5l-52.9-27
		C212.8,574.5,264.7,462.3,216.1,450.3z"/>
	<path id="Path_309_1_" class="st7" d="M277.7,321.4c-5.3,2.8-9.4,8.5-12.4,14.7c-3.9,8.7-6.6,17.8-8,27.2c0,0-72.9-9.5-49.4-20.5
		c7.9-3.5,14.8-8.8,20.4-15.4c3.4-4,6-8.5,7.6-13.5C235.8,313.9,293.7,312.9,277.7,321.4z"/>
	<path id="Path_310_1_" class="st8" d="M242.2,344.8c-4.8-3-8.8-7.6-14.3-9.2l-6.1-2.4c-3.9-1.7-12.5,2.7-22.2,9.4
		c-31.4,21.6-54.4,53.4-65.2,89.9c-2.8,8.7-4.6,17.7-5.6,26.8c-2.5,31.4-44.6,86.8,0.3,100.3s80.9-43.4,80.9-43.4l19.3-33.9
		c6.4-11.3,11.7-23.3,15.7-35.7l14.7-45.5c5.8-17.7,1.6-37.2-11-50.9C246.5,348,244.4,346.2,242.2,344.8z"/>
	<path id="Path_311_1_" class="st3" d="M277.7,321.4c-5.3,2.8-9.4,8.5-12.4,14.7c-13,4.4-27.4,1-37-8.7c3.4-4,6-8.5,7.6-13.5
		C235.8,313.9,293.7,312.9,277.7,321.4z"/>
	<circle id="Ellipse_17-2_1_" class="st7" cx="253.7" cy="300.1" r="35.9"/>
	<path id="Path_312_1_" class="st3" d="M289.5,269.5c-3,10.2-17.8,11-20.8,22.3c-1.4,5.3-0.4,11.9-4.6,15.5c-3.5,3-8.8,2.1-13.4,2.2
		c-4.6,0.1-10.3,3-9.6,7.5c0.3,1.8,1.6,3.4,1.8,5.2c0.1,3-1.9,5.6-4.8,6.3c-2.8,0.7-5.7,0.7-8.5,0l-18.5-2.8
		c-1.3-0.3-2.6-0.3-3.8,0.2c-0.1,0.1-0.3,0.2-0.4,0.2c-0.9,0.7-1.5,1.7-1.9,2.7c0,0,0,0.1,0,0.1c-2.2,5.5-2.2,11.6-2.9,17.4
		s-2.4,12.1-7,15.8c-7.6,6.1-21,4-25.7,12.5c-1.8,3.3-1.7,7.3-2.5,10.9s-3.7,7.5-7.4,7.1c-1.2-0.2-2.3-0.6-3.4-1.2
		c-5.3-2.7-10.7-5.4-14.6-9.9c-3.9-4.5-5.9-11-3.4-16.4c3-6.5,11.6-9.4,13.5-16.3c0.8-3.1,0.1-6.5,1.1-9.5c2-6.3,9.7-8.3,16.1-10
		c7.1-1.5,13.7-4.8,19.2-9.6c0.6-0.6,1.2-1.2,1.8-1.9c1.7-1.9,3.1-4.1,4.3-6.3c2.5-5,4.1-10.4,4.7-16c1.1-8.9,0.5-18,0.8-27
		c-0.1-2.9,0.5-5.9,1.8-8.5c2.2-3.8,6.7-5.6,11-6.7c5.4-1.5,10.9-2.3,16.5-2.6c5.3,0.1,10.7-0.2,16-1c8.2-1.7,16.1-6.7,24.2-5.1
		C277.8,246.6,292.5,259.3,289.5,269.5z"/>
	<path id="Path_313_1_" class="st9" d="M288.5,268.5c-3,10.2-17.8,11-20.8,22.3c-1.4,5.3-0.4,11.9-4.6,15.5c-3.5,3-8.8,2.1-13.4,2.2
		c-4.6,0.1-10.3,3-9.6,7.5c0.3,1.8,1.6,3.4,1.8,5.2c0.1,3-1.9,5.6-4.8,6.3c-2.8,0.7-5.7,0.7-8.5,0l-18.5-2.8
		c-1.3-0.3-2.6-0.3-3.8,0.2c-0.1,0.1-0.3,0.2-0.4,0.2c-0.9,0.7-1.5,1.7-1.9,2.7c0,0,0,0.1,0,0.1c-2.2,5.5-2.2,11.6-2.9,17.4
		c-0.7,5.9-2.4,12.1-7,15.8c-7.6,6.1-21,4-25.7,12.5c-1.8,3.3-1.7,7.3-2.5,10.9c-0.9,3.6-3.7,7.5-7.4,7.1c-1.2-0.2-2.3-0.6-3.4-1.2
		c-5.3-2.7-10.7-5.4-14.6-9.9c-3.9-4.5-5.9-11-3.4-16.4c3-6.5,11.6-9.4,13.5-16.3c0.8-3.1,0.1-6.5,1.1-9.5c2-6.3,9.7-8.3,16.1-10
		c7.1-1.5,13.7-4.8,19.2-9.6c0.6-0.6,1.2-1.2,1.8-1.9c1.7-1.9,3.1-4.1,4.3-6.3c2.5-5,4.1-10.4,4.7-16c1.1-8.9,0.5-18,0.8-27
		c-0.1-2.9,0.5-5.9,1.8-8.5c2.2-3.8,6.7-5.6,11-6.7c5.4-1.5,10.9-2.3,16.5-2.6c5.3,0.1,10.7-0.2,16-1c8.2-1.7,16.1-6.7,24.2-5.1
		C276.8,245.6,291.5,258.3,288.5,268.5z"/>
	<path id="Path_314_1_" class="st6" d="M206,325.2c-0.9,0.7-1.5,1.7-1.9,2.7c-0.6-0.3-1.3-0.6-1.9-0.8c-2.1-0.9-4.1-2.1-6-3.4
		c-1.2-0.9-2.3-1.9-3.3-3c-1.2-1.2-3-2.4-4.1-3.8c1.7-1.9,3.1-4.1,4.3-6.3c0.3,0,0.7,0,1,0.1c1.7,0.4,2.7,2.2,3.5,3.8
		C200,318.4,202.8,322,206,325.2L206,325.2z"/>
	<path id="Path_315_1_" class="st3" d="M280.9,251.3c4.3,4.6,7.1,10.2,5.7,15.2c-3,10.2-17.8,11-20.8,22.3
		c-1.4,5.3-0.4,11.9-4.6,15.5c-3.5,3-8.8,2.1-13.4,2.2c-4.6,0.1-10.3,3-9.6,7.5c0.3,1.8,1.6,3.4,1.8,5.2c0.1,3-1.9,5.6-4.8,6.3
		c-2.8,0.7-5.7,0.7-8.5,0l-18.5-2.8c-1.3-0.3-2.6-0.3-3.8,0.2c-0.1,0.1-0.3,0.2-0.4,0.2c-0.9,0.7-1.5,1.7-1.9,2.7c0,0,0,0.1,0,0.1
		c-2.2,5.5-2.2,11.6-2.9,17.4s-2.4,12.1-7,15.8c-7.6,6.1-21,4-25.7,12.5c-1.8,3.3-1.7,7.3-2.5,10.9s-3.7,7.5-7.4,7.1
		c-1.2-0.2-2.3-0.6-3.4-1.2c-4.5-2-8.7-4.7-12.5-7.8c3.9,4.4,9.2,7.2,14.5,9.8c1,0.6,2.2,1,3.4,1.2c3.7,0.4,6.5-3.5,7.4-7.1
		c0.9-3.6,0.7-7.6,2.5-10.9c4.7-8.5,18.1-6.4,25.7-12.5c4.6-3.7,6.3-10,7-15.8c0.7-5.8,0.7-12,2.9-17.4c0,0,0-0.1,0-0.1
		c0.4-1.1,1-2,1.9-2.7c0.1-0.1,0.3-0.2,0.4-0.2c1.2-0.5,2.6-0.5,3.8-0.2l18.4,2.8c2.8,0.7,5.7,0.7,8.5,0c2.9-0.8,4.8-3.4,4.8-6.3
		c-0.2-1.8-1.5-3.4-1.8-5.2c-0.7-4.6,5-7.4,9.6-7.5s9.9,0.8,13.4-2.2c4.2-3.6,3.2-10.1,4.6-15.5c3-11.4,17.8-12.2,20.8-22.3
		C290.2,262.8,286.2,256.2,280.9,251.3z"/>
	<path id="Path_316_1_" class="st10" d="M333.4,491.7l-2.9,3.7l-3.7,4.8l-17.6-1l1.5-6.6l1.7-7.6c0,0,5.7-35.1,18-21.8
		C342.5,476.5,333.4,491.7,333.4,491.7z"/>
	<path id="Path_317_1_" class="st11" d="M418.4,625.8c0,0,12.8,8.8,15.5,8c2.7-0.8-3.2,17.3-7.7,18.1c-4.6,0.8-9.6-2.5-9.6-2.5
		L418.4,625.8z"/>
	<path id="Path_318_1_" class="st12" d="M429,630.1l4.8,3.7c0,0,30.3,1.5,34.9,2.8c2.8,0.7,5.8,1,8.7,1c4.9,0.1,9.7,1.7,13.6,4.6
		c5.2,3.9,9,10.3-1.2,19.1c-18,15.7-65.9,8.1-65.9,8.1l-6.3-10.3L429,630.1z"/>
	<path id="Path_319_1_" class="st8" d="M274.6,619.3l70.9-1.3c0,0,62.9-2,81.2,28.9c10.5,17.8-0.9,28.8-12.5,34.9
		c-7.8,4-16.5,6.2-25.3,6.3c-10.5,0.2-21,1.3-31.4,3.3c-12.2,2.4-24.6,3.1-36.9,2l-67-6L274.6,619.3z"/>
	<path id="Path_320_1_" class="st13" d="M414.2,683.3c-7.8,4.1-16.5,6.2-25.3,6.4c-10.5,0.2-21,1.3-31.4,3.2
		c-12.2,2.4-24.6,3.1-36.9,2l-43.7-3.8l-20.5-1.8l-2.7-0.2l1-3.2l20-65l70.9-1.3c0,0,2.3-0.1,6.2,0c8.8,0.2,17.5,1.1,26.2,2.6
		c16.4,2.9,34.9,9,45.4,21.5c1.3,1.5,2.4,3.1,3.4,4.8C437.2,666.2,425.8,677.2,414.2,683.3z"/>
	<path id="Path_321_1_" class="st3" d="M380.6,657.4c-4.4-3.1-9.7-4.4-15-3.7c-5.3,0.4-10.4,1.8-15.6,2.4c-4.4,0.5-8.8,0.5-13.2,1
		c-7.7,0.9-15.1,3.3-22.7,4c-7.7,0.7-16.1-0.6-21.5-6.1"/>
	<path id="Path_322_1_" class="st3" d="M351.7,618l-22.8,28.9c0,0-27.1,33.8-52,42.7c-2,0.7-4,1.3-6,1.6c-2.7,0.5-5.4,0.6-8,0.3
		c-2.6-0.3-4.9-1.6-6.4-3.8c-0.8-1.1-1.3-2.2-1.7-3.5l20-65l70.9-1.3C345.5,618,347.8,617.9,351.7,618z"/>
	<path id="Path_323_1_" class="st3" d="M423.3,642.1l-0.1,0.7l-45-20.4l-0.3-1.9C394.2,623.5,412.9,629.5,423.3,642.1z"/>
	<path id="Path_324_1_" class="st8" d="M424,629.9l-1.8,10.9l-45-20.4l-0.3-1.9c0,0-12-11.5-10.7-22.2l-38.3,48.6
		c0,0-31.7,39.6-58,44.3c-2.7,0.5-5.4,0.6-8,0.3c-27.4-3.7,14.8-94.5,14.8-94.5l11-6.3l90.8-51.6c0,0,29.3-9.7,33.6,27.8
		c4.3,37.4,5,51.1,5,51.1L424,629.9z"/>
	<path id="Path_325_1_" class="st3" d="M391.1,582.1c-1.8,1.5-2.2,4.1-3.2,6.2c-1.7,3.2-4.5,5.6-7.8,7c-3.3,1.3-6.8,2.3-10.3,2.9"/>
	<path id="Path_326_1_" class="st12" d="M168,450.4c0,0-44.9,70.6-29.3,116.9c0,0,16.1,16,31.4-12.8
		C185.4,525.8,168,450.4,168,450.4z"/>
	<path id="Path_327_1_" class="st3" d="M168,449.4c0,0-44.9,70.6-29.3,116.9c0,0,16.1,16,31.4-12.8C185.4,524.8,168,449.4,168,449.4
		z"/>
	<circle id="Ellipse_18-2_1_" class="st10" cx="258.8" cy="378.2" r="41.1"/>
	<path id="Path_328_1_" class="st10" d="M269,409.1c-6.3,2.6-18.8,12.9-28,20.9l-0.3,0.2c-3.4,2.9-6.3,5.5-8.3,7.3l-0.4,0.4
		l-0.6,0.5l-1.8,1.6l-21.3-3.3c0,0-23.3-8.7-11.3-17.3c3.2-2.5,6-5.4,8.5-8.6l1.3-1.6l0,0c7.2-9.8,13.8-20.1,19.5-30.9
		C226.4,378.2,279.6,404.7,269,409.1z"/>
	<path id="Path_329_1_" class="st3" d="M269.8,689.2c-2.7,0.5-5.4,0.6-8,0.3c-27.4-3.7,14.8-94.5,14.8-94.5l11-6.3l0.3,4
		c0,0-1.4,25.3,0,51.9C288.8,661.4,277.9,678.7,269.8,689.2z"/>
	<path id="Path_330_1_" class="st12" d="M261.2,694.9c-2.3,2.7-5.9,4-9.3,3.3c-61.3-11.1-73.9-44.2-76.5-54.7
		c-0.7-2.8-1.6-5.6-2.8-8.3l-1.8-4c-1.7-3.9-3-8.1-3.6-12.4l-1.5-10.5c-0.4-2.5-1.1-4.9-2.3-7.1l-2.9-5.6c-3.1-6-4.8-12.5-5-19.3
		c-0.6-24.2-1.8-84.9,0.3-108.9c2.5-28.9,44.8-59.8,50.5-58.8c0.2,0,0.4,0.1,0.5,0.3l0,0c2.3,4.1,10.8,8.6,10.8,8.6
		c2.1,0,4.2,0.6,6,1.7c1.3,0.6,2.7,1.3,4.1,2.1c6.4,3.6,13.1,8.4,13.1,8.4l-0.3,0.2l-8.3,7.3l-0.4,0.3l1.5,2.2l8.9,13.2
		c9.6,11.7,15.4,26.1,16.4,41.3l10.9,26.1c7,16.9,11.4,34.8,12.8,53l1.5,19.1c0,0-1.4,25.3,0,51.9
		C285,664.9,268.8,686.1,261.2,694.9z"/>
	<path id="Path_331_1_" class="st3" d="M212.9,563.2c1.5,0.7,3.1,1.1,4.8,1.1c3.5,0,16.6-9.6,12.6-11.4c-2-0.8-5.7,2.3-7.1,3.4
		C221.7,557.6,214.9,564.1,212.9,563.2z"/>
	<path id="Path_332_1_" class="st3" d="M226.7,565.8c-1.2,0.7-2.5,1.9-2,3.2c0.3,0.6,0.9,1.1,1.5,1.4c1.2,0.8,2.1,2,2.6,3.4
		c0.2,0.4,0.3,0.8,0.4,1.3c0.3,1.3,0.3,2.8,1.3,3.6c0.4-3.6,0.4-7.2-0.1-10.8C230,564.8,229.7,564,226.7,565.8z"/>
	<path id="Path_333_1_" class="st3" d="M240.5,579.7l-0.5,8.9c0,2-0.3,3.9-0.8,5.8c-1.1,2.6-2.5,5.1-4.3,7.3
		c-0.4,0.5-0.7,1.1-0.8,1.8c0,0.8,0.4,1.5,1.1,1.9c2,1.1,4.6,0.6,6-1.2c1.3-1.8,2.2-4,2.5-6.2l1.3-5.8c0.4-2.6,1.4-5.1,2.9-7.2
		c2.3-2.7,6.6-4.1,7-7.6c0.4-3.2-2.8-5.5-5.6-7.2c-3.6-2.1-5.2-3.9-7.3,0.5C241.1,573.6,240.5,576.6,240.5,579.7z"/>
	<path id="Path_334_1_" class="st3" d="M192.7,514.8c0,0,5,9,24,29.9c19,21,44.6,58.2,72.2,42.6c27.6-15.6,34.9-38.9,34.9-38.9
		l6.7-35.6c0,0,0.7-35.3-24-14.6c-5,6.5-8.4,14-10,22c-2.7,13.3-11,11.6-11,11.6s-6.6-13.4-14.3-17.3c0,0-5.1-17-13.5-18
		c-2.4-0.3-5.8-4.1-9.5-9.3c-19.8-28.4-64.6-8.2-56.2,25.4C192.2,513.3,192.5,514.1,192.7,514.8z"/>
	<path id="Path_335_1_" class="st3" d="M330.4,495.4l-3.7,4.8l-17.6-1l1.5-6.6C322.5,483.5,328,488.6,330.4,495.4z"/>
	<path id="Path_336_1_" class="st12" d="M193.7,512.8c0,0,5,9,24,29.9s44.6,58.2,72.2,42.6c27.6-15.6,34.9-38.9,34.9-38.9l6.7-35.6
		c0,0,0.7-35.3-24-14.6c-5,6.5-8.4,14-10,22c-2.7,13.3-11,11.6-11,11.6s-6.6-13.4-14.3-17.3c0,0-5.1-17-13.5-18
		c-2.4-0.3-5.8-4.1-9.5-9.3c-19.8-28.4-64.6-8.2-56.2,25.4C193.2,511.3,193.5,512.1,193.7,512.8z"/>
	<path id="Path_337_1_" class="st3" d="M253.7,666.6l-20.2,2.3c-5.5,0.8-11.2,1.1-16.8,0.8c-5.6-0.3-11.1-2.2-15.6-5.5"/>
	<path id="Path_338_1_" class="st3" d="M252,671.8c-8.8,4.4-18.9,5.9-28.6,4.3"/>
	<path id="Path_339_1_" class="st3" d="M246.3,682.3l-15.6,0.7c-3.2,0.4-6.4,0-9.3-1.3"/>
	<path id="Path_340_1_" class="st3" d="M210.2,397.2c1.1-2.2,2.9-4,5.2-5.1C213.7,393.8,212,395.5,210.2,397.2z"/>
	<path id="Path_341_1_" class="st3" d="M269,409.1c-6.3,2.6-18.8,12.9-28,20.9l-0.3,0.2l-8.3,7.3l-0.4,0.3l1.5,2.2
		c-0.7-0.5-1.4-1.1-2-1.7c-1.2-1.2-2.2-2.5-3-4c-2-4-2.3-8.7-0.6-12.8c0.7-1.9,1.8-3.6,3.2-5c-2.2,1.4-4.7,2.4-7.3,2.8
		c-1.9,0.3-3.9,0.4-5.8,0.3c-5.4-0.6-10.6-1.9-15.6-3.9c1.4-1.5,2.5-3.2,3.3-5.1c0.3-0.6,0.5-1.3,0.7-1.9c0.2,0,0.4,0.1,0.5,0.3
		c7.2-9.8,13.8-20.1,19.5-30.9C226.4,378.2,279.6,404.7,269,409.1z"/>
	<path id="Path_342_1_" class="st14" d="M300.9,432.6c-2.6,7.8-6.2,15.4-7.8,23.4c-0.7,3.9-1.2,8.3-4.4,10.8c-2.7,2-6.4,1.8-9.8,1.4
		c-2.3-0.2-4.6-0.9-6.7-2c-2.1-1.2-3.3-3.4-3.2-5.8c-6.3-0.5-12.3-3.1-17.1-7.2c-3.3-2.9-6-7.3-4.9-11.5c-7.5,0.8-14.7-2.8-18.6-9.3
		c-3-5.9-2-13,2.6-17.8c-3.9,2.4-8.5,3.5-13,3.1c-5.4-0.6-10.6-1.9-15.6-3.9c3.3-3.3,4.3-8.1,5.6-12.5c0.6-2.1,1.3-4.1,2.4-6
		c-3.7,3.7-7.7,7-12.1,9.8c-6.4,4.4-14.1,6.5-21.8,6.1c4-1.9,7.5-4.6,10.4-7.9c3.9-5.5,3.8-13.1,8.1-18.3c3.7-4.5,9.7-6.1,15-8.8
		c1.1-0.6,2.2-1.2,3.2-2c1.6-1.2,3.1-2.6,4.2-4.3c1.3-2,1.2-4.9,2.6-6.8c2.5-3.5,11.9-0.7,15.6-0.3c6.4,0.8,12.9,1.9,19.2,3.3
		c12.6,2.7,25,6.5,36.9,11.3c2.6,0.8,5,2.3,6.7,4.5c2.3,3.4,1.1,7.8,0.8,11.9c0,0.8,0,1.5,0,2.3c0.3,4.3,2.6,8.1,3.8,12.2
		C305.2,416.3,303.5,424.8,300.9,432.6z"/>
	<path id="Path_344_1_" d="M208.9,398.3c0-0.1,0.1-0.2,0.1-0.3c-0.4,1.1-0.8,2.2-1.1,3.3c-0.4,1.3-0.7,2.6-1.1,3.9
		C207.7,402.9,208.3,400.5,208.9,398.3z"/>
	<path id="Path_345_1_" d="M218.5,366.5c0.4-0.8,0.7-1.7,0.9-2.6C219,364.7,218.7,365.6,218.5,366.5z"/>
	<path id="Path_346_1_" d="M190.3,395.4c0.6-1.6,1.1-3.2,1.5-4.8C191.2,392.1,190.8,393.8,190.3,395.4z"/>
	<path id="Path_347_1_" d="M296,446c1.6-4.5,3.4-8.9,4.9-13.4c0.2-0.7,0.4-1.3,0.7-2C299.8,435.8,297.6,440.8,296,446z"/>
	<path id="Path_350_1_" class="st3" d="M299.1,393.9c-19.4,4.7-84.7-18.4-86.1-18.8v-0.8c1.6-1.2,3.1-2.6,4.2-4.3
		c1.3-2,1.2-4.9,2.6-6.8c2.5-3.5,11.9-0.7,15.6-0.3c6.4,0.8,12.9,1.9,19.2,3.3c12.6,2.7,25,6.5,36.9,11.3c2.6,0.8,5,2.3,6.7,4.5
		C300.5,385.4,299.3,389.7,299.1,393.9z"/>
	<path id="Path_351_1_" class="st15" d="M304,369.4l-2,21.3c-14.3,8.6-87.6-17.2-89.1-17.7c0.1-5.6,1-11.2,2.7-16.6
		c0.2-0.7,0.4-1.3,0.7-1.9c9.7-26.5,36.8-33.7,36.8-33.7h23.7c17.6,4.3,25.3,38.4,27,47.2C303.8,368.6,303.9,369.1,304,369.4z"/>
	<path id="Path_352_1_" class="st3" d="M304,368.4l-2,21.3c-14.3,8.6-87.6-17.2-89.1-17.7c0.1-5.6,1-11.2,2.7-16.6
		c0.2-0.7,0.4-1.3,0.7-1.9c1.6,0.1,3.2,0.3,4.5,0.4c4.4,0,8.8,0.4,13.1,1.3c3.2,0.9,6.3,2,9.4,3.2c6,2.3,12.2,3.7,18.6,4.2
		c2.3,0,4.6,0.2,6.9,0.6c2.2,0.6,4.3,1.3,6.3,2.3c8.1,3.4,17.2,5.5,25.5,2.8c1.1-0.4,2.1-0.8,3.1-1.2
		C303.8,367.6,303.9,368.1,304,368.4z"/>
	<path id="Path_353_1_" class="st15" d="M304.1,368.2l-2.1,22.6c-14.5,8.7-89.1-17.7-89.1-17.7c-0.1-6.3,0.8-12.6,2.7-18.6
		c1.8,0.1,3.7,0.4,5.2,0.4c4.4-0.1,8.8,0.4,13.1,1.2c3.2,0.9,6.3,2,9.4,3.2c6,2.3,12.2,3.7,18.6,4.2c2.3,0,4.6,0.2,6.9,0.6
		c2.2,0.6,4.3,1.3,6.3,2.3c8.1,3.4,17.2,5.5,25.5,2.8c1.2-0.4,2.3-0.9,3.5-1.3L304.1,368.2z"/>
	<path id="Path_354_1_" class="st13" d="M304.1,368.2l-2.1,22.6c-14.5,8.7-89.1-17.7-89.1-17.7c-0.1-6.3,0.8-12.6,2.7-18.6
		c1.8,0.1,3.7,0.4,5.2,0.4c4.4-0.1,8.8,0.4,13.1,1.2c3.2,0.9,6.3,2,9.4,3.2c6,2.3,12.2,3.7,18.6,4.2c2.3,0,4.6,0.2,6.9,0.6
		c2.2,0.6,4.3,1.3,6.3,2.3c8.1,3.4,17.2,5.5,25.5,2.8c1.2-0.4,2.3-0.9,3.5-1.3L304.1,368.2z"/>
	<path id="Path_355_1_" class="st3" d="M434.6,634.7c-1,2.3-1.4,4.8-1.1,7.2c-0.1,2.5-0.7,5.3-3,6.4"/>
	<ellipse id="Ellipse_19-2_1_" class="st16" cx="646.5" cy="730.5" rx="26.9" ry="4.5"/>
	<ellipse id="Ellipse_22-2_1_" class="st16" cx="76.2" cy="714.5" rx="26.9" ry="4.5"/>
	<ellipse id="Ellipse_23_1_" class="st17" cx="568.8" cy="654.2" rx="40.1" ry="6.8"/>
	<path id="Path_356_1_" class="st5" d="M472.7,142.5c-6.5,6.6-6.9,16.6-6.9,16.6s10.1-0.6,16.5-7.1c6.5-6.6,6.9-16.6,6.9-16.6
		S479.2,135.9,472.7,142.5z"/>
	<path id="Path_357_1_" class="st17" d="M644.3,568c6.6,2.1,13.6,2.3,20.3,0.5c-7.8-11.9-22.6-17.2-36.3-13.1
		C632.4,561.1,637.9,565.4,644.3,568z"/>
	<path id="Path_358_1_" class="st17" d="M594.1,579.9c-6.7,1.5-12.9,5-17.7,10c12.8,6.2,28.2,3.3,37.8-7.3
		C607.9,579.8,600.9,578.9,594.1,579.9z"/>
	<path id="Path_359_1_" class="st17" d="M617.9,521.5c-6.7,1.5-12.9,5-17.7,10c12.8,6.3,28.2,3.3,37.8-7.3
		C631.7,521.4,624.7,520.5,617.9,521.5z"/>
	<path id="Path_360_1_" class="st5" d="M391.7,286.7c-6.5,6.6-6.9,16.6-6.9,16.6s10.1-0.6,16.5-7.1s6.9-16.6,6.9-16.6
		S398.1,280.2,391.7,286.7z"/>
	<path id="Path_361_1_" class="st5" d="M339.7,222.9c-8.5,3.5-12.9,12.6-12.9,12.6s9.5,3.4,18-0.1s12.9-12.6,12.9-12.6
		S348.2,219.4,339.7,222.9z"/>
	<path id="Path_362_1_" class="st5" d="M792.4,304.7c1.5,4.7,4.5,8.8,8.6,11.6c5.1-9,2.2-20.4-6.6-25.8
		C792.1,294.8,791.4,299.8,792.4,304.7z"/>
	<path id="Path_363_1_" class="st5" d="M594.5,294.5c1.5,4.7,4.5,8.8,8.6,11.6c5.1-9,2.2-20.4-6.6-25.8
		C594.2,284.7,593.6,289.7,594.5,294.5z"/>
	<path id="Path_364_1_" class="st5" d="M668.9,106c1.3,4,3.9,7.6,7.4,10c4.4-7.7,1.9-17.6-5.7-22.2
		C668.7,97.6,668.1,101.9,668.9,106z"/>
	<path id="Path_365_1_" class="st5" d="M689.2,270.3c1.3,4,3.9,7.5,7.3,10c1.9-3.8,2.5-8.1,1.6-12.2c-1.3-4-3.9-7.5-7.3-10
		C689,261.9,688.4,266.2,689.2,270.3z"/>
	<path id="Path_366_1_" class="st5" d="M730,325.6c-1.8,4.6-2.1,9.6-0.7,14.4c9.7-3.7,14.7-14.4,11.3-24.2
		C736,317.8,732.3,321.3,730,325.6z"/>
	<path id="Path_367_1_" class="st5" d="M650.6,191.9c-1.6,3.9-1.8,8.3-0.6,12.3c8.3-3.2,12.6-12.4,9.7-20.8
		C655.8,185.2,652.6,188.2,650.6,191.9z"/>
	<path id="Path_368_1_" class="st5" d="M489.5,228.6c-0.7,9.2,5.4,17.2,5.4,17.2s7.3-6.9,8.1-16.1c0.8-9.2-5.4-17.2-5.4-17.2
		S490.3,219.4,489.5,228.6z"/>
	<path id="Path_369_1_" class="st5" d="M314.4,151.3c5.6,7.3,15.5,9.2,15.5,9.2s0.9-10-4.7-17.4c-5.6-7.3-15.5-9.2-15.5-9.2
		S308.8,144,314.4,151.3z"/>
	<path id="Path_370_1_" class="st17" d="M585.4,643.1c1.8-1.5,3.2-3.5,3.8-5.8c0.6-2.3-0.5-4.8-2.7-5.9c-2.5-0.9-5.1,0.8-7.1,2.5
		c-2,1.7-4.3,3.7-6.9,3.3c2.7-2.5,4-6.2,3.2-9.8c-0.1-0.7-0.4-1.4-0.9-2c-1.4-1.5-3.8-0.8-5.5,0.3c-5.2,3.7-6.6,10.7-6.7,17
		c-0.3-2.3-0.3-4.7-0.1-7c0.2-2.4-0.8-4.7-2.6-6.2c-1.2-0.7-2.6-1-4-0.9c-2.3-0.3-4.7,0.3-6.5,1.9c-1.8,2.4-1.7,5.7,0.3,8
		c1.9,2.2,4.2,4,6.7,5.4c1.9,1.2,3.6,2.7,4.8,4.6c0.1,0.3,0.3,0.5,0.4,0.8h14.6C579.6,647.7,582.7,645.6,585.4,643.1L585.4,643.1z"
		/>
	<path id="Path_371_1_" class="st5" d="M920.4,177.9c46.5-1.8,82.7-40.9,81-87.4c-1.7-45.3-38.9-81.1-84.2-81h-1.4
		c-25.5-13.3-56.1-12.6-81,1.8C794.4-12,742.9,1.9,719.7,42.1c-16.9,29.4-14.6,66,5.8,93c-23.6,40.1-10.3,91.8,29.8,115.4
		c21.9,12.9,48.3,15.2,72.1,6.4c16.6,20.8,35.5,46.6,31.8,55.8c-4.7,11.5-1.9,128.5-0.6,175.4c0,0.8,0.1,1.6,0.2,2.4
		c-31.1,1.7-53.6,6.6-53.6,12.4c0,7.2,34.6,13.1,77.3,13.1c42.7,0,77.3-5.8,77.3-13.1c0-2.7-5-5.3-13.4-7.4c2.3-1.4,4.4-2.9,6.3-4.7
		c1.8-1.5,3.2-3.5,3.8-5.8c0.6-2.3-0.5-4.8-2.7-5.9c-2.5-0.9-5.1,0.8-7.1,2.5s-4.3,3.7-6.9,3.3c2.7-2.5,4-6.2,3.2-9.8
		c-0.1-0.7-0.4-1.4-0.9-2c-1.4-1.5-3.8-0.8-5.5,0.3c-5.2,3.6-6.6,10.7-6.7,17c-0.3-2.3-0.3-4.7-0.1-7c0.2-2.4-0.8-4.7-2.6-6.2
		c-1.2-0.7-2.6-1-4-0.9c-2.3-0.3-4.7,0.3-6.5,1.9c-1.8,2.4-1.7,5.7,0.3,8c1.9,2.2,4.2,4,6.8,5.4l0.4,0.3c-7.8-0.8-16.6-1.5-26-1.8
		c0.1-0.7,0.2-1.5,0.2-2.3c0.8-45.4,3.1-155.4,6.1-168.5c3.8-16.5,0-117.1,0-117.1s-0.4-11.2,0.1-25.3
		C909.9,177.8,915.1,178.1,920.4,177.9L920.4,177.9z M850.2,244.2c2.3-1.8,4.6-3.8,6.7-5.8l2.4,15.9L850.2,244.2z"/>
	<path id="Path_372_1_" class="st18" d="M55.7,608.4c0,0-14-47.6,2.6-82.7c7.1-14.7,9.2-31.2,6.1-47.2c-1.6-7.6-3.8-15-6.7-22.1"/>
	<path id="Path_373_1_" class="st17" d="M68,434.3c0,5.8-10.6,22.8-10.6,22.8s-10.6-16.9-10.6-22.8c0-5.8,4.7-10.6,10.6-10.6
		C63.3,423.7,68,428.4,68,434.3z"/>
	<path id="Path_374_1_" class="st17" d="M85.5,466.6c-3.2,4.9-21.2,13.4-21.2,13.4s0.3-20,3.5-24.8c3.2-4.9,9.7-6.3,14.6-3.1
		S88.7,461.7,85.5,466.6L85.5,466.6L85.5,466.6z"/>
	<path id="Path_375_1_" class="st17" d="M84.8,521.9c-5.2,2.6-25.1,0.8-25.1,0.8S70,505.6,75.2,503c5.2-2.6,11.6-0.5,14.2,4.7
		C92,512.9,89.9,519.2,84.8,521.9z"/>
	<path id="Path_376_1_" class="st17" d="M74.8,563.5c-4.7,3.5-24.6,5-24.6,5s7.3-18.6,12-22c4.5-3.7,11.2-3,14.9,1.5
		c3.7,4.5,3,11.2-1.5,14.9C75.3,563,75,563.2,74.8,563.5L74.8,563.5z"/>
	<path id="Path_377_1_" class="st17" d="M42.1,481.1c4.2,4.1,23.7,8.3,23.7,8.3s-4.8-19.4-9-23.4c-4.1-4.2-10.8-4.3-14.9-0.2
		c-4.2,4.1-4.3,10.8-0.2,14.9C41.8,480.8,41.9,481,42.1,481.1L42.1,481.1z"/>
	<path id="Path_378_1_" class="st17" d="M31,530c5.2,2.6,25.1,0.8,25.1,0.8s-10.4-17.1-15.6-19.7c-5.2-2.6-11.6-0.5-14.2,4.7
		C23.7,521,25.8,527.3,31,530L31,530z"/>
	<path id="Path_379_1_" class="st17" d="M26.8,578.9c4.7,3.5,24.6,5,24.6,5s-7.3-18.6-12-22c-4.5-3.7-11.2-3-14.9,1.5
		c-3.7,4.5-3,11.2,1.5,14.9C26.3,578.5,26.5,578.7,26.8,578.9L26.8,578.9z"/>
	<path id="Path_380_1_" class="st19" d="M22.6,605.4c0,0,17.1-3.4,21.6-7.9c4.6-4.5,25-12.4,27.3-6.7c2.3,5.7,30.7,24.9,11.4,28.3
		c-19.4,3.4-45.5,4.5-51.2,2.3S22.6,605.4,22.6,605.4z"/>
	<path id="Path_381_1_" class="st20" d="M82.9,616.9c-19.4,3.4-45.5,4.5-51.2,2.3c-4.3-1.7-7.3-10-8.5-13.8l-0.6,0.1
		c0,0,3.4,13.6,9.1,15.8c5.7,2.3,31.9,1.1,51.2-2.3c5.6-1,7.2-3.3,6.6-6.2C89,614.7,87,616.2,82.9,616.9z"/>
	<path id="Path_382_1_" class="st17" d="M825.9,562.4c0,0,5.5,7.2-2.5,18c-8,10.8-14.6,20-12,26.7c0,0,12.1-20.1,22-20.4
		C843.2,586.4,836.7,574.5,825.9,562.4z"/>
	<path id="Path_383_1_" class="st3" d="M825.9,562.4c0.5,0.7,0.9,1.5,1.1,2.3c9.6,11.3,14.7,21.8,5.5,22.1
		c-8.6,0.3-19,15.6-21.4,19.5c0.1,0.3,0.2,0.6,0.3,0.9c0,0,12.1-20.1,22-20.4C843.2,586.4,836.7,574.5,825.9,562.4z"/>
	<path id="Path_384_1_" class="st21" d="M836.1,571.5c0,2.5-0.3,4.6-0.6,4.6c-0.3,0-0.6-2-0.6-4.6c0-2.5,0.4-1.3,0.7-1.3
		S836.1,569,836.1,571.5z"/>
	<path id="Path_385_1_" class="st21" d="M839.5,574.6c-2.2,1.2-4.1,1.9-4.3,1.6s1.5-1.5,3.7-2.7c2.2-1.2,1.3-0.3,1.5,0
		C840.6,573.8,841.8,573.3,839.5,574.6z"/>
	<path id="Path_386_1_" class="st17" d="M796.9,562.4c0,0-5.5,7.2,2.5,18c8,10.8,14.6,20,12,26.7c0,0-12.1-20.1-22-20.4
		C779.6,586.4,786.1,574.5,796.9,562.4z"/>
	<path id="Path_387_1_" class="st3" d="M796.9,562.4c-0.5,0.7-0.9,1.5-1.1,2.3c-9.6,11.3-14.7,21.8-5.5,22.1
		c8.6,0.3,18.9,15.6,21.4,19.5c-0.1,0.3-0.2,0.6-0.3,0.9c0,0-12.1-20.1-22-20.4C779.6,586.4,786.1,574.5,796.9,562.4z"/>
	<path id="Path_388_1_" class="st21" d="M786.7,571.5c0,2.5,0.3,4.6,0.6,4.6c0.3,0,0.6-2,0.6-4.6c0-2.5-0.4-1.3-0.7-1.3
		C786.9,570.2,786.7,569,786.7,571.5z"/>
	<path id="Path_389_1_" class="st21" d="M783.2,574.6c2.2,1.2,4.2,1.9,4.3,1.6s-1.5-1.5-3.7-2.7c-2.2-1.2-1.3-0.3-1.5,0
		C782.1,573.8,781,573.3,783.2,574.6z"/>
	<path id="Path_390_1_" class="st19" d="M788.5,606.2c0,0,15.3-0.5,20-3.8c4.6-3.3,23.6-7.2,24.7-1.9c1.2,5.3,23,26.2,5.7,26.4
		c-17.3,0.1-40.2-2.7-44.8-5.5S788.5,606.2,788.5,606.2z"/>
	<path id="Path_391_1_" class="st20" d="M839.2,625c-17.3,0.1-40.2-2.7-44.8-5.5c-3.5-2.1-4.9-9.8-5.4-13.3h-0.5
		c0,0,1,12.4,5.6,15.2c4.6,2.8,27.5,5.6,44.8,5.5c5,0,6.7-1.8,6.6-4.4C844.8,624,842.9,625,839.2,625z"/>
</g>
</svg>
