<?xml version="1.0" encoding="utf-8"?>
<!-- Generator: Adobe Illustrator 23.0.0, SVG Export Plug-In . SVG Version: 6.00 Build 0)  -->
<svg version="1.1" id="a50fd755-b70f-4e5f-b336-9e50a578b62c"
	 xmlns="http://www.w3.org/2000/svg" xmlns:xlink="http://www.w3.org/1999/xlink" x="0px" y="0px" viewBox="0 0 1128.3 786.8"
	 style="enable-background:new 0 0 1128.3 786.8;" xml:space="preserve">
<style type="text/css">
	.st0{fill:#EDFFDB;}
	.st1{fill:#3F5D45;}
	.st2{fill:#3F3D56;}
	.st3{opacity:0.1;enable-background:new    ;}
	.st4{fill:#FFFFFF;}
	.st5{fill:#275934;}
	.st6{fill:#D9FFB3;}
	.st7{fill:url(#Path_91_2_);}
	.st8{fill:#A1616A;}
	.st9{opacity:0.15;enable-background:new    ;}
	.st10{fill:#FBBEBE;}
	.st11{opacity:0.1;}
	.st12{fill:#78BF45;}
</style>
<title>booking</title>
<g>
	<path id="Path_37_1_" class="st0" d="M655.5,124.5c-72.3-2.5-141.2-25.9-206.9-51.4s-131-53.9-201.4-67.4
		C201.8-3,149.9-4.2,113.4,20.1C78.2,43.5,66.8,83.9,60.7,121.5c-4.6,28.2-7.3,57.9,5.3,84.4c8.8,18.3,24.3,33.8,35,51.3
		c37.4,61.1,11,136.5-29.6,196.2c-19,28-41.1,54.7-55.7,84.5c-14.7,29.8-21.4,64-8.5,94.4c12.7,30.1,43,52.8,75.9,68.7
		c66.6,32.3,145.2,41.5,221.8,46.8c169.6,11.6,340.1,6.6,510.2,1.5c62.9-1.9,126.2-3.8,188-13.5c34.4-5.4,69.9-14,94.9-34.7
		c31.7-26.3,39.6-70.8,18.3-103.8c-35.6-55.3-134.1-69-159-128.4c-13.7-32.7,0.4-69,20.3-99.3c42.7-65,114.3-122,118.1-196.2
		c2.6-51-31.8-102.1-85.1-126.3c-55.9-25.2-133.3-22-174.5,19.9C793.8,110.1,719.3,126.7,655.5,124.5z"/>
	<path id="Path_38_1_" class="st1" d="M902.3,681.7c-4.1-1.3-8.4-1.8-12.6-1.3c-2.2,0.3-3.8,2.4-3.5,4.6c0.3,2.1,2.1,3.6,4.3,3.5
		c2.6-0.2,5.2-0.7,7.7-1.4L902.3,681.7z"/>
	<path id="Path_39_1_" class="st1" d="M903.9,681.8c1.9,3.8,2.9,8,3.1,12.3c0,2.2-1.7,4.1-4,4.1c-2.1,0-3.9-1.6-4.1-3.7
		c-0.1-2.6,0-5.2,0.3-7.8L903.9,681.8z"/>
	<path id="Path_40_1_" class="st1" d="M915.7,664.9c0,0-2.5-7.9-18-4.9c-3.4,0.7-5.7,4-5,7.5c0.5,2.6,2.6,4.6,5.2,5h0.3
		C908.4,674,911.9,669.9,915.7,664.9z"/>
	<path id="Path_41_1_" class="st1" d="M917.3,664.5c0,0,8.3,0.7,8.8,16.4c0.1,3.5-2.6,6.5-6.1,6.6c-2.6,0.1-5.1-1.4-6.1-3.9
		c0-0.1-0.1-0.2-0.1-0.3C910.1,673.6,913.3,669.3,917.3,664.5z"/>
	<path id="Path_42_1_" class="st1" d="M928.4,644.2c-1.2-5.9-5.5-10.6-11.2-12.5c-10.5-3.3-16,12.4-5.8,16.3
		c4.2,1.5,8.7,2.2,13.2,1.9L928.4,644.2z"/>
	<path id="Path_43_1_" class="st1" d="M941.1,618c-2.9-6.2-8.5-10.6-15.2-12c-11.6-2.1-15.2,15.3-3.7,18.1
		c5.2,1.1,10.5,1.2,15.7,0.1L941.1,618z"/>
	<path id="Path_44_1_" class="st1" d="M948.9,592.3c-3.6-5.7-9.4-9.7-16-11c-10-1.9-13.4,13.1-3.5,15.7c6.2,1.5,12.6,1.4,18.7-0.3
		L948.9,592.3z"/>
	<path id="Path_45_1_" class="st1" d="M956.1,567.2c-3.2-5.3-8.2-9.2-14-11.1c-10-3.1-14.9,12.1-5,15.4c5.9,2,12.2,1.9,18.1-0.1
		L956.1,567.2z"/>
	<path id="Path_46_1_" class="st1" d="M959.2,544.3c-2.7-5.8-6.9-10.8-12.2-14.3c-9.1-5.5-17.7,8-9,14.1c5.8,4.4,13.2,6.1,20.3,4.6
		L959.2,544.3z"/>
	<path id="Path_47_1_" class="st1" d="M960.7,517.3c-2.9-5.8-7.3-10.7-12.9-14c-9.5-5-17.7,8.8-8.8,14.8c5.8,3.9,13.1,6.4,20.8,3.4
		L960.7,517.3z"/>
	<path id="Path_48_1_" class="st1" d="M959.8,492.5c-3.3-5.1-7.3-9.7-12-13.7c-6.6-5.4-15,4.3-8.7,10.1c5.8,5.3,13,9.8,20.5,9.4
		L959.8,492.5z"/>
	<path id="Path_49_1_" class="st1" d="M957.2,468.8c-3.8-6.4-8.3-12.3-13.6-17.5c-5.2-5-12.8,2.6-8,7.9c6,6.8,13.6,12,22.2,14.9
		L957.2,468.8z"/>
	<path id="Path_50_1_" class="st1" d="M952.4,440.9c-3.1-4.8-6.7-9.3-10.8-13.4c-5.2-5.1-13.1,2.6-8.1,7.9
		c5.4,6.1,12.4,10.6,20.3,12.7L952.4,440.9z"/>
	<path id="Path_51_1_" class="st1" d="M948.2,414.8c-3.2-4.3-6.7-8.5-10.4-12.4c-1.8-1.9-4.8-1.9-6.6-0.1c-1.8,1.7-1.9,4.5-0.3,6.4
		c4.6,5.3,10.6,10.1,17.4,10.8L948.2,414.8z"/>
	<path id="Path_52_1_" class="st1" d="M943.8,390.7c-2.9-5.7-6.3-11.2-10-16.5c-1.3-1.8-3.9-2.3-5.7-1c-1.8,1.3-2.3,3.9-1,5.7l0,0
		c3.8,6.3,9.5,11.2,16.3,14.2L943.8,390.7z"/>
	<path id="Path_53_1_" class="st1" d="M940.1,358.5c0,0-2.5-4.2-6-9.1c-1.3-2-4-2.5-5.9-1.1c-2,1.3-2.5,4-1.1,5.9
		c3.4,5.2,7.7,9.6,12.6,10.5L940.1,358.5z"/>
	<path id="Path_54_1_" class="st1" d="M938.4,337.3l-3.1-15.6c-0.4-1.8-2.1-2.9-3.9-2.5c-1.6,0.3-2.8,1.9-2.6,3.5
		c1.1,8.4,4,16.8,10.3,22.3L938.4,337.3z"/>
	<path id="Path_55_1_" class="st1" d="M940.3,292.8L940.3,292.8c-0.6-1.5-2.4-2.3-3.9-1.6c0,0-0.1,0-0.1,0c-1.3,0.5-2.1,1.9-1.8,3.3
		c0.7,4.3,1.8,8.6,3.2,12.8L940.3,292.8z"/>
	<path id="Path_56_1_" class="st1" d="M929.1,643.9c5.7-1.9,12-0.5,16.4,3.5c8,7.5-2.8,20-11.3,13.1c-3.4-2.9-6.2-6.5-8.2-10.5
		L929.1,643.9z"/>
	<path id="Path_57_1_" class="st1" d="M941.9,617.1c6.7-1.3,13.6,0.6,18.7,5.1c8.6,8.1-3.3,21.3-12.4,13.7c-4-3.5-7.2-7.7-9.4-12.5
		L941.9,617.1z"/>
	<path id="Path_58_1_" class="st1" d="M949.5,594c5.5-3.9,12.4-5.5,19-4.2c10,2,7.5,17.1-2.6,15.8c-6.3-0.9-12.3-3.4-17.3-7.3
		L949.5,594z"/>
	<path id="Path_59_1_" class="st1" d="M956.6,567.3c4.9-3.7,11-5.5,17.1-5.1c10.5,0.9,9.3,16.8-1.1,16.1c-6.2-0.4-12.1-2.8-16.8-6.8
		L956.6,567.3z"/>
	<path id="Path_60_1_" class="st1" d="M959.1,545c3.6-5.3,8.6-9.5,14.4-12.1c9.8-3.9,16.1,10.8,6.6,15.4c-6.5,3.4-14.1,3.8-20.9,1.2
		L959.1,545z"/>
	<path id="Path_61_1_" class="st1" d="M959.4,516.9c3.6-5.4,8.7-9.6,14.6-12.2c10-3.8,16.4,11.1,6.8,15.8
		c-6.3,3.1-13.8,4.6-21.1,0.6L959.4,516.9z"/>
	<path id="Path_62_1_" class="st1" d="M957.5,492.3c2.1-5.7,5.1-11.1,8.8-15.9c5.3-6.7,15.6,1,10.7,8c-4.5,6.4-10.6,12.3-18,13.6
		L957.5,492.3z"/>
	<path id="Path_63_1_" class="st1" d="M956.8,468.7c1.9-7.2,4.6-14.1,8.1-20.7c1.6-2.7,5-3.6,7.7-2c2.6,1.5,3.5,4.8,2.1,7.4
		c-3.8,8.2-9.7,15.3-17.1,20.5L956.8,468.7z"/>
	<path id="Path_64_1_" class="st1" d="M951,439.6c2.2-5.6,5-10.8,8.3-15.8c1.7-2.6,5.2-3.3,7.8-1.6c2.6,1.7,3.3,5.1,1.7,7.7
		c-4.1,6.8-9.9,13.6-17.6,17L951,439.6z"/>
	<path id="Path_65_1_" class="st1" d="M946.3,414.7c1.1-5.3,2.6-10.5,4.3-15.6c0.9-2.4,3.5-3.7,6-2.8c2.3,0.8,3.6,3.3,2.9,5.6
		c-2,6.8-5.4,13.5-11.3,17.1L946.3,414.7z"/>
	<path id="Path_66_1_" class="st1" d="M943.1,390.2c1.5-6.3,3.5-12.4,6-18.3c0.9-2.1,3.3-3,5.4-2.1c2,0.9,2.9,3.1,2.2,5.1
		c-2.3,7-6.7,13.1-12.6,17.6L943.1,390.2z"/>
	<path id="Path_67_1_" class="st1" d="M938.3,360.7c0.7-3.5,1.6-7,2.7-10.5c0.7-2.3,3.1-3.6,5.3-2.9c2.2,0.6,3.5,2.9,3,5.1
		c-1.5,6-4,11.6-8.4,14.1L938.3,360.7z"/>
	<path id="Path_68_1_" class="st1" d="M939.4,336.2l5.4-15c0.6-1.7,2.5-2.6,4.2-2c1.6,0.6,2.5,2.3,2.1,4c-2.3,8.1-6.4,16-13.5,20.5
		L939.4,336.2z"/>
	<path id="Path_69_1_" class="st1" d="M946.2,294.4c0,0,0.8-0.7,2.2-1.8c1.1-0.9,2.8-0.8,3.8,0.4c0.9,1.1,0.8,2.7-0.2,3.6
		c-4.4,3.9-9.4,7.1-14.8,9.4L946.2,294.4z"/>
	<path id="Path_70_1_" class="st1" d="M945.9,285.7c3.3-6.6,6.9-13.1,10.8-19.3c0.5-1,0.1-2.2-0.8-2.7c-0.8-0.4-1.8-0.3-2.4,0.4
		c-4.1,6.1-7.1,13-8.7,20.2L945.9,285.7z"/>
	<path id="Path_71_1_" class="st1" d="M939.7,365.1l1.2-0.1c-5-46.6-2.9-75.4,5.8-80.9l-0.6-1C936.8,289,934.6,317.3,939.7,365.1z"
		/>
	<path id="Path_72_1_" class="st1" d="M956.9,475.3l1.7-0.3c-0.7-4.3-1.4-8.7-2.2-13c-7.3-37.8-12.9-72.8-15.8-99.4l-1.3-1
		c2.8,26.6,8,62.8,15.3,100.7C955.5,466.6,956.2,471,956.9,475.3z"/>
	<path id="Path_73_1_" class="st1" d="M876,710.8c0.3-0.2,26.9-20.6,50.3-59.7c13.7-22.9,23.7-47.8,29.6-73.8
		c7.4-32.5,7.6-70.4,2.3-105.8l-1.6,1.3c12,79.6-10.9,141.4-32.3,177c-23.2,38.7-49.5,58.9-49.8,59.1L876,710.8z"/>
	<ellipse id="Ellipse_23-2_1_" class="st1" cx="193.9" cy="697.8" rx="66.6" ry="12.8"/>
	<ellipse id="Ellipse_24_1_" class="st2" cx="192.8" cy="692.3" rx="7.8" ry="10.1"/>
	<ellipse id="Ellipse_25_1_" class="st2" cx="192.8" cy="679.9" rx="7.8" ry="10.1"/>
	<ellipse id="Ellipse_26_1_" class="st2" cx="192.8" cy="667.5" rx="7.8" ry="10.1"/>
	<ellipse id="Ellipse_27_1_" class="st2" cx="192.8" cy="655.1" rx="7.8" ry="10.1"/>
	<ellipse id="Ellipse_28_1_" class="st2" cx="192.8" cy="642.7" rx="7.8" ry="10.1"/>
	<ellipse id="Ellipse_29_1_" class="st2" cx="192.8" cy="630.3" rx="7.8" ry="10.1"/>
	<ellipse id="Ellipse_30_1_" class="st2" cx="192.8" cy="618" rx="7.8" ry="10.1"/>
	<path id="Path_74_1_" class="st1" d="M221.8,533.2c1.1-1.4,2-2.8,2.9-4.3l-20.4-3.3l22,0.2c4.3-9.3,4.5-19.9,0.7-29.4l-29.5,15.3
		l27.2-20c-10.1-17.8-32.7-24.1-50.6-14c-17.8,10.1-24.1,32.7-14,50.6c0.1,0.2,0.2,0.3,0.3,0.5c0.9,1.6,1.9,3.1,3,4.5
		c-1.6,2.1-3.1,4.4-4.2,6.8l26.4,13.7l-28.2-9.5c-4,11.9-1.8,25,6,34.8c-12.7,16.1-9.9,39.4,6.2,52.1c16.1,12.7,39.4,9.9,52.1-6.2
		c10.6-13.5,10.6-32.4,0-45.9C232.4,565.6,232.5,546.6,221.8,533.2L221.8,533.2z"/>
	<path id="Path_75_1_" class="st3" d="M155.6,556.1c0,8.3,2.8,16.4,7.9,22.9c-12.7,16.1-9.9,39.4,6.2,52.1
		c16.1,12.7,39.4,9.9,52.1-6.2c10.6-13.5,10.6-32.4,0-45.9C226.8,572.7,155.6,552,155.6,556.1z"/>
	<path id="Path_76_1_" class="st4" d="M231.9,261.1v441.7c0,8.5,6.9,15.4,15.4,15.4H881c8.5,0,15.4-6.9,15.4-15.4V261.1H231.9z"/>
	<path id="Path_77_1_" class="st3" d="M293.1,300.7h141.6c4.7,0,8.6,3.8,8.6,8.6l0,0v76c0,4.7-3.8,8.6-8.6,8.6l0,0H293.1
		c-4.7,0-8.6-3.8-8.6-8.6l0,0v-76C284.5,304.6,288.4,300.7,293.1,300.7L293.1,300.7z"/>
	<path id="Path_78_1_" class="st3" d="M493.4,300.7h141.6c4.8,0,8.7,3.8,8.7,8.6v76c0,4.8-3.9,8.6-8.6,8.6c0,0,0,0-0.1,0H493.4
		c-4.7,0-8.6-3.8-8.6-8.6l0,0v-76C484.8,304.6,488.6,300.8,493.4,300.7z"/>
	<path id="Path_79_1_" class="st5" d="M295.3,302h137.1c4.7,0,8.6,3.8,8.6,8.6l0,0v73.3c0,4.7-3.8,8.6-8.6,8.6l0,0H295.3
		c-4.7,0-8.6-3.8-8.6-8.6l0,0v-73.3C286.8,305.9,290.6,302.1,295.3,302z"/>
	<path id="Path_80_1_" class="st6" d="M833,392.6H695.9c-4.8,0-8.7-3.8-8.7-8.6v-73.3c0-4.8,3.9-8.6,8.6-8.6c0,0,0,0,0.1,0H833
		c4.8,0,8.7,3.8,8.7,8.6V384C841.6,388.8,837.7,392.6,833,392.6z"/>
	<path id="Path_81_1_" class="st5" d="M632.7,392.6H495.7c-4.8,0-8.7-3.8-8.7-8.6v-73.3c0-4.8,3.9-8.6,8.6-8.6c0,0,0,0,0.1,0h137.1
		c4.8,0,8.7,3.8,8.7,8.6V384C641.4,388.8,637.5,392.6,632.7,392.6z"/>
	<path id="Path_82_1_" class="st6" d="M295.3,432.9h137.1c4.7,0,8.6,3.8,8.6,8.6l0,0v73.4c0,4.8-3.8,8.7-8.6,8.7H295.3
		c-4.8,0-8.6-3.9-8.6-8.6c0,0,0,0,0-0.1v-73.3C286.7,436.8,290.5,432.9,295.3,432.9z"/>
	<path id="Path_83_1_" class="st6" d="M833,523.6H695.9c-4.8,0-8.7-3.8-8.7-8.6v-73.3c0-4.8,3.9-8.7,8.7-8.7l0,0H833
		c4.8,0,8.7,3.9,8.7,8.7v0v73.2C841.6,519.6,837.8,523.5,833,523.6z"/>
	<path id="Path_84_1_" class="st6" d="M632.7,523.6H495.7c-4.8,0-8.7-3.8-8.7-8.6v-73.3c0-4.8,3.9-8.7,8.7-8.7h0h137.1
		c4.8,0,8.7,3.9,8.7,8.7v0v73.2C641.4,519.6,637.5,523.5,632.7,523.6z"/>
	<path id="Path_85_1_" class="st6" d="M295.3,563.8h137.1c4.8,0,8.6,3.9,8.6,8.6c0,0,0,0,0,0.1v73.3c0,4.8-3.8,8.7-8.6,8.7H295.3
		c-4.8,0-8.6-3.9-8.6-8.6c0,0,0,0,0-0.1v-73.3C286.7,567.8,290.5,563.9,295.3,563.8C295.3,563.8,295.3,563.8,295.3,563.8z"/>
	<path id="Path_86_1_" class="st6" d="M833,654.4H695.9c-4.8,0-8.7-3.9-8.7-8.7l0,0v-73.3c0-4.8,3.9-8.7,8.7-8.7l0,0H833
		c4.8,0,8.7,3.9,8.7,8.7l0,0v73.4C841.6,650.6,837.7,654.4,833,654.4z"/>
	<path id="Path_87_1_" class="st6" d="M632.7,654.4H495.7c-4.8,0-8.7-3.9-8.7-8.7l0,0v-73.3c0-4.8,3.9-8.7,8.7-8.7h0h137.1
		c4.8,0,8.7,3.9,8.7,8.7l0,0v73.4C641.3,650.6,637.5,654.4,632.7,654.4z"/>
	<path id="Path_88_1_" class="st5" d="M231.9,183.1v80.2h664.5v-80.2c0-8.5-6.9-15.4-15.4-15.4H247.3
		C238.8,167.8,231.9,174.6,231.9,183.1z M396.4,206.9c-6.8,0-12.3-5.5-12.3-12.3c0-6.8,5.5-12.3,12.3-12.3c6.8,0,12.3,5.5,12.3,12.3
		l0,0C408.7,201.4,403.2,206.9,396.4,206.9C396.4,206.9,396.4,206.9,396.4,206.9z M732,206.9c-6.8,0-12.3-5.5-12.3-12.3
		c0-6.8,5.5-12.3,12.3-12.3c6.8,0,12.3,5.5,12.3,12.3l0,0C744.3,201.4,738.8,206.9,732,206.9C732,206.9,732,206.9,732,206.9z"/>
	<path id="Path_89_1_" class="st3" d="M396.4,180c-8,0-14.6,6.5-14.6,14.5c0,8,6.5,14.6,14.5,14.6c8,0,14.6-6.5,14.6-14.5l0,0
		C410.9,186.6,404.4,180.1,396.4,180C396.4,180,396.4,180,396.4,180z M396.4,206.9c-6.8,0-12.3-5.5-12.3-12.3
		c0-6.8,5.5-12.3,12.3-12.3c6.8,0,12.3,5.5,12.3,12.3l0,0C408.7,201.4,403.2,206.9,396.4,206.9C396.4,206.9,396.4,206.9,396.4,206.9
		z"/>
	<path id="Path_90_1_" class="st3" d="M732,180c-8,0-14.6,6.5-14.6,14.5s6.5,14.6,14.5,14.6c8,0,14.6-6.5,14.6-14.5l0,0
		C746.5,186.6,740.1,180.1,732,180C732,180,732,180,732,180z M732,206.9c-6.8,0-12.3-5.5-12.3-12.3c0-6.8,5.5-12.3,12.3-12.3
		c6.8,0,12.3,5.5,12.3,12.3l0,0C744.3,201.4,738.8,206.9,732,206.9C732,206.9,732,206.9,732,206.9z"/>
	<circle id="Ellipse_31_1_" class="st0" cx="1032.8" cy="419.8" r="15.3"/>
	<circle id="Ellipse_32_1_" class="st0" cx="1087.4" cy="351.7" r="25.6"/>
	<circle id="Ellipse_33_1_" class="st0" cx="1053.5" cy="476" r="25.6"/>
	<circle id="Ellipse_34_1_" class="st0" cx="36.3" cy="345.5" r="36.3"/>
	
		<linearGradient id="Path_91_2_" gradientUnits="userSpaceOnUse" x1="184.3563" y1="1081.8794" x2="184.3563" y2="1079.528" gradientTransform="matrix(78.2127 0 0 -188.9177 -13581.0254 204328.0313)">
		<stop  offset="0" style="stop-color:#00800B;stop-opacity:0.251"/>
		<stop  offset="0.54" style="stop-color:#00800B;stop-opacity:0.122"/>
		<stop  offset="1" style="stop-color:#00800B;stop-opacity:0.102"/>
	</linearGradient>
	<path id="Path_91_1_" class="st7" d="M925.3,740.2c-2.3-1.7-4.8-3.1-7.4-4.2c-0.2-0.1-0.5-0.2-0.7-0.2c-5.5-3.9-10.6-8.3-15.3-13.2
		c1-0.8,1.9-1.6,2.9-2.3c-6-2.9-9.3-9.4-12.6-15.3c-8.6-15.7-19.8-29.7-33.3-41.5c-0.3-1.3-2.3-1-3.3-1.8c-0.7-0.6-1-1.6-0.7-2.5
		c0.2-0.9,0.6-1.8,0.8-2.7c0.3-2.2,0.3-4.4-0.2-6.5c-0.5-2.2,0-4.4,1.3-6.2c0.5-0.5,1-1,1.5-1.5c1-1.3,1.3-2.9,1-4.5
		c-0.1-1.5-0.4-3.1-1-4.5c4.9-13.3,9.8-26.7,14.7-40.1c3.4-9.3,6.9-18.9,7.2-28.8c0.5-8-1.9-15.9-6.6-22.4c0.9-0.2,1.7-0.4,2.6-0.7
		c-5.7-7.6-6.3-17.6-6.5-27.2c-0.1-4.8-0.2-9.5-0.5-14.3c1.7,0.7,3.4,1.4,5.1,1.9l1.6,0.5c2.6,0.8,5.2,1.3,7.9,1.7
		c1.2,0.2,2.4,0.3,3.6,0.4l0,0c-1.7-4.3-3.4-8.6-5.2-12.9c-0.9-1.9-1.4-4-1.6-6.1l0,0v-1.2c0.1-0.6,0.2-1.1,0.4-1.7
		c0.1-0.3,0.2-0.5,0.3-0.8c0.4-0.8,0.8-1.5,1.3-2.3c0.4-0.5,0.8-1.1,1.2-1.6c1.5-1.7,2.7-3.7,3.6-5.8c0.4-1.1,0.5-2.2,0.5-3.3
		c0-1.1-0.1-2.3-0.3-3.4c-0.1-0.7-0.3-1.5-0.5-2.2l0,0c-0.1-0.5-0.3-0.9-0.4-1.3l-0.1-0.4c-0.1-0.3-0.2-0.7-0.3-1l-0.1-0.3
		c-0.1-0.4-0.3-0.7-0.4-1.1l-0.1-0.2c-1.9-4.9-4.5-9.6-6-14.6c-0.4-1.3-0.7-2.7-1-4.1c-0.1-0.4-0.1-0.7-0.2-1.1
		c-0.1-0.3-0.1-0.6-0.1-0.9c0-0.3-0.1-0.7-0.1-1l-0.1-1c0-0.3,0-0.7-0.1-1c0-0.6-0.1-1.2-0.1-1.8v-2.7c0-0.5,0.1-0.9,0.1-1.4
		c0-0.2,0-0.4,0.1-0.6c0.1-0.7,0.2-1.3,0.3-2l0,0l0.3-1.8c0.4-1.6,0.6-3.3,0.6-5c0-0.3,0-0.7-0.1-1c-0.1-0.3-0.1-0.5-0.1-0.8v-0.2
		c0-0.2-0.1-0.3-0.1-0.5c0-0.1,0-0.2-0.1-0.3c-0.1-0.1-0.1-0.4-0.2-0.5c-0.1-0.1,0-0.1-0.1-0.2c-0.1-0.1-0.1-0.4-0.2-0.5l-0.1-0.2
		l-0.3-0.6l0,0c-0.4-0.7-0.8-1.4-1.3-2.1l0,0c-3.3-4.3-8.8-7.6-11.8-12.4c-1.8-3.1-2.9-6.5-3.4-10c-0.2-0.8-0.3-1.6-0.4-2.4
		c-0.1-0.8-0.3-1.6-0.4-2.4c-0.1-0.5-0.2-1-0.3-1.4l-0.1-0.3c-0.1-0.4-0.2-0.8-0.3-1.1l-0.1-0.3l-0.3-1.2l-0.1-0.2
		c-0.1-0.4-0.2-0.8-0.3-1.3v-0.1c-0.1-0.4-0.3-0.9-0.4-1.3v-0.1c-0.1-0.5-0.3-0.9-0.4-1.4l0,0c-0.2-0.5-0.3-0.9-0.5-1.4l0,0
		c-0.2-0.5-0.3-0.9-0.5-1.4l0,0c-1.3-3.2-3-6.2-5.1-9c-4.4-6.1-11.5-9.7-19-9.8c-3.9,0.3-7.8,1.3-11.4,2.9l-9.6,3.5l2.7-1.2
		c-2.8,0.1-5.6,0.7-8.2,1.8c-2.6,1.2-4.4,3.6-4.8,6.5c0.2,1.6,0.4,3.3,0.4,4.9c-0.3,2.7-2.8,4.5-4.1,7c-0.8,1.4-1.1,3.1-1,4.7v1.2
		c-4-1.7-8-3.5-12-5.5c-6.6-3.3-13.3-7.1-17.4-13.2c-1.3-2-2.3-4.2-3.7-6.1c-1.5-2.1-3.2-4.1-5-6l-12.3-13.3
		c-0.9,1.8,0.3,3.9,1.2,5.6c1,1.9,1.8,3.8,2.3,5.9c0.2,0.7,0.2,1.4-0.1,2c-0.5,0.5-1,0.9-1.7,1.2c-2.3,1.5-3.3,4.3-2.5,6.9
		c0.9,2.5,3.1,4.4,5.7,4.9c0.9,0.1,1.7,0.3,2.5,0.6c1.5,0.7,2.2,2.4,3.2,3.7c2.2,2.1,4.9,3.5,7.9,4c4.5,5.2,9.3,10.3,13.8,15.5
		c6.9,7.9,13.9,16,22.9,21.4c0.9,0.6,1.9,1.1,2.8,1.6v0.5c-0.3,1.2-0.1,2.4,0.4,3.5c1,1.1,2.4,1.8,3.9,1.9l6.8,1.2
		c-0.1,0.9-0.2,1.8-0.3,2.6c-0.1,0.5-0.2,1-0.3,1.6l0,0l-0.1,0.7v0.1c0,0,0,0.4-0.1,0.5s0,0.1,0,0.2v1.3c0.5,2.7,1.8,5.1,3.8,6.9
		l1,1.1c-1.5,1.9-2.6,4.1-3.1,6.5c-0.3,1.5-0.4,3-0.4,4.5c-0.9,0.9-1.6,1.9-2,3.1c-0.5,1.6-0.7,3.4-0.5,5.1v2
		c-0.1,2.4,0.3,4.8,1.2,7c0.1,0.2,0.2,0.3,0.3,0.5c-1.5,2.9-4,5.2-5.8,8c-3.7,6.3-3.1,14.3,1.6,19.9c1.6,1.3,2.8,3.2,3.3,5.2
		c0,0.9-0.1,1.9-0.3,2.8c0.1,2.3,0.6,4.5,1.4,6.6c0.6,1.8,0.4,3.8-0.5,5.5c-1.1,1.5-1.6,3.4-1.4,5.2c0.5,2.8-0.7,5.7-0.9,8.5
		c-0.1,1.2,0,2.5-0.1,3.7c-0.1,1.2-0.4,2.4-0.7,3.5c0,0.1-0.1,0.3-0.1,0.4c-2.5,1.1-4.9,2.2-7.3,3.5c-1.3,0.6-2.3,1.6-3,2.8
		c-0.4,1.2-0.5,2.5-0.2,3.8l2.1,14.8l-0.4-0.2c0.2,2.4,0.3,4.9,0.5,7.3c0,1.9,0.4,3.7,1.4,5.3c0.6,0.6,1.1,1.2,1.5,1.9
		c0.8,1.7-0.2,3.7-0.9,5.4c-0.7,1.7-1,4.2,0.6,5.2c0.9,0.6,1.8,1.1,2.7,1.5c-2,8.3-0.2,17.1,1.7,25.5c1.4,6.4,2.8,12.8,4.3,19.2
		c0.6,2.7,0.9,5.4,0.9,8.2v1.2c0.2,3.8,0.9,7.6,2,11.2c2.2,7.5,0.1,16.5,0.8,24.6c0.5,3.9,1.2,7.8,2.3,11.6
		c5.1,18.9,8.7,38.1,10.8,57.6c1.8,2.2,4.2,3.9,6.9,4.8c-0.2,2.4,0.1,5.2,0,6.6c0,1.2-0.2,2.3-0.5,3.4c-1,2.2-2.9,3.8-5.2,4.5
		l-2.1,0.6l0.8-0.7c-4.6-1-9.3-0.2-13.3,2.3c-2.2,0.9-3.3,3.4-2.4,5.5c0.2,0.4,0.4,0.8,0.7,1.2c2.2,3.2,5.5,5.6,9.3,6.6
		c3.7,1,7.5,1.5,11.4,1.6l7.1,0.4c-0.5,0.8-0.3,1.9,0.5,2.5c0.7,0.6,1.7,0.9,2.6,0.9c2.9,0.4,5.8,0.5,8.7,0.1c0.7,0,1.4-0.3,2-0.7
		c0.5-0.5,0.6-1.3,0.1-1.8c0,0,0,0,0,0l-0.1-0.1c0.9,0,1.6-0.6,1.9-1.4c0.3-0.8,0.4-1.7,0.3-2.5c0-3.8-0.7-7.5-2.2-11
		c-0.6-1.1-1.9-1.7-3.1-1.4c-1.1-5.8-1.8-11.8-2-17.7c1.8-0.6,3.5-1.4,5.1-2.3c-4.9-7.9-5-18-3.5-27.2c0.6-2.9,1-5.8,1.3-8.8
		c0.5-6.1-0.8-12.2-3.8-17.5c5.9,3.8,11.2,8.6,15.6,14.1c6.9,9,11.1,19.9,19.6,27.4c1.1-1.1,2.2-2.2,3.4-3.2c1.8,3,3.5,6.1,5.1,9.3
		c1.3,2.3,2.2,4.8,2.9,7.3c0.8,3.9,0.9,7.9,0.3,11.8c-0.2,2.1-0.5,4.1-0.8,6.2c-0.1,0.9-0.3,1.8-0.6,2.6c0-0.3-0.1-0.5-0.2-0.8
		c-0.5-0.9-2-0.5-2.8,0.1c-1.4,1.1-2.6,2.4-3.5,4c-1.1,1.5-0.8,3.5,0.7,4.6c0.2,0.2,0.5,0.3,0.7,0.4c3.7,2.2,8.4,0.6,12.3-1
		c1.1-0.4,2.1-0.9,3.1-1.6c2-1.4,3.1-3.8,5.1-5.2c1.1-0.6,2.1-1.2,3.1-1.9c1.8-1.7,2-4.5,3.3-6.7c2.2-3.7,7.3-4.6,9.2-8.5
		C931.4,748.4,928.8,743,925.3,740.2z"/>
	<path id="Path_92_1_" class="st8" d="M839.2,757.8c0,1.2-0.2,2.3-0.5,3.4c-1,2.2-2.9,3.8-5.2,4.4c-2.2,0.8-4.6,1-6.8,1.7
		c-1,0.2-1.9,0.7-2.7,1.4c-2,2-0.8,5.6,1.5,7.1c2.5,1.2,5.3,1.7,8.1,1.3c5.9-0.3,11.7-1.2,17.5-2.5c2.1-0.5,4.5-1.5,4.8-3.6
		c0.1-0.7,0-1.4-0.2-2c-1.4-7.1-2.2-14.4-2.3-21.7c-4.2-0.6-8.5-0.7-12.7-0.1C838.4,748.7,839.4,755.3,839.2,757.8z"/>
	<path id="Path_93_1_" class="st8" d="M890.9,732.3c1.9,3.2,3.7,6.4,5.4,9.7c1.2,2.3,2.2,4.7,2.9,7.2c0.8,3.8,0.9,7.7,0.3,11.6
		c-0.2,2-0.5,4.1-0.9,6.1c-0.1,2.1-1,4-2.6,5.4c1.5,0.9,3.4,1.1,5.1,0.5c1.7-0.6,3.2-1.6,4.5-2.8c8.6-7.1,15-17.3,15.3-28.5
		c0.1-0.9-0.1-1.7-0.5-2.5c-0.4-0.5-0.9-1-1.5-1.3c-6.4-4.4-12.3-9.3-17.7-14.9c-0.3-0.4-0.8-0.7-1.3-0.8c-0.4,0-0.8,0.1-1.2,0.3
		c-3.3,1.7-8.8,4-10.2,7.8C889.5,730.6,890.4,731.3,890.9,732.3z"/>
	<path id="Path_94_1_" class="st2" d="M851,769.4c-7.3,2.7-15,4.4-22.8,5.1c-1,0.1-2.1,0.2-2.7-0.5c-0.5-0.7-0.6-1.6-0.2-2.3
		c0.4-0.7,1-1.3,1.7-1.8l5.2-4.3c-4.5-1-9.2-0.1-13.1,2.3c-1.2,0.6-2.2,1.7-2.6,3c-0.2,1.2,0.2,2.5,0.9,3.5c2.2,3.2,5.5,5.5,9.2,6.5
		c3.7,1,7.5,1.5,11.4,1.6l7,0.4c-0.5,0.8-0.3,1.9,0.5,2.5c0.8,0.6,1.7,0.9,2.6,1c2.9,0.4,5.8,0.5,8.7,0.1c0.7,0,1.4-0.3,2-0.7
		c0.5-0.5,0.6-1.3,0.1-1.8c0,0,0,0,0,0l-0.1-0.1c0.9,0,1.6-0.6,1.9-1.4c0.3-0.8,0.4-1.7,0.3-2.5c0-3.7-0.7-7.4-2.2-10.8
		C857.1,766.4,853.4,768.4,851,769.4z"/>
	<path id="Path_95_1_" class="st2" d="M925.2,740.8c-2.3-1.7-4.8-3.1-7.4-4.1c-0.4-0.3-0.9-0.2-1.2,0.2c0,0,0,0,0,0
		c0,0.1-0.1,0.1-0.1,0.2c-4.7,6.4-8.4,13.5-10.9,21.1c-1,4.4-2.9,8.6-5.5,12.4c-0.4,0.5-1,0.9-1.5,0.7c-0.8-0.4-0.3-1.6-0.7-2.3
		c-0.5-0.9-1.9-0.5-2.8,0.1c-1.4,1.1-2.6,2.4-3.4,4c-0.5,0.7-0.7,1.6-0.6,2.5c0.3,1.1,1,2,2,2.5c3.7,2.2,8.4,0.6,12.3-1
		c1.1-0.4,2.1-0.9,3.1-1.5c2-1.4,3.1-3.8,5.1-5.1c1.1-0.6,2.1-1.2,3.1-1.9c1.8-1.7,2-4.5,3.3-6.6c2.2-3.6,7.3-4.6,9.2-8.4
		C931.2,749,928.6,743.6,925.2,740.8z"/>
	<path id="Path_96_1_" class="st2" d="M869.5,541c7.9,5.9,11.2,16.4,10.8,26.2s-3.8,19.2-7.2,28.5c-4.9,13.2-9.8,26.4-14.7,39.5
		c0.5,1.4,0.9,3,1,4.5c0.3,1.5-0.1,3.1-1,4.4c-0.5,0.5-1,0.9-1.5,1.5c-1.2,1.8-1.7,4-1.3,6.1c0.4,2.1,0.5,4.3,0.2,6.4
		c-0.3,0.9-0.6,1.7-0.8,2.6c-0.2,0.9,0.1,1.8,0.7,2.5c1,0.8,3,0.5,3.3,1.8c13.4,11.6,24.7,25.5,33.3,41c3.2,5.8,6.5,12.3,12.6,15.1
		c-5.9,4.7-11.5,9.6-16.9,14.9c-8.5-7.4-12.7-18.2-19.6-27c-4.4-5.5-9.6-10.2-15.6-13.9c3.1,5.2,4.4,11.2,3.8,17.2
		c-0.3,2.9-0.7,5.8-1.3,8.7c-1.5,9.1-1.4,19,3.5,26.9c-5.2,3-11.1,4.4-17.1,3.9c-3.7-0.5-7-2.4-9.3-5.3
		c-2.1-19.2-5.7-38.2-10.8-56.9c-1.1-3.8-1.9-7.6-2.3-11.5c-0.7-8,1.4-16.9-0.8-24.3c-1.1-3.6-1.8-7.3-2-11.1v-1.2
		c-0.1-2.7-0.4-5.4-0.9-8.1l-4.3-18.9c-1.9-8.3-3.7-16.9-1.7-25.1c-0.9-0.4-1.8-0.9-2.7-1.4c-1.6-0.9-1.4-3.4-0.6-5.1
		c1.1-1.6,1.4-3.5,0.9-5.3c-0.4-0.7-0.9-1.3-1.5-1.9c-1-1.6-1.5-3.4-1.4-5.2l-0.5-7.2c3,1.2,5.5,3.4,7.1,6.2
		c-3.9-6.1-2-14.8,0.9-21.5c1.1-4.2,4.9-7.2,9.2-7.3C836.9,538.1,856.4,531.4,869.5,541z"/>
	<path id="Path_97_1_" class="st3" d="M862.1,582.1c0,0-7.9,5.3-7.9,9.2s-2,39.4-2,39.4v25c0,0,1.3,13.1,0,16.4s0,18.4,0,20.4
		c0,2,2-20.4,2-20.4v-23.7l2-53.9L862.1,582.1z"/>
	<path id="Path_98_1_" class="st8" d="M818.2,400.1l-4.6-1.8c-9.4-3.8-18.8-7.5-27.8-11.9c-6.6-3.2-13.3-7-17.4-13
		c-1.3-2-2.3-4.1-3.7-6.1c-1.5-2.1-3.2-4.1-5-5.9l-12.3-13.1c-0.9,1.8,0.3,3.8,1.2,5.5c1,1.8,1.8,3.8,2.3,5.8c0.2,0.7,0.2,1.4-0.1,2
		c-0.5,0.5-1,0.9-1.7,1.2c-2.3,1.4-3.3,4.2-2.5,6.8c0.9,2.5,3.1,4.4,5.7,4.9c0.9,0.1,1.7,0.3,2.5,0.6c1.5,0.7,2.2,2.4,3.2,3.6
		c2.2,2.1,4.9,3.5,7.9,3.9c4.5,5.2,9.3,10.1,13.8,15.3c6.9,7.8,13.9,15.8,22.8,21.1c3.2,1.9,6.7,3.3,10.3,4.1
		C814.1,415.3,815.9,407.6,818.2,400.1z"/>
	<path id="Path_99_1_" class="st9" d="M818.2,400.1l-4.6-1.8c-9.4-3.8-18.8-7.5-27.8-11.9c-6.6-3.2-13.3-7-17.4-13
		c-1.3-2-2.3-4.1-3.7-6.1c-1.5-2.1-3.2-4.1-5-5.9l-12.3-13.1c-0.9,1.8,0.3,3.8,1.2,5.5c1,1.8,1.8,3.8,2.3,5.8c0.2,0.7,0.2,1.4-0.1,2
		c-0.5,0.5-1,0.9-1.7,1.2c-2.3,1.4-3.3,4.2-2.5,6.8c0.9,2.5,3.1,4.4,5.7,4.9c0.9,0.1,1.7,0.3,2.5,0.6c1.5,0.7,2.2,2.4,3.2,3.6
		c2.2,2.1,4.9,3.5,7.9,3.9c4.5,5.2,9.3,10.1,13.8,15.3c6.9,7.8,13.9,15.8,22.8,21.1c3.2,1.9,6.7,3.3,10.3,4.1
		C814.1,415.3,815.9,407.6,818.2,400.1z"/>
	<path id="Path_100_1_" class="st5" d="M809.8,426.2c-1.5-0.1-2.9-0.8-3.9-1.9c-0.5-1.1-0.7-2.3-0.4-3.5c0.8-7.5,2.5-15,5-22.1
		c2.2,4.1,6.6,6.5,10.8,8.7c3.7,2.1,7.6,3.8,11.6,5.3c-1-0.3-3.5,15.1-4.8,16c-1.7,1.2-5.9-0.4-7.9-0.8L809.8,426.2z"/>
	<circle id="Ellipse_35_1_" class="st8" cx="820.5" cy="400.6" r="21"/>
	<path id="Path_101_1_" class="st10" d="M816.2,418c0,0,13.8,11.8,7.9,19.7c-5.9,7.9-9.2,13.1-1.3,13.8s34.2-13.1,34.2-13.1
		s-24.3-19.7-20.4-31.5C840.5,395.1,816.2,418,816.2,418z"/>
	<path id="Path_102_1_" class="st5" d="M829.4,436.5c-6,1.4-10.7,6.1-12.1,12.1c-1.5,7.1,1.7,15-1.4,21.5c-1.5,3.1-4.2,5.4-6,8.3
		c-3.7,6.2-3.1,14.1,1.6,19.6c1.6,1.3,2.7,3.1,3.3,5.1c0,0.9-0.1,1.9-0.3,2.8c0.1,2.2,0.6,4.4,1.4,6.5c0.6,1.8,0.4,3.8-0.5,5.4
		c-1,1.5-1.5,3.4-1.4,5.2c0.5,2.8-0.7,5.6-0.9,8.4c-0.1,1.2,0,2.4-0.1,3.7c-0.1,1.2-0.4,2.3-0.7,3.4l-1.8,6.5
		c9.5,3.9,19.7,5.7,30,5.4c9.2-0.5,18.4-1.8,27.4-4c2.8-0.6,5.5-1.2,8.2-1.9c-5.7-7.5-6.3-17.4-6.5-26.8
		c-0.2-15.7-1.4-31.3-3.5-46.9c2.6-5.3,4.3-11,5.1-16.9c0.5-2.3,0.7-4.7,0.6-7.1c-0.7-5-2.3-9.9-4.8-14.3c-2.1-4.1-4.3-8.5-8.9-10.3
		c-2.2-1-4.8-0.6-6.8,0.8c-3.5,2.6-2.4,7.1-3.3,11c-1.6,5-5.6,8.8-10.7,10c-3.6,1-7.4,1.3-11.2,1c-1.1,0-1.9-1-1.9-2.1
		c0-0.5,0.2-0.9,0.5-1.2C826.4,440,828,438.2,829.4,436.5z"/>
	<path id="Path_103_1_" class="st8" d="M845.7,517.8c-7.5,6.6-15.8,12.4-24.6,17.3c-5.3,2.6-10.9,4.6-16,7.4c-1.3,0.6-2.3,1.5-3,2.7
		c-0.4,1.2-0.5,2.5-0.2,3.8l2.3,15.7c0.6,4.3,4.7,7,8,9.7c-0.4-1.3-0.3-2.6,0.2-3.8c0.2-0.4,0.5-0.8,0.8-1.2
		c1.3-2.2,1.7-4.9,1.1-7.4c-0.6-2.5-0.9-5-0.9-7.6c-0.1-0.9,0.3-1.8,1.1-2.2c11.2-5.4,23.2-9.5,34.5-14.6c3-1.2,5.8-2.8,8.4-4.8
		c2.6-2,4.3-4.9,4.9-8.1c0.1-0.4,0-0.8-0.2-1.2c-0.2-0.2-0.5-0.4-0.8-0.5C856.1,521.3,850.7,519.6,845.7,517.8z"/>
	<path id="Path_104_1_" class="st3" d="M824.1,451.8c-4,0.3-7.5,2.7-9.2,6.4c-0.5,1.6-0.6,3.3-0.5,5c-0.1,2.4,0.3,4.7,1.2,6.9
		c0.6,1.2,1.4,2.3,2.3,3.4c9.2,11.8,13.9,26.7,22.9,38.7c0.8,1.1,2.3,2.4,1.8,3.7c-0.2,0.3-0.3,0.7-0.4,1c-0.1,0.7,0.2,1.4,0.7,1.8
		c0.5,0.4,0.9,1,1.1,1.6c0.2,0.6-0.3,1.5-0.9,1.4c1.1,3.3,4.4,5.3,7.5,6.9c5.1,2.9,10.9,4.3,16.8,4.1c1.1-4.4,2.6-9.3,2-13.8
		c-0.6-3.4-1.8-6.7-3.3-9.8l-3.9-8.5c-3.1-7.4-6.9-14.5-11.3-21.2c-1.7-2.1-3.1-4.4-4.2-6.8c-1.2-3.1-4.5-5.3-6.4-7.9
		c-2.7-4.1-6.1-7.8-9.9-10.9C828.5,452.5,826.3,451.8,824.1,451.8z"/>
	<path id="Path_105_1_" class="st5" d="M824.1,449.8c-3.9,0.6-7.9,2.6-9.2,6.3c-0.5,1.6-0.6,3.3-0.5,5c-0.1,2.4,0.3,4.7,1.2,6.9
		c0.6,1.2,1.4,2.3,2.3,3.4c9.2,11.8,13.9,26.7,22.9,38.7c0.8,1.1,2.3,2.4,1.8,3.7c-0.2,0.3-0.3,0.7-0.4,1c-0.1,0.7,0.2,1.4,0.7,1.8
		c0.5,0.4,0.9,1,1.1,1.6c0.2,0.6-0.3,1.5-0.9,1.4c1.1,3.3,4.4,5.3,7.5,6.9c5.1,2.9,10.9,4.3,16.8,4.1c1.1-4.4,2.6-9.3,2-13.8
		c-0.6-3.4-1.8-6.7-3.3-9.8l-3.9-8.5c-3.1-7.4-6.9-14.5-11.3-21.2c-1.7-2.1-3.1-4.4-4.2-6.8c-1.2-3.1-4.5-5.3-6.4-7.9
		c-2.7-4.1-6.1-7.8-9.9-10.9C828.5,450.4,826.3,449.8,824.1,449.8z"/>
	<path id="Path_106_1_" class="st2" d="M815.3,366.1c-2.8,0.1-5.6,0.6-8.2,1.7c-2.6,1.1-4.5,3.6-4.8,6.4c0.2,1.6,0.4,3.3,0.4,4.9
		c-0.3,2.7-2.8,4.5-4.1,6.9c-2.2,4.1-0.5,9.4,2.4,13s6.8,6.4,9.8,10.1c4.8,5.8,6.7,13.5,5.4,20.9c-0.4,1.4-0.5,2.9-0.5,4.4
		c0.5,2.6,1.8,5,3.8,6.8c8.6,10,16.5,20.6,23.7,31.6c2.2,3.2,4.1,6.5,5.8,10c1.4,3.7,3.3,7.3,5.4,10.6c2.2,2.7,4.9,5,7.9,6.8
		c7.6,4.7,16.3,7.5,25.2,8.1l-5.2-12.8c-1.1-2.2-1.6-4.6-1.5-7.1c0.6-4.6,5.2-7.6,6.7-12c0.8-2.9,0.7-6-0.3-8.8
		c-1.8-6.5-5.5-12.3-7.4-18.7c-1.7-5.6-2.1-11.6-1.1-17.4c0.6-2.5,0.9-5.1,0.8-7.7c-1-7.8-10.1-11.6-14.4-18.2
		c-2.7-4.3-3.3-9.5-4.2-14.5c-1-7.3-3.9-14.3-8.3-20.3c-4.5-6-11.5-9.6-19-9.7c-3.9,0.3-7.8,1.3-11.4,2.9l-9.6,3.5"/>
	<g id="Group_10_1_" transform="translate(339.182 161.35)" class="st11">
		<path id="Path_107_1_" d="M519.1,221c0.4,4.6,1.6,9,3.5,13.2c-0.3-1.6-0.5-3.1-0.8-4.7c-0.7-3.9-1.8-7.8-3.2-11.5
			C518.8,219.1,518.9,220,519.1,221z"/>
		<path id="Path_108_1_" d="M536.8,261.4c-1,5.8-0.6,11.8,1.1,17.4c0.5,1.5,1,3,1.6,4.5c-0.8-4.4-0.9-9-0.1-13.4
			c0.6-2.5,0.9-5.1,0.8-7.7c-0.3-2.2-1.2-4.3-2.6-6C537.4,258,537.1,259.7,536.8,261.4z"/>
		<path id="Path_109_1_" d="M548,306.1c-0.6-1.9-1.2-3.7-2-5.5c0.3,1.9,0.2,3.9-0.4,5.8c-1.5,4.4-6.2,7.4-6.7,12
			c-0.1,2.5,0.4,4.9,1.5,7.1c0.3,0.8,0.7,1.7,1,2.6V327c0.6-4.6,5.2-7.6,6.7-12C549,312.1,549,309,548,306.1z"/>
		<path id="Path_110_1_" d="M520.4,330c-3-1.7-5.7-4-7.9-6.8c-2.2-3.3-4-6.9-5.4-10.6c-1.7-3.5-3.7-6.8-5.8-10
			c-7.2-11-15.1-21.6-23.7-31.6c-0.3-0.4-0.6-0.7-0.9-1.1c-0.2,0.9-0.3,1.9-0.2,2.8c0.5,2.6,1.8,5,3.8,6.8
			c8.6,10,16.5,20.6,23.7,31.6c2.2,3.2,4.1,6.5,5.8,10c1.4,3.7,3.3,7.3,5.4,10.6c2.2,2.7,4.9,5,7.9,6.8c7.6,4.7,16.3,7.5,25.2,8.1
			l-3.5-8.6C536.1,337.3,527.7,334.6,520.4,330z"/>
		<path id="Path_111_1_" d="M469,239.1c-3-3.6-6.9-6.4-9.8-10c-0.3-0.3-0.6-0.7-0.8-1.1c-0.1,3.5,1.1,6.9,3.4,9.6
			c2.9,3.7,6.8,6.4,9.8,10.1c1.2,1.4,2.2,2.9,3,4.6C474,247.5,472.1,242.9,469,239.1z"/>
	</g>
	<path id="Path_112_1_" class="st12" d="M417.9,297.8l-7.3-7.3c-1.5-1.5-3.9-1.5-5.4,0c0,0,0,0,0,0l0,0l-45.5,45.1l-19.3-19.4
		c-1.5-1.5-3.9-1.5-5.4,0c0,0,0,0,0,0l-7.3,7.3c-1.5,1.5-1.5,4,0,5.5l29.3,29.5c1.5,1.5,4,1.5,5.5,0l55.6-55.1
		C419.5,301.8,419.4,299.3,417.9,297.8C418,297.9,417.9,297.9,417.9,297.8z"/>
	<path id="Path_113_1_" class="st12" d="M618.8,297.8l-7.3-7.3c-1.5-1.5-3.9-1.5-5.4,0c0,0,0,0,0,0l0,0l-45.5,45.1l-19.3-19.4
		c-1.5-1.5-3.9-1.5-5.4,0c0,0,0,0,0,0l-7.3,7.3c-1.5,1.5-1.5,4,0,5.5l29.3,29.5c1.5,1.5,4,1.5,5.5,0l55.6-55.1
		C620.5,301.8,620.4,299.3,618.8,297.8C618.9,297.9,618.8,297.9,618.8,297.8z"/>
</g>
</svg>
