<?xml version="1.0" encoding="utf-8"?>
<!-- Generator: Adobe Illustrator 23.0.0, SVG Export Plug-In . SVG Version: 6.00 Build 0)  -->
<svg version="1.1" id="圖層_1" xmlns="http://www.w3.org/2000/svg" xmlns:xlink="http://www.w3.org/1999/xlink" x="0px" y="0px"
	 viewBox="0 0 1000 840" style="enable-background:new 0 0 1000 840;" xml:space="preserve">
<style type="text/css">
	.st0{fill:none;}
	.st1{fill:#FFFFFF;}
	.st2{fill:#3F5D45;}
	.st3{fill:none;stroke:#535461;stroke-miterlimit:10;}
	.st4{fill:none;stroke:#535461;stroke-width:2;stroke-miterlimit:10;}
	.st5{opacity:0.25;enable-background:new    ;}
	.st6{fill:#EDFFDB;}
	.st7{fill:#F8FAF8;}
	.st8{fill:#2F4634;}
	.st9{fill:#99FF66;}
	.st10{fill:#DBACA2;}
	.st11{fill:#E8C2B8;}
	.st12{opacity:0.1;enable-background:new    ;}
	.st13{fill:#F0F0F0;}
	.st14{fill:url(#Path_170_2_);}
	.st15{fill:#FFD5D8;}
	.st16{fill:#275934;}
	.st17{opacity:5.000000e-02;fill:#275934;enable-background:new    ;}
	.st18{opacity:5.000000e-02;enable-background:new    ;}
	.st19{fill:#85596B;}
</style>
<g>
	<rect x="0.1" y="0" class="st0" width="1000" height="840"/>
	<rect id="Rectangle_15_1_" x="0.1" y="0" class="st1" width="1000" height="840"/>
	<path id="Path_216-2_1_" class="st2" d="M7.9,568.7c0,0-49.6,77.4,112.9,78.8c0,0,2.4-67.4-50.7-95.1
		c-21.4-11.2-47.8-4.7-61.4,15.2L7.9,568.7z"/>
	<path id="Path_217-2_1_" class="st3" d="M8.3,567.2c0,0,83.2,16.4,112.6,80.1"/>
	<path id="Path_218-2_1_" class="st4" d="M128.1,639.1c0,0-53.4-69.1-48.6-137.1c2.2-28.5-4.9-57-20.2-81.2
		c-7.4-11.4-15.8-22.1-25.1-32"/>
	<path id="Path_219-2_1_" class="st2" d="M37,348.4c3.7,9.6-2.8,44.1-2.8,44.1s-28.1-21-31.9-30.5c-3.9-9.5,0.7-20.4,10.2-24.2
		c9.5-3.9,20.4,0.7,24.2,10.2C36.9,348.1,36.9,348.3,37,348.4z"/>
	<path id="Path_220-2_1_" class="st2" d="M86.3,390.2c-2,10.1-26.3,35.5-26.3,35.5s-12.2-32.9-10.2-43c2.2-10,12.1-16.4,22.1-14.2
		C81.9,370.6,88.3,380.3,86.3,390.2L86.3,390.2z"/>
	<path id="Path_221-2_1_" class="st2" d="M24.4,439.7c9.5,4,44.1-1.6,44.1-1.6s-20.2-28.7-29.7-32.7c-9.5-4-20.4,0.5-24.4,9.9
		C10.5,424.8,14.9,435.7,24.4,439.7L24.4,439.7L24.4,439.7z"/>
	<path id="Path_222-2_1_" class="st2" d="M37.5,525.5c10.2,1,41.6-14.7,41.6-14.7s-27.8-21.3-38.1-22.3
		c-10.2-0.7-19.1,7.1-19.8,17.3C20.6,515.7,27.7,524.3,37.5,525.5L37.5,525.5z"/>
	<path id="Path_223-2_1_" class="st2" d="M61.9,607.3c9.9,2.7,43.5-7.5,43.5-7.5s-23.9-25.7-33.8-28.4c-9.9-2.7-20.1,3.1-22.8,13
		s3.1,20.1,13,22.8C61.8,607.2,61.9,607.3,61.9,607.3L61.9,607.3z"/>
	<path id="Path_224-2_1_" class="st5" d="M36,349.4c3.7,9.6-2.8,44.1-2.8,44.1s-28.1-21-31.9-30.5c-3.9-9.5,0.7-20.4,10.2-24.2
		S32,339.5,35.8,349C35.9,349.1,35.9,349.3,36,349.4z"/>
	<path id="Path_225-2_1_" class="st5" d="M85.3,391.2c-2,10.1-26.3,35.5-26.3,35.5s-12.2-32.9-10.2-43c2.2-10,12.1-16.4,22.1-14.2
		C80.9,371.6,87.3,381.3,85.3,391.2L85.3,391.2z"/>
	<path id="Path_226-2_1_" class="st5" d="M23.4,440.7c9.5,4,44.1-1.6,44.1-1.6s-20.2-28.7-29.7-32.7c-9.5-4-20.4,0.5-24.4,9.9
		C9.5,425.8,13.9,436.7,23.4,440.7L23.4,440.7L23.4,440.7z"/>
	<path id="Path_227-2_1_" class="st5" d="M36.5,526.5c10.2,1,41.6-14.7,41.6-14.7s-27.8-21.3-38.1-22.3
		c-10.2-0.7-19.1,7.1-19.8,17.3C19.6,516.7,26.7,525.3,36.5,526.5L36.5,526.5z"/>
	<path id="Path_228-2_1_" class="st5" d="M60.9,608.3c9.9,2.7,43.5-7.5,43.5-7.5s-23.9-25.7-33.8-28.4c-9.9-2.7-20.1,3.1-22.8,13
		c-2.7,9.9,3.1,20.1,13,22.8C60.8,608.2,60.9,608.3,60.9,608.3L60.9,608.3z"/>
	<path id="Path_144_1_" class="st6" d="M926.2,566.4c-41.3,30.9-44.9,91.5-37.8,142.8c2.4,17.2,5.4,35.5-1.8,51.2
		c-8.8,19.2-30.7,29.1-51.6,31.8c-38.8,4.6-77.6-9.5-104.4-38c-22.6-24.5-34.6-57.5-57.9-81.3c-39-39.8-100.7-45.7-156-40.7
		c-39.1,3.5-82.7,10.1-114.3-13.4c-22.2-16.5-33-45-35.6-72.7c-1.2-13.4-1-27.4-7-39.4c-3.9-7-9-13.2-15.1-18.3
		c-54.2-48.4-137.9-53.3-189.4-104.6c-34.8-34.6-49.2-86-48.4-135.2c0.8-49.2,15.2-97.1,31-143.8c11.2-33.1,24.7-68.1,53.1-88.2
		c30-21.3,71.6-20.9,105.4-6.1s60.5,42.2,82.6,71.8c27.6,37,50.9,80.1,90.8,102.9c27.3,15.6,59.2,19.9,89.8,26.7
		c51.1,11.4,100.2,30.5,148.8,50.1c46.6,18.7,93.3,38.1,134.8,66.4c29.4,20,49.9,47.3,76.7,69.8c17.5,14.7,38.5,23.1,54.2,40
		c19.4,20.8,33.9,51.7,20,79.4C981.1,544,948.2,550,926.2,566.4z"/>
	<circle id="Ellipse_10-2_1_" class="st7" cx="505.7" cy="180.3" r="2.1"/>
	<circle id="Ellipse_11-2_1_" class="st7" cx="510.9" cy="180.3" r="2.1"/>
	<circle id="Ellipse_12-2_1_" class="st7" cx="516.1" cy="180.3" r="2.1"/>
	<path id="Path_152_1_" class="st8" d="M119.4,475.1c-6.9,7.6-40.6,17.4-40.6,17.4s6.1-34.6,12.9-42.2c6.6-7.8,18.4-8.8,26.2-2.2
		c7.8,6.6,8.8,18.4,2.2,26.2C119.9,474.5,119.6,474.8,119.4,475.1L119.4,475.1z"/>
	<path id="Path_153_1_" class="st8" d="M129.7,550.2c-5.5,8.7-37.1,24-37.1,24s0.1-35.1,5.6-43.8c5.4-8.7,16.9-11.4,25.6-6
		c8.7,5.4,11.4,16.9,6,25.6C129.8,550.1,129.7,550.1,129.7,550.2L129.7,550.2z"/>
	<path id="Path_159_1_" class="st5" d="M120.4,475.1c-6.9,7.6-40.6,17.4-40.6,17.4s6.1-34.6,12.9-42.2c6.6-7.8,18.4-8.8,26.2-2.2
		c7.8,6.6,8.8,18.4,2.2,26.2C120.9,474.5,120.6,474.8,120.4,475.1L120.4,475.1z"/>
	<path id="Path_160_1_" class="st5" d="M130.7,550.2c-5.5,8.7-37.1,24-37.1,24s0.1-35.1,5.6-43.8c5.4-8.7,16.9-11.4,25.6-6
		c8.7,5.4,11.4,16.9,6,25.6C130.8,550.1,130.7,550.1,130.7,550.2L130.7,550.2z"/>
	<path id="Path_164_1_" class="st9" d="M463.3,504.9c-19-0.4-39.4,0.5-54.5,8c-28,13.8-24.2,41.8-42.5,61.3
		c-15.4,16.4-44.9,24.9-73.5,30.4c-46.6,8.9-95.4,12.2-141.6,21.7c-27.3,5.6-54.3,13.8-73,27.8s-27.1,34.8-14.4,51.4
		c11.7,15.3,37.4,23.5,60.8,31.4s48.2,18.3,54.8,34.8c3.6,9.2,0.9,19.1,5.2,28.2c8.4,17.9,39.7,26.4,67.8,30.9
		c22.5,3.6,45.3,6.3,68.3,8c18.4,1.8,36.9,1.6,55.2-0.6c15.6-2.3,30.1-7,45.1-10.6c95.2-23.2,204.8-3.1,301.9-22.8
		c17.7-3.5,35.1-8.5,48.5-16.7c9.1-5.7,17.1-13,23.6-21.6c15.2-18.3,24.1-41.1,25.2-64.9c0.4-13.5-2-27.1,1.7-40.4
		c3.9-13.8,14.2-26.5,19.7-40.1c10-24.7,3-52-18.8-73.4c-7.8-7.9-17.3-13.8-27.8-17.3c-9.3-2.6-18.7-4.2-28.3-5
		c-27-2.9-54.4-5.9-81.6-4.2c-19.4,1.2-38.4,4.7-57.8,5.3c-27.3,0.9-48.6-5.4-73.4-11.3C524.2,508.7,493.8,505.3,463.3,504.9z"/>
	<path id="Path_165_1_" class="st10" d="M119.9,298.3v267.5l355.9-69.1L469,291.5L119.9,298.3z"/>
	<path id="Path_166_1_" class="st11" d="M788.9,615.9v88.4L412.6,814.2l-3.8-2L111.1,657.8V292.3l368.3-11.9l2.3,202.9l-14.7,4.5
		L461.3,298l-324.1,11.3l-2.3,274.8l282.2,123.5l0.2-0.1L788.9,615.9z"/>
	<path id="Path_167_1_" class="st12" d="M789.3,615.9v88.4L413,814.2l-3.8-2l8.6-104.6L789.3,615.9z"/>
	<path id="Path_168_1_" class="st13" d="M335.2,486.6c0,0-182.2,18.2-199.9,44.5c-17.7,26.3-0.2,58.6-0.2,58.6l281.6,122.4
		l381.9-98.6c0,0-10.2-69.1-41.9-77.1s-284.5-62.3-284.5-62.3S370.4,467.9,335.2,486.6z"/>
	<path id="Path_169_1_" class="st7" d="M135.2,530.9l287.3,99.2c0,0,306.4-92.9,349.9-84.2c0,0-214.4-76.7-300-73.4
		c-46.8,2.3-93.4,6.9-139.7,13.9C332.7,486.4,143.1,505.4,135.2,530.9z"/>
	
		<linearGradient id="Path_170_2_" gradientUnits="userSpaceOnUse" x1="112.7213" y1="1127.6161" x2="112.7213" y2="1131.0291" gradientTransform="matrix(92.9151 0 0 -75.6956 -10074.8135 85973.1641)">
		<stop  offset="0" style="stop-color:#00800B;stop-opacity:0.251"/>
		<stop  offset="0.54" style="stop-color:#00800B;stop-opacity:0.122"/>
		<stop  offset="1" style="stop-color:#00800B;stop-opacity:0.102"/>
	</linearGradient>
	<path id="Path_170_1_" class="st14" d="M557.1,594.4L557.1,594.4L557.1,594.4l0.1-0.2l0.1-0.1v-0.8l0,0v-1.5l-0.1-0.2l0,0l-0.1-0.3
		v-0.1l-0.1-0.2v-0.1l-0.1-0.2l-0.1-0.1l-0.1-0.2l-0.1-0.1l-0.1-0.2l-0.1-0.1l-0.1-0.2l-0.1-0.1l-0.2-0.3l0,0l-0.2-0.3l-0.1-0.1
		l-0.1-0.2l-0.1-0.1l-0.1-0.2l-0.1-0.1l-0.1-0.2l-0.2-0.3l-0.1-0.2l-0.1-0.1l-0.2-0.2l-0.1-0.1l-0.2-0.3v-0.1l-0.2-0.4l-0.1-0.1
		l-0.2-0.3l-0.1-0.1l-0.2-0.2l-0.1-0.2l-0.2-0.2l-0.1-0.2l-0.2-0.2l-0.1-0.2l-0.2-0.3l-0.1-0.1l-0.2-0.3v-0.1l-0.3-0.4l-0.1-0.1
		l-0.2-0.3l-0.1-0.2l-0.2-0.2l-0.1-0.2l-0.2-0.2l-0.1-0.2l-0.2-0.2l-0.1-0.2l-0.2-0.3l-0.1-0.2l-0.2-0.3l-0.1-0.1l0,0
		c-0.9-1.1-1.8-2.3-2.8-3.4c-5.3-6.3-12.9-10.2-21.1-10.9c-0.8-0.1-1.7-0.2-2.6-0.3h-0.4l-0.6-0.1h-0.3l-1-0.1l0,0l-0.9-0.2
		l-0.3-0.1l-0.7-0.1l-0.4-0.1l-0.6-0.1l-0.4-0.1l-0.6-0.1l-0.4-0.1l-0.6-0.1l-0.5-0.1l-0.6-0.2l-0.5-0.1l-0.6-0.2l0,0
		c-2.7-4.5-7-7.8-12-9.2c-1.2-0.2-2.5-0.1-3.7,0.2l-0.2-0.2l-0.3-0.3l-0.4-0.5l-0.3-0.3l-0.4-0.6L497,553c-0.2-0.3-0.4-0.6-0.6-0.9
		c-0.6-0.3-1.2-0.5-1.8-0.6c8.8-1.3,17.6-3.4,26.1-6.1c0.4-0.2,0.8-0.4,1.2-0.6l0.2-0.1c7.4-2.7,16.5-29,10.1-32.7
		s-16.2-34-21.9-49.5S488,445.3,488,445.3s-23.9-18.5-34.7-16.5s-12.5-14.1-13.5-14.8c-0.1-0.1-0.2-0.2-0.3-0.3
		c-2.6-4.1-23.3-9.5-34.4-12.2c-10.4-7.6-22-13.2-34.4-16.6c-7.1-1.9-14.7-0.4-20.6,4.1c-22.1,1.1-25.6,17.8-25.6,17.8
		c-0.1,2.3,0.3,4.5,1.2,6.7c-1.2,0-2.4,0-3.6-0.2c2.6-4.2,2.6-9.7,4.5-14.3c3.8-9.2,14.2-13.9,24-15.2c5.7-0.7,12-0.7,16.5-4.3
		c2.3-1.9,3.9-4.5,4.5-7.4c0.2-0.6,0.1-1.3-0.2-1.9c-0.3-0.4-0.7-0.7-1.1-0.9c-5.9-3.2-13.1-2.3-19.8-2.5c-10.9-0.7-21.7-2.8-32.1-6
		c-4.4-1.6-9.1-1.8-13.6-0.6c-4.1,1.6-6.9,5.3-10.1,8.2c-13.4,11.8-35.6,10.1-47.6,23.4c-3,2.9-4.5,7.1-3.8,11.3
		c0.4,1.6,1.3,3.2,1.6,4.8c0.1,3.4-0.9,6.7-2.9,9.4c-2,2.8-2.5,6.3-1.5,9.5c2.3,4.6,9.2,4.2,12.8,7.9c1.7,1.7,2.5,4.1,4.2,5.7
		c3.2,2.1,7.1,2.9,10.9,2c1.5-0.1,3.7-0.5,4.5-1.9c10.4,9.8,26.9,9.3,36.7-1.1c1.6-1.8,3-3.7,4.1-5.9c8.1-0.6,16.2,1.6,23,6.2
		c1,3,2.9,5.6,5.4,7.6c2.4,1.8,5.2,4.1,8,6.5c-7.2,1.9-13.5,3.1-13.5,3.1s-28.3,9.1-28.3,15.2c0.1,1.1,0.4,2.2,1,3.1
		c-0.7,1.5-1.1,3.1-1.2,4.8c-7.8-1.3-14.1-3.3-17.3-6.2c0,0-0.9-0.2-2.3-0.5c-1.9-2.4-7.5-9.2-10.8-8.9c-2.2,0.2-3,5.3-3.3,9.9
		c-0.3,0.3-0.5,0.5-0.8,0.9c-3.4,5.1,2.7,15.2,6.7,16.8c4,1.7,26.3,1,41.4,12.1c6.7,4.9,18.3,5.9,29,5.4
		c-10.8,7.6-25.9,19.3-28,26.6c-1.5,4.4-2.3,8.9-2.4,13.5c-6.6,8.7-16.6,27.2,8.1,36c20.4,7.3,75.6,6.3,114.9,4.6
		c18.3,3.2,33.4,6.5,39.8,9.6c0,0,15.2,2,21.2,5.7s17.2,2.7,17.2,2.7s21.6,3.7,26.3,8.4s12.8-8.1,2.7-14.1
		c-3.9-2.4-9.8-6.2-15.5-10.5c7.3,0.9,13.8,1.8,17.9,2.8l0.4,0.1h3.1l0.1-0.1h0.1l0.1-0.1h0.1l0.1-0.1l0,0L557.1,594.4z
		 M464.1,562.1c0,0-2.8-0.6-7.1-1.6l-8.4-3.4c0,0,14.4-4.5,27.7-10.3c2.9,0.9,5.6,2.4,8,4.2c0.4,0.4,0.9,0.7,1.4,0.7
		c-7.3,2.2-13.8,6.2-18.9,11.8C465.8,563.1,464.9,562.6,464.1,562.1L464.1,562.1z M362.3,480.9l8.3-3.9c1.8,1.5,3.8,3,5.6,4.4
		c-4.6,0.3-10.7,0.6-17.6,0.8C360.8,481.5,362.3,480.9,362.3,480.9L362.3,480.9z"/>
	<path id="Path_171_1_" class="st15" d="M295.3,474.2c0,0-7.3-9.9-11.2-9.6c-4,0.3-3.3,16.8-3.3,16.8L295.3,474.2z"/>
	<path id="Path_172_1_" class="st16" d="M387,480.9c0,0-77.2,6.3-91.7-6.9c0,0-13.5-3.6-16.8,1.3c-3.3,5,2.6,14.8,6.6,16.5
		s25.7,1,40.6,11.9c14.8,10.9,53.8,2,53.8,2l16.2-6.3L387,480.9z"/>
	<path id="Path_173_1_" class="st17" d="M390.9,481.9c0,0-77.2,6.3-91.7-6.9c0,0-13.5-3.6-16.8,1.3c-3.3,5,2.6,14.8,6.6,16.5
		s25.7,1,40.6,11.9c14.8,10.9,53.8,2,53.8,2l16.2-6.3L390.9,481.9z"/>
	<path id="Path_174_1_" class="st15" d="M492,518.2c0,0-16.5-11.9-50.5,3c-34,14.9-118.7,22.8-118.7,22.8s-28.4,28.4,4,39.9
		s154.3,2,154.3,2s49.8,3.3,65.3,6.9c9.4,2.2,2-8.4-5.4-17.1c-5.2-6.2-12.6-10-20.6-10.7c-9.7-0.8-23.2-3.9-29.4-14.1
		c0,0-11.9-5.9-29.7,11.9l-17.2-7c0,0,47.2-14.8,48.8-24.7C494.6,521.2,492,518.2,492,518.2z"/>
	<path id="Path_175_1_" class="st18" d="M492,518.2c0,0-16.5-11.9-50.5,3c-34,14.9-118.7,22.8-118.7,22.8s-28.4,28.4,4,39.9
		s154.3,2,154.3,2s49.8,3.3,65.3,6.9c8.2,1.9,3.5-6-2.6-13.8c-6.2-7.9-15.4-13.1-25.4-14.2c-9.5-1.1-21.6-4.4-27.4-13.8
		c0,0-11.9-5.9-29.7,11.9l-17.2-7c0,0,47.2-14.8,48.8-24.7C494.6,521.2,492,518.2,492,518.2z"/>
	<path id="Path_176_1_" class="st15" d="M492.1,471.4c0,0-20.8-33-69.9-4.3l-63,35c0,0-35,22.1-38.3,33.3s-8.2,30.3,26.1,37.6
		s114.1,16.5,130.9,24.7c0,0,14.8,2,20.8,5.6s16.8,2.6,16.8,2.6s21.1,3.6,25.7,8.2c4.6,4.6,12.5-7.9,2.6-13.8
		c-9.9-5.9-32.3-21.8-32-28c0.3-6.2-7.6-17.2-15.2-18.6c-7.6-1.3-17.5,9.9-17.5,9.9s-12.5,2-20.1-3c0,0-38.9-8.9-42.9-11.5
		s-31-12.9-31-12.9s64-0.7,82.8-17.8c0,0,7.3-5.3,13.2-3.6C481.2,514.9,510.6,503.7,492.1,471.4z"/>
	<path id="Path_177_1_" class="st15" d="M310.7,408.6c0,0,18.8,13.2,33.3,0c14.5-13.2,6.3,40.6,6.3,40.6s-20.1-26.7-50.1-9.2
		L310.7,408.6z"/>
	<path id="Path_178_1_" class="st18" d="M310.7,408.6c0,0,18.8,13.2,33.3,0c14.5-13.2,6.3,40.6,6.3,40.6s-20.1-26.7-50.1-9.2
		L310.7,408.6z"/>
	<path id="Path_179_1_" class="st7" d="M233.4,521.9c0,0,19.8-16.8,31-17.1c3.3-0.1,7.2-3.5,11-8.2c9.8-12.2,25.5-17.9,40.8-15
		c7.9,1.3,16,0.9,23.8-1.2c34.6-8.6,17.5-30,17.5-30l-10.9-9.2c0,0-14.8-10.2-20.5-9.6s-20.1,15.5-21.8,13.8
		c-1.6-1.7-21.8-16.5-25.1-20.5c-3.3-4-29.7-16.8-23.1-20.5c6.6-3.6,39.9-17.1,33.3-19.8s-42.2-6.6-56.1,9.9
		C219.5,411.1,226.4,512.4,233.4,521.9z"/>
	<path id="Path_180_1_" class="st18" d="M233.4,521.9c0,0,19.8-16.8,31-17.1c3.3-0.1,7.2-3.5,11-8.2c9.8-12.2,25.5-17.9,40.8-15
		c7.9,1.3,16,0.9,23.8-1.2c34.6-8.6,17.5-30,17.5-30l-10.9-9.2c0,0-14.8-10.2-20.5-9.6s-20.1,15.5-21.8,13.8
		c-1.6-1.7-21.8-16.5-25.1-20.5c-3.3-4-29.7-16.8-23.1-20.5c6.6-3.6,39.9-17.1,33.3-19.8s-42.2-6.6-56.1,9.9
		C219.5,411.1,226.4,512.4,233.4,521.9z"/>
	<path id="Path_181_1_" class="st7" d="M234.6,519.6c0,0,19.8-16.8,31-17.1c3.3-0.1,7.2-3.5,11-8.2c9.8-12.1,25.4-17.9,40.7-15
		c7.9,1.3,16,0.9,23.8-1.2c34.6-8.6,17.5-30,17.5-30l-10.9-9.2c0,0-14.8-10.2-20.5-9.6s-20.1,15.5-21.8,13.8
		c-1.6-1.7-21.8-16.5-25.1-20.5s-29.6-16.8-23.1-20.4c6.6-3.6,39.9-17.1,33.3-19.8c-6.6-2.6-42.2-6.6-56.1,9.9
		C220.8,408.8,227.7,510,234.6,519.6z"/>
	<path id="Path_182_1_" class="st15" d="M325.5,407.9c0,0,5.3-25.1,43.9-15.2c38.6,9.9,57.7,31.3,57.7,31.3l-35,16.2l-42.9-14.5
		C349.2,425.7,325.2,426,325.5,407.9z"/>
	<path id="Path_183_1_" class="st18" d="M393.2,402c0,0,37.1,8,40.6,13.5c0.1,0.1,0.2,0.2,0.3,0.3c1,0.7,2.6,16.5,13.2,14.5
		c10.5-2,34,16.2,34,16.2s16.2,1.6,21.8,16.8c5.6,15.2,15.2,44.9,21.4,48.5c6.3,3.6-2.6,29.4-9.9,32c-7.3,2.6-33.3,8.9-35.6,5.6
		s-22.4-6.9-21.1-17.5c1.3-10.6,9.2-20.5,3-26.7c-6.2-6.3-10.2-22.8-19.5-26.1c-9.2-3.3-25.7-4.3-35.6,2.3
		c-6.6,4.1-14.1,6.5-21.8,6.9c0,0-20.5-11.9-23.8-20.1c-2.2-5.6-13.3-14.9-20.3-20.3c-3.7-2.9-5.9-7.3-6.1-12
		c-0.3-8.1-0.5-20.1,0.3-22.1c1.3-3,19.5-20.8,19.5-20.8L393.2,402z"/>
	<path id="Path_184_1_" class="st16" d="M394.4,401.4c0,0,37.1,8,40.6,13.5c0.1,0.1,0.2,0.2,0.3,0.3c1,0.7,2.6,16.5,13.2,14.5
		c10.5-2,34,16.2,34,16.2s16.2,1.6,21.8,16.8c5.6,15.2,15.2,44.9,21.4,48.5c6.3,3.6-2.6,29.4-9.9,32s-33.3,8.9-35.6,5.6
		c-2.3-3.3-22.4-6.9-21.1-17.5c1.3-10.6,9.2-20.5,3-26.7c-6.2-6.3-10.2-22.8-19.5-26.1c-9.2-3.3-25.7-4.3-35.6,2.3
		c-7,4.2-14.8,6.9-22.9,7.8c0,0-19.3-12.7-22.6-20.9c-2.2-5.6-13.3-14.9-20.3-20.3c-3.7-2.9-5.9-7.3-6.1-12
		c-0.3-8.1-0.5-20.1,0.3-22.1c1.3-3,19.5-20.8,19.5-20.8L394.4,401.4z"/>
	<path id="Path_185_1_" class="st15" d="M314.6,472.9c-0.3,0.3-5.9,8.6,0.7,13.2c3.7,2.7,8.5,3.6,12.9,2.3L314.6,472.9z"/>
	<path id="Path_186_1_" class="st12" d="M344.2,400.8c0,0,8.9-17.8,28-13.2c19.1,4.6,46.8,21.4,53.4,38.3c6.6,16.8-25,37.3-25,37.3
		L363,480.6c0,0-11.5,4.6-14.8,3s-19.1,12.5-19.1,12.5s-17.8-17.1-17.8-23.1s27.7-14.9,27.7-14.9s33-6.3,32.6-12.5
		c0,0,5.6-6.6,2.6-8.6s-34.8-11.4-34.8-11.4S338.3,404.8,344.2,400.8z"/>
	<path id="Path_187_1_" class="st16" d="M343.3,399.8c0,0,8.9-17.8,28-13.2s46.8,21.4,53.4,38.3c6.6,16.8-25,37.3-25,37.3
		l-37.6,17.5c0,0-11.5,4.6-14.8,3s-19.1,12.5-19.1,12.5s-17.8-17.1-17.8-23.1s27.7-14.9,27.7-14.9s33-6.3,32.6-12.5
		c0,0,5.6-6.6,2.6-8.6c-3-2-34.8-11.4-34.8-11.4S337.4,403.8,343.3,399.8z"/>
	<path id="Path_188-2_1_" class="st12" d="M303.5,436.6c5.3-3.3,11.4-5.3,17.6-5.8c1.8-3.5-2.9-7.3-2.9-11.5
		c-0.2-2.8-1.1-5.5-2.6-7.9c-4.7-1.7-1.5-6.1-1.5-6.1L303.5,436.6z"/>
	<circle id="Ellipse_13-2_1_" class="st15" cx="296.9" cy="422.4" r="25.4"/>
	<path id="Path_189-2_1_" class="st19" d="M278,432.7c6-4,13-6.3,20.2-6.5c4.5-0.1,8.9-0.8,13.3-1.9c2.5-0.9,4.8-1.9,7.1-3.2
		c3.2-1.3,6-3.4,8.3-5.9c3.3-4.3,3.2-10.2,5.2-15.1c3.7-9,13.9-13.7,23.5-14.9c5.6-0.7,11.7-0.7,16.2-4.2c2.3-1.8,3.8-4.4,4.4-7.2
		c0.2-0.6,0.1-1.3-0.2-1.9c-0.3-0.4-0.6-0.7-1.1-0.9c-5.8-3.1-12.8-2.3-19.4-2.4c-10.7-0.7-21.2-2.7-31.5-5.9
		c-4.3-1.6-8.9-1.8-13.3-0.6c-3.8,2.1-7.1,4.8-9.9,8c-13.1,11.6-34.9,9.9-46.6,22.9c-3,2.9-4.4,7-3.8,11.1c0.4,1.6,1.3,3.1,1.6,4.7
		c0.1,3.3-0.9,6.5-2.8,9.2c-1.9,2.7-2.5,6.2-1.5,9.3c2.2,4.5,9,4.2,12.5,7.7c1.6,1.6,2.4,4,4.1,5.6c3.1,2.1,7,2.8,10.6,2
		c2-0.2,5.3-0.8,4.7-3.5C279.4,436.8,276.2,435.7,278,432.7z"/>
	<path id="Path_190-2_1_" class="st7" d="M269,448.2c0,0,17.3-13,28.2-8.7s13.8,6.6,20.8,4c6.9-2.6,9.9,5.3,9.9,5.3l-43.2,12.5
		L269,448.2z"/>
	<path id="Path_191-2_1_" class="st18" d="M247.6,471c0,0,7.9-20.5,17.5-24.4"/>
	<path id="Path_192-2_1_" class="st18" d="M237.9,464.3c0,0,7.9-20.5,17.5-24.4"/>
	<path id="Path_193-2_1_" class="st18" d="M411.8,469.3c0,0,28-13.5,46.8-12.2c18.8,1.3,22.1-10.5,22.1-10.5"/>
	<path id="Path_194-2_1_" class="st2" d="M298.2,808.9c-2.5-2-4.3-4.8-5.2-7.8c-0.8-3.2,0.7-6.5,3.6-8c3.3-1.3,6.9,1,9.6,3.4
		c2.7,2.4,5.8,5,9.3,4.5c-3.7-3.4-5.4-8.4-4.4-13.3c0.2-1,0.6-1.9,1.2-2.7c1.8-2,5.2-1.1,7.4,0.4c7,5,9,14.5,9.1,23.1
		c0.4-3.2,0.4-6.4,0.1-9.6c-0.3-3.2,1.1-6.4,3.6-8.4c1.7-0.9,3.6-1.3,5.5-1.3c3.2-0.5,6.4,0.5,8.9,2.5c2.4,3.3,2.3,7.8-0.3,10.9
		c-2.6,3-5.7,5.4-9.2,7.4c-2.6,1.6-4.9,3.7-6.5,6.2c-0.2,0.4-0.4,0.7-0.5,1.1h-19.8C306.1,815.1,302,812.2,298.2,808.9L298.2,808.9z
		"/>
	<path id="Path_195-2_1_" class="st2" d="M731.4,719.8c-1.5-1.3-2.7-3-3.2-4.9c-0.5-2,0.4-4.1,2.3-5c2.1-0.8,4.3,0.6,6,2.1
		c1.5,1.7,3.6,2.7,5.8,2.8c-2.3-2.1-3.3-5.2-2.7-8.3c0.1-0.6,0.4-1.2,0.8-1.7c1.2-1.2,3.2-0.7,4.6,0.3c4.4,3.1,5.6,9,5.6,14.4
		c0.2-2,0.3-4,0.1-5.9c-0.2-2,0.7-4,2.2-5.2c1-0.6,2.2-0.8,3.4-0.8c2-0.3,4,0.3,5.5,1.6c1.5,2,1.4,4.8-0.2,6.8
		c-1.6,1.8-3.6,3.4-5.7,4.6c-1.6,1-3,2.3-4.1,3.9c-0.1,0.2-0.2,0.4-0.3,0.7H739C736.2,723.6,733.7,721.8,731.4,719.8z"/>
</g>
</svg>
