<?xml version="1.0" encoding="utf-8"?>
<!-- Generator: Adobe Illustrator 23.0.0, SVG Export Plug-In . SVG Version: 6.00 Build 0)  -->
<svg version="1.1" id="圖層_1" xmlns="http://www.w3.org/2000/svg" xmlns:xlink="http://www.w3.org/1999/xlink" x="0px" y="0px"
	 viewBox="0 0 975 800" style="enable-background:new 0 0 975 800;" xml:space="preserve">
<style type="text/css">
	.st0{fill:none;}
	.st1{fill:#FFFFFF;}
	.st2{fill:#EDFFDB;}
	.st3{fill:#3F5D45;}
	.st4{fill:#444053;}
	.st5{fill:#3F3D56;}
	.st6{opacity:0.1;enable-background:new    ;}
	.st7{fill:#F8FAF8;}
	.st8{fill:#E8C2B8;}
	.st9{fill:#DBACA2;}
	.st10{fill:#CFADA4;}
	.st11{fill:#275934;}
</style>
<g>
	<rect y="0" class="st0" width="975" height="800"/>
	<rect id="Rectangle_17_1_" y="0" class="st1" width="975" height="800"/>
	<path id="Path_311-2_1_" class="st2" d="M866.3,325.1C818.9,139.5,655.1,5.5,462.9,0.2C361.3-2.7,254.4,30.9,176.5,148.4
		c-139.2,210,8.6,355.1,111.5,424c49.7,33.4,94.6,73.5,133.2,119.2C490.8,773.8,624.6,876,784,715.9
		C899.5,599.9,897.8,448.8,866.3,325.1z"/>
	<g id="Group_4-2_1_" transform="translate(227.403 44.676)">
		<path id="Path_60-3_1_" class="st3" d="M563.1,610.7c-4.9-1.6-10.1-2.1-15.2-1.6c-2.7,0.3-4.6,2.7-4.3,5.4
			c0.3,2.6,2.6,4.6,5.3,4.4c3.1-0.2,6.3-0.8,9.3-1.7L563.1,610.7z"/>
		<path id="Path_61-3_1_" class="st3" d="M565,610.8c2.3,4.6,3.5,9.7,3.7,14.9c0.2,2.7-1.8,5.1-4.5,5.3c-2.7,0.2-5.1-1.8-5.3-4.5
			c0-0.1,0-0.2,0-0.3c-0.2-3.1-0.1-6.3,0.4-9.4L565,610.8z"/>
		<path id="Path_62-3_1_" class="st3" d="M579.2,590.4c0,0-3.1-9.6-21.8-5.9c-4.2,0.8-6.9,4.8-6.1,9c0.6,3.2,3.1,5.6,6.3,6.1h0.4
			C570.4,601.3,574.7,596.4,579.2,590.4z"/>
		<path id="Path_63-3_1_" class="st3" d="M581.2,589.8c0,0,10.1,0.8,10.7,19.9c0.2,4.2-3.1,7.8-7.4,8c-3.2,0.1-6.2-1.8-7.4-4.8
			c0-0.1-0.1-0.2-0.1-0.4C572.5,600.9,576.3,595.6,581.2,589.8z"/>
		<path id="Path_64-3_1_" class="st3" d="M594.6,565.2c-1.4-7.1-6.6-12.9-13.5-15.1c-12.7-4-19.4,15-7,19.8c5.1,1.9,10.6,2.7,16,2.3
			L594.6,565.2z"/>
		<path id="Path_65-3_1_" class="st3" d="M610.1,533.5c-3.5-7.5-10.3-12.8-18.4-14.5c-14.1-2.6-18.3,18.6-4.4,22
			c6.2,1.4,12.7,1.4,19,0.2L610.1,533.5z"/>
		<path id="Path_66-3_1_" class="st3" d="M619.4,502.4C615,495.5,608,490.7,600,489c-12.1-2.3-16.2,15.9-4.3,19
			c7.5,1.8,15.3,1.7,22.7-0.3L619.4,502.4z"/>
		<path id="Path_67-3_1_" class="st3" d="M628.2,472c-3.9-6.4-9.9-11.2-17-13.5c-12.1-3.7-18.1,14.6-6.1,18.6
			c7.1,2.4,14.9,2.3,22-0.1L628.2,472z"/>
		<path id="Path_68-3_1_" class="st3" d="M631.9,444.3c-3.2-7-8.3-13-14.7-17.4c-11-6.7-21.5,9.7-10.9,17.1c7,5.3,16,7.4,24.6,5.6
			L631.9,444.3z"/>
		<path id="Path_69-3_1_" class="st3" d="M633.8,411.4c-3.5-7-8.9-12.9-15.6-17c-11.5-6.1-21.4,10.7-10.6,17.9
			c7.1,4.7,15.9,7.8,25.3,4.1L633.8,411.4z"/>
		<path id="Path_70-3_1_" class="st3" d="M632.6,381.5c-4-6.2-8.9-11.8-14.5-16.5c-3.5-2.8-8.6-2.2-11.4,1.3
			c-2.6,3.3-2.3,8,0.8,10.9c7,6.4,15.7,11.8,24.8,11.4L632.6,381.5z"/>
		<path id="Path_71-3_1_" class="st3" d="M629.6,352.7c-4.6-7.7-10.1-14.8-16.4-21.2c-2.7-2.6-7-2.5-9.6,0.3
			c-2.4,2.6-2.5,6.6-0.1,9.3c7.2,8.3,16.5,14.5,26.9,18.1L629.6,352.7z"/>
		<path id="Path_72-3_1_" class="st3" d="M623.7,318.9c-3.8-5.9-8.2-11.3-13.1-16.2c-2.6-2.7-7-2.8-9.7-0.1c-2.7,2.6-2.8,7-0.1,9.7
			c6.5,7.5,15,12.8,24.5,15.4L623.7,318.9z"/>
		<path id="Path_73-3_1_" class="st3" d="M618.6,287.4c-3.9-5.3-8.1-10.3-12.6-15c-2.1-2.3-5.7-2.5-8-0.4c-2.3,2.1-2.5,5.7-0.4,8
			c5.6,6.5,12.8,12.2,21.1,13.1L618.6,287.4z"/>
		<path id="Path_74-3_1_" class="st3" d="M613.2,258.1c-3.5-6.9-7.6-13.6-12.1-19.9c-1.7-2.2-4.8-2.6-6.9-1
			c-2.1,1.6-2.6,4.5-1.2,6.6c4.7,7.6,11.5,13.6,19.7,17.2L613.2,258.1z"/>
		<path id="Path_75-3_1_" class="st3" d="M608.9,219.2c0,0-3-5.1-7.3-11c-1.7-2.3-5-2.8-7.3-1.1c-2.2,1.6-2.8,4.6-1.3,6.9
			c4.1,6.3,9.3,11.7,15.3,12.8L608.9,219.2z"/>
		<path id="Path_76-3_1_" class="st3" d="M606.8,193.4l-3.8-19c-0.5-2.2-2.6-3.5-4.8-3c-1.9,0.4-3.3,2.2-3.1,4.2
			c1.4,10.1,4.8,20.3,12.4,27L606.8,193.4z"/>
		<path id="Path_77-3_1_" class="st3" d="M609,139.6L609,139.6c-0.8-1.9-3-2.8-4.9-2c-1.6,0.7-2.5,2.3-2.2,4
			c0.8,5.3,2.1,10.4,3.8,15.5L609,139.6z"/>
		<path id="Path_78-3_1_" class="st3" d="M595.5,564.9c6.9-2.3,14.5-0.6,19.8,4.3c9.7,9-3.4,24.2-13.7,15.9
			c-4.2-3.5-7.6-7.9-10-12.8L595.5,564.9z"/>
		<path id="Path_79-3_1_" class="st3" d="M610.9,532.4c8.1-1.6,16.4,0.7,22.6,6.2c10.4,9.8-4,25.8-15,16.6
			c-4.8-4.2-8.7-9.4-11.4-15.1L610.9,532.4z"/>
		<path id="Path_80-3_1_" class="st3" d="M620.3,504.5c6.7-4.8,15-6.6,23-5.1c12.1,2.4,9.1,20.7-3.1,19.2
			c-7.6-1.1-14.8-4.1-20.9-8.8L620.3,504.5z"/>
		<path id="Path_81-3_1_" class="st3" d="M628.8,472.1c6-4.5,13.3-6.7,20.7-6.2c12.7,1.1,11.3,20.3-1.4,19.5
			c-7.5-0.5-14.7-3.4-20.3-8.3L628.8,472.1z"/>
		<path id="Path_82-3_1_" class="st3" d="M631.8,445.1c4.4-6.4,10.4-11.4,17.5-14.6c11.9-4.7,19.5,13.1,8,18.6
			c-7.8,4.1-17.1,4.6-25.3,1.4L631.8,445.1z"/>
		<path id="Path_83-3_1_" class="st3" d="M632.2,410.9c4.4-6.5,10.5-11.6,17.7-14.7c12.1-4.5,19.8,13.4,8.2,19.1
			c-7.6,3.8-16.8,5.6-25.5,0.8L632.2,410.9z"/>
		<path id="Path_84-3_1_" class="st3" d="M629.9,381.1c2.6-6.9,6.2-13.4,10.6-19.3c2.8-3.5,7.9-4,11.4-1.2c3.3,2.7,4,7.4,1.6,10.9
			c-5.5,7.8-12.8,14.9-21.8,16.4L629.9,381.1z"/>
		<path id="Path_85-3_1_" class="st3" d="M629,352.7c2.2-8.7,5.5-17.1,9.8-25c1.9-3.2,6.1-4.3,9.3-2.4c3,1.8,4.2,5.7,2.6,8.8
			c-4.6,10-11.8,18.6-20.8,24.9L629,352.7z"/>
		<path id="Path_86-3_1_" class="st3" d="M622,317.3c2.6-6.7,6-13.1,10-19.1c2.2-3,6.5-3.7,9.5-1.5c2.8,2,3.6,5.8,1.9,8.9
			c-4.9,8.9-12.3,16-21.4,20.6L622,317.3z"/>
		<path id="Path_87-3_1_" class="st3" d="M616.4,287.2c1.4-6.4,3.1-12.7,5.2-18.9c0.9-3,4.1-4.6,7.1-3.7c3,0.9,4.6,4.1,3.7,7.1l0,0
			c-2.4,8.2-6.6,16.4-13.7,20.7L616.4,287.2z"/>
		<path id="Path_88-3_1_" class="st3" d="M612.5,257.5c1.9-7.6,4.3-15,7.3-22.2c1.1-2.5,4-3.7,6.5-2.6c2.4,1,3.6,3.8,2.7,6.3
			c-2.8,8.5-8.1,15.9-15.2,21.3L612.5,257.5z"/>
		<path id="Path_89-3_1_" class="st3" d="M606.7,221.9c0,0,1.1-5.8,3.2-12.8c0.6-2.8,3.4-4.5,6.2-3.9c2.8,0.6,4.5,3.4,3.9,6.2
			c0,0.1,0,0.2-0.1,0.3c-1.8,7.3-4.8,14.1-10.2,17.1L606.7,221.9z"/>
		<path id="Path_90-3_1_" class="st3" d="M608,192.2l6.6-18.2c0.8-2.1,3.1-3.1,5.2-2.3c1.9,0.7,2.9,2.7,2.4,4.7
			c-2.8,9.8-7.8,19.4-16.3,24.8L608,192.2z"/>
		<path id="Path_91-3_1_" class="st3" d="M616.2,141.5c0,0,1-0.8,2.6-2.1c1.4-1.1,3.5-0.9,4.6,0.5c1.1,1.3,1,3.2-0.2,4.4
			c-5.3,4.8-11.3,8.6-17.9,11.4L616.2,141.5z"/>
		<path id="Path_92-3_1_" class="st3" d="M615.8,131c3.9-8,8.3-15.9,13.1-23.4c0.6-1.2,0.2-2.6-1-3.3c-1-0.5-2.2-0.3-2.9,0.5
			c-5,7.4-8.6,15.7-10.6,24.5L615.8,131z"/>
		<path id="Path_93-3_1_" class="st4" d="M608.3,227.1l1.4-0.1c-6.1-56.4-3.5-91.3,7.1-98l-0.8-1.2
			C604.8,134.9,602.1,169.3,608.3,227.1z"/>
		<path id="Path_94-3_1_" class="st4" d="M629.1,360.6l2.1-0.3c-0.8-5.2-1.7-10.5-2.7-15.7c-8.8-45.8-15.7-88.2-19.1-120.3l-1.5-1.2
			c3.4,32.2,9.7,76,18.6,121.9C627.4,350.1,628.3,355.4,629.1,360.6z"/>
		<path id="Path_95-3_1_" class="st4" d="M531,645.9c0.3-0.3,32.6-24.9,60.9-72.3c16.6-27.7,28.7-57.9,35.8-89.4
			c9-39.4,9.2-85.2,2.7-128.2l-1.9,1.5c14.5,96.4-13.2,171.2-39.1,214.5c-28,46.9-59.9,71.3-60.3,71.5L531,645.9z"/>
	</g>
	<g id="Group_2-2_1_" transform="translate(0 120.143)">
		<ellipse id="Ellipse_28-2_1_" class="st3" cx="99" cy="570" rx="99" ry="16.5"/>
		<ellipse id="Ellipse_29-2_1_" class="st5" cx="97.3" cy="563" rx="10" ry="13.1"/>
		<ellipse id="Ellipse_30-2_1_" class="st5" cx="97.3" cy="547.1" rx="10" ry="13.1"/>
		<ellipse id="Ellipse_31-2_1_" class="st5" cx="97.3" cy="531.1" rx="10" ry="13.1"/>
		<ellipse id="Ellipse_32-2_1_" class="st5" cx="97.3" cy="514.9" rx="10" ry="13.1"/>
		<ellipse id="Ellipse_33-2_1_" class="st5" cx="97.3" cy="498.9" rx="10" ry="13.1"/>
		<ellipse id="Ellipse_34-2_1_" class="st5" cx="97.3" cy="482.9" rx="10" ry="13.1"/>
		<ellipse id="Ellipse_35-2_1_" class="st5" cx="97.3" cy="466.9" rx="10" ry="13.1"/>
		<path id="Path_96-3_1_" class="st3" d="M134.3,357.1c1.4-1.7,2.6-3.6,3.7-5.5l-26.2-4.3l28.3,0.2c5.5-12,5.8-25.7,0.9-37.9
			l-38,19.7l35.1-25.8c-13.2-22.9-42.4-30.7-65.3-17.5c-22.9,13.2-30.7,42.4-17.5,65.3c1.2,2,2.5,3.9,3.9,5.7
			c-2.1,2.7-3.9,5.6-5.5,8.7l34,17.7l-36.3-12.2c-5.2,15.3-2.3,32.2,7.7,44.9c-16.3,20.8-12.7,50.8,8,67.1
			c20.8,16.3,50.8,12.7,67.1-8c13.7-17.3,13.7-41.8,0-59.1C148,398.9,148,374.4,134.3,357.1L134.3,357.1z"/>
		<path id="Path_97-3_1_" class="st6" d="M48.9,387.1c0,10.7,3.6,21.1,10.2,29.5c-16.3,20.8-12.7,50.8,8,67.1
			c20.8,16.3,50.8,12.7,67.1-8c13.7-17.3,13.7-41.8,0-59.1C140.7,408.5,48.9,381.7,48.9,387.1z"/>
	</g>
	<g id="Group_1-2_1_" transform="translate(245.733 17.664)">
		<path id="Path_60-4_1_" class="st3" d="M611.4,631.9c-5.7-1.9-11.8-2.5-17.8-1.9c-3.1,0.4-5.4,3.2-5,6.4c0.4,3,3,5.2,6.1,5
			c3.7-0.3,7.3-1,10.8-2L611.4,631.9z"/>
		<path id="Path_61-4_1_" class="st3" d="M613.6,632c2.6,5.4,4.1,11.3,4.3,17.4c0.1,3.2-2.3,5.8-5.4,6c-3.2,0.1-5.8-2.3-6-5.4l0,0
			c-0.2-3.7-0.1-7.3,0.5-11L613.6,632z"/>
		<path id="Path_62-4_1_" class="st3" d="M630.2,608.2c0,0-3.6-11.2-25.4-6.9c-4.9,0.9-8.1,5.6-7.1,10.4c0.7,3.7,3.7,6.6,7.4,7.2
			h0.4C619.9,621,624.9,615.2,630.2,608.2z"/>
		<path id="Path_63-4_1_" class="st3" d="M632.5,607.5c0,0,11.7,0.9,12.5,23.2c0.2,4.9-3.6,9.1-8.6,9.3c-3.8,0.2-7.2-2.1-8.6-5.6
			c0-0.1-0.1-0.3-0.2-0.4C622.4,620.5,626.8,614.3,632.5,607.5z"/>
		<path id="Path_64-4_1_" class="st3" d="M648.1,578.9c-1.7-8.3-7.7-15-15.8-17.6c-14.8-4.7-22.6,17.5-8.1,23.1
			c6,2.2,12.3,3.1,18.7,2.7L648.1,578.9z"/>
		<path id="Path_65-4_1_" class="st3" d="M666.2,541.9c-4.1-8.7-12.1-15-21.5-16.9c-16.4-3-21.4,21.7-5.2,25.6
			c7.3,1.6,14.8,1.6,22.1,0.2L666.2,541.9z"/>
		<path id="Path_66-4_1_" class="st3" d="M677,505.6c-5.1-8-13.3-13.6-22.6-15.6c-14.1-2.7-18.9,18.5-5,22.1
			c8.7,2.1,17.8,2,26.5-0.4L677,505.6z"/>
		<path id="Path_67-4_1_" class="st3" d="M687.3,470.1c-4.5-7.4-11.5-13-19.8-15.7c-14.1-4.3-21.1,17.1-7.1,21.7
			c8.3,2.8,17.3,2.7,25.6-0.1L687.3,470.1z"/>
		<path id="Path_68-4_1_" class="st3" d="M691.6,437.8c-3.7-8.2-9.7-15.2-17.2-20.2c-12.8-7.8-25,11.3-12.7,19.9
			c8.2,6.2,18.6,8.6,28.7,6.5L691.6,437.8z"/>
		<path id="Path_69-4_1_" class="st3" d="M693.8,399.5c-4.1-8.2-10.4-15-18.2-19.8c-13.4-7.1-25,12.5-12.4,20.9
			c8.2,5.5,18.5,9,29.4,4.8L693.8,399.5z"/>
		<path id="Path_70-4_1_" class="st3" d="M692.4,364.6c-4.7-7.2-10.4-13.7-16.9-19.3c-9.4-7.7-21.2,6.1-12.3,14.3
			c8.2,7.5,18.4,13.8,28.9,13.3L692.4,364.6z"/>
		<path id="Path_71-4_1_" class="st3" d="M688.9,331.1c-5.3-9-11.8-17.3-19.1-24.7c-7.3-7.1-18.1,3.7-11.3,11.1
			c8.4,9.6,19.2,16.9,31.3,21.1L688.9,331.1z"/>
		<path id="Path_72-4_1_" class="st3" d="M682,291.7c-4.4-6.8-9.5-13.2-15.3-18.9c-2.9-3.3-7.9-3.7-11.3-0.8
			c-3.3,2.9-3.7,7.9-0.8,11.3c0.2,0.2,0.4,0.5,0.7,0.7c7.6,8.7,17.5,14.9,28.6,18L682,291.7z"/>
		<path id="Path_73-4_1_" class="st3" d="M676.1,254.9c-4.5-6.1-9.4-12-14.7-17.5c-2.4-2.7-6.6-3-9.3-0.5c-2.7,2.4-3,6.6-0.5,9.3
			c0,0,0.1,0.1,0.1,0.1c6.5,7.5,14.9,14.2,24.6,15.3L676.1,254.9z"/>
		<path id="Path_74-4_1_" class="st3" d="M669.8,220.8c-4.1-8.1-8.8-15.8-14.1-23.2c-1.9-2.5-5.6-3-8.1-1.1c-2.4,1.8-3,5.2-1.4,7.8
			c5.4,8.9,13.5,15.9,23,20.1L669.8,220.8z"/>
		<path id="Path_75-4_1_" class="st3" d="M664.7,175.4c0,0-3.5-5.9-8.5-12.8c-2-2.7-5.8-3.3-8.5-1.3c-2.5,1.9-3.2,5.4-1.6,8.1
			c4.8,7.4,10.8,13.6,17.8,14.9L664.7,175.4z"/>
		<path id="Path_76-4_1_" class="st3" d="M662.3,145.4l-4.4-22.1c-0.6-2.5-3.1-4-5.6-3.4c-2.2,0.5-3.7,2.6-3.6,4.9
			c1.6,11.8,5.7,23.7,14.5,31.5L662.3,145.4z"/>
		<path id="Path_77-4_1_" class="st3" d="M664.9,82.6L664.9,82.6c-0.9-2.2-3.4-3.3-5.6-2.4c-1.9,0.8-3,2.8-2.6,4.8
			c1,6.1,2.5,12.2,4.5,18.1L664.9,82.6z"/>
		<path id="Path_78-4_1_" class="st3" d="M649.1,578.4c8-2.7,16.9-0.8,23.1,5c11.3,10.5-4,28.2-16,18.5c-4.9-4.1-8.8-9.2-11.6-14.9
			L649.1,578.4z"/>
		<path id="Path_79-4_1_" class="st3" d="M667.2,540.6c9.4-1.9,19.2,0.8,26.3,7.2c12.2,11.4-4.7,30.1-17.5,19.4
			c-5.6-4.9-10.1-10.9-13.3-17.7L667.2,540.6z"/>
		<path id="Path_80-4_1_" class="st3" d="M678,508.1c7.8-5.6,17.4-7.7,26.8-6c14.1,2.8,10.6,24.2-3.6,22.4
			c-8.9-1.3-17.3-4.8-24.4-10.2L678,508.1z"/>
		<path id="Path_81-4_1_" class="st3" d="M688,470.3c6.9-5.2,15.5-7.8,24.2-7.2c14.8,1.3,13.2,23.7-1.6,22.8
			c-8.8-0.5-17.1-3.9-23.7-9.7L688,470.3z"/>
		<path id="Path_82-4_1_" class="st3" d="M691.4,438.8c5.1-7.4,12.1-13.3,20.3-17c13.9-5.5,22.8,15.3,9.3,21.7
			c-9.1,4.8-19.9,5.4-29.5,1.6L691.4,438.8z"/>
		<path id="Path_83-4_1_" class="st3" d="M691.9,399c5.1-7.6,12.2-13.5,20.6-17.2c14.1-5.3,23.1,15.6,9.6,22.3
			c-8.9,4.4-19.5,6.6-29.8,0.9L691.9,399z"/>
		<path id="Path_84-4_1_" class="st3" d="M689.3,364.3c3-8.1,7.2-15.6,12.4-22.4c7.5-9.5,22,1.4,15.1,11.3
			c-6.4,9.1-14.9,17.4-25.4,19.2L689.3,364.3z"/>
		<path id="Path_85-4_1_" class="st3" d="M688.2,331c2.6-10.2,6.4-20,11.5-29.2c2.2-3.8,7-5.1,10.8-2.9c3.6,2.1,5,6.7,3.1,10.4
			c-5.4,11.6-13.7,21.6-24.2,29L688.2,331z"/>
		<path id="Path_86-4_1_" class="st3" d="M680,289.8c3-7.8,7-15.3,11.6-22.3c2.6-3.5,7.6-4.3,11.1-1.7c3.2,2.4,4.2,6.8,2.2,10.3
			c-5.7,10.3-14.4,18.7-24.9,24L680,289.8z"/>
		<path id="Path_87-4_1_" class="st3" d="M673.5,254.7c1.6-7.4,3.6-14.8,6.1-22c1.3-3.4,5.1-5.2,8.5-3.9c3.2,1.2,5,4.6,4.1,7.9
			c-2.8,9.6-7.7,19.1-16,24.1L673.5,254.7z"/>
		<path id="Path_88-4_1_" class="st3" d="M669,220.1c2.2-8.8,5-17.5,8.5-25.9c1.1-3,4.5-4.5,7.4-3.4c3,1.1,4.5,4.5,3.4,7.4
			c0,0.1-0.1,0.2-0.1,0.2c-3.3,9.9-9.5,18.5-17.8,24.8L669,220.1z"/>
		<path id="Path_89-4_1_" class="st3" d="M662.2,178.6c0,0,1.3-6.7,3.7-14.9c0.9-3.2,4.3-5.1,7.5-4.2c3.1,0.9,5,4.1,4.3,7.2
			c-2.1,8.5-5.7,16.4-11.9,20L662.2,178.6z"/>
		<path id="Path_90-4_1_" class="st3" d="M663.7,143.9l7.7-21.2c1-2.4,3.7-3.5,6.1-2.6c2.1,0.9,3.3,3.2,2.8,5.4
			c-3.3,11.4-9.1,22.6-19,29L663.7,143.9z"/>
		<path id="Path_91-4_1_" class="st3" d="M673.3,84.8c0,0,1.2-1,3-2.5c1.6-1.4,4-1.2,5.4,0.4c1.3,1.5,1.2,3.8-0.3,5.2
			c-6.1,5.6-13.2,10.1-20.9,13.2L673.3,84.8z"/>
		<path id="Path_92-4_1_" class="st3" d="M672.8,72.5c4.6-9.4,9.7-18.5,15.3-27.3c0.7-1.4,0.2-3.1-1.1-3.8c-1.1-0.6-2.6-0.4-3.4,0.6
			c-5.9,8.6-10.1,18.3-12.3,28.5L672.8,72.5z"/>
		<path id="Path_93-4_1_" class="st4" d="M664.1,184.7l1.6-0.2c-7.1-65.8-4.1-106.4,8.3-114.3l-0.9-1.4
			C660,77.2,656.9,117.2,664.1,184.7z"/>
		<path id="Path_94-4_1_" class="st4" d="M688.3,340.2l2.4-0.4c-0.9-6.1-2-12.3-3.2-18.4c-10.3-53.4-18.3-102.8-22.3-140.3l-1.8-1.4
			c4,37.6,11.3,88.7,21.6,142.1C686.4,328,687.4,334.2,688.3,340.2z"/>
		<path id="Path_95-4_1_" class="st4" d="M574,672.9c0.4-0.3,38-29.1,71-84.3c19.4-32.3,33.5-67.5,41.8-104.2
			c10.4-45.9,10.7-99.4,3.2-149.4l-2.2,1.8c16.9,112.4-15.4,199.6-45.5,250c-32.7,54.7-69.9,83.2-70.2,83.4L574,672.9z"/>
	</g>
	<g id="Group_11-2_1_" transform="translate(20.006 47.369)">
		<ellipse id="Ellipse_42_1_" class="st7" cx="300.4" cy="670.5" rx="1.6" ry="1.6"/>
		<ellipse id="Ellipse_43_1_" class="st7" cx="304.6" cy="670.5" rx="1.6" ry="1.6"/>
		<ellipse id="Ellipse_44_1_" class="st7" cx="308.7" cy="670.5" rx="1.6" ry="1.6"/>
		<path id="Path_312-2_1_" class="st8" d="M69,590.7l-20.4,48.9c-2.3,5.6,0.3,12,5.9,14.3c1.3,0.6,2.8,0.8,4.3,0.8h878
			c6.1,0,11-4.9,11-10.9c0-1.5-0.3-2.9-0.8-4.3L728.3,117c-1.7-4.1-5.7-6.8-10.2-6.7H269.9L69,590.7z"/>
		<g id="Group_10-2_1_" transform="translate(0.338 0)">
			<path id="Path_313-2_1_" class="st9" d="M946.5,639.5L727.9,117c-1.7-4.1-5.7-6.8-10.2-6.7h-41.2c4.4,0,8.4,2.7,10.2,6.7
				l218.6,522.5c2.3,5.6-0.3,12-5.9,14.3c-1.3,0.6-2.8,0.8-4.3,0.8h41.2c6.1,0,11-4.9,11-10.9C947.4,642.3,947.1,640.9,946.5,639.5
				L946.5,639.5z"/>
			<path id="Path_314-2_1_" class="st9" d="M491,639.5L269.6,110.3L108.8,494.6l-60.6,145c-2.3,5.6,0.3,12,5.9,14.3
				c1.3,0.6,2.8,0.8,4.3,0.8h422.5c6.1,0,11-4.9,11-10.9C491.8,642.3,491.6,640.9,491,639.5L491,639.5z"/>
		</g>
		<path id="Path_316-2_1_" class="st8" d="M133.3,654.7l-83.5-83.1c-4.2-4.2-4.3-11-0.1-15.3L269.9,328l-94.9,326.7H133.3z"/>
		<path id="Path_321-2_1_" class="st10" d="M406.6,654.7L269.9,328L133.3,654.7H406.6z"/>
		<path id="Path_322-2_1_" class="st11" d="M406.6,654.7L269.9,328L133.3,654.7H406.6z"/>
	</g>
</g>
</svg>
